<svg width="44" height="44" viewBox="0 0 44 44" fill="none" xmlns="http://www.w3.org/2000/svg">
<path d="M0 22C0 12.6177 0 7.92655 2.47976 4.69486C3.11817 3.86288 3.86288 3.11817 4.69486 2.47976C7.92655 0 12.6177 0 22 0C31.3823 0 36.0735 0 39.3051 2.47976C40.1371 3.11817 40.8818 3.86288 41.5202 4.69486C44 7.92655 44 12.6177 44 22C44 31.3823 44 36.0735 41.5202 39.3051C40.8818 40.1371 40.1371 40.8818 39.3051 41.5202C36.0735 44 31.3823 44 22 44C12.6177 44 7.92655 44 4.69486 41.5202C3.86288 40.8818 3.11817 40.1371 2.47976 39.3051C0 36.0735 0 31.3823 0 22Z" fill="#D8ECEF"/>
<mask id="mask0_2612_6429" style="mask-type:alpha" maskUnits="userSpaceOnUse" x="10" y="10" width="24" height="24">
<rect x="10" y="10" width="24" height="24" fill="#D9D9D9"/>
</mask>
<g mask="url(#mask0_2612_6429)">
<path d="M22 32C20.6333 32 19.3417 31.7375 18.125 31.2125C16.9083 30.6875 15.8458 29.9708 14.9375 29.0625C14.0292 28.1542 13.3125 27.0917 12.7875 25.875C12.2625 24.6583 12 23.3667 12 22C12 20.6167 12.2625 19.3208 12.7875 18.1125C13.3125 16.9042 14.0292 15.8458 14.9375 14.9375C15.8458 14.0292 16.9083 13.3125 18.125 12.7875C19.3417 12.2625 20.6333 12 22 12C23.3833 12 24.6792 12.2625 25.8875 12.7875C27.0958 13.3125 28.1542 14.0292 29.0625 14.9375C29.9708 15.8458 30.6875 16.9042 31.2125 18.1125C31.7375 19.3208 32 20.6167 32 22C32 23.3667 31.7375 24.6583 31.2125 25.875C30.6875 27.0917 29.9708 28.1542 29.0625 29.0625C28.1542 29.9708 27.0958 30.6875 25.8875 31.2125C24.6792 31.7375 23.3833 32 22 32ZM22 29.95C22.4333 29.35 22.8083 28.725 23.125 28.075C23.4417 27.425 23.7 26.7333 23.9 26H20.1C20.3 26.7333 20.5583 27.425 20.875 28.075C21.1917 28.725 21.5667 29.35 22 29.95ZM19.4 29.55C19.1 29 18.8375 28.4292 18.6125 27.8375C18.3875 27.2458 18.2 26.6333 18.05 26H15.1C15.5833 26.8333 16.1875 27.5583 16.9125 28.175C17.6375 28.7917 18.4667 29.25 19.4 29.55ZM24.6 29.55C25.5333 29.25 26.3625 28.7917 27.0875 28.175C27.8125 27.5583 28.4167 26.8333 28.9 26H25.95C25.8 26.6333 25.6125 27.2458 25.3875 27.8375C25.1625 28.4292 24.9 29 24.6 29.55ZM14.25 24H17.65C17.6 23.6667 17.5625 23.3375 17.5375 23.0125C17.5125 22.6875 17.5 22.35 17.5 22C17.5 21.65 17.5125 21.3125 17.5375 20.9875C17.5625 20.6625 17.6 20.3333 17.65 20H14.25C14.1667 20.3333 14.1042 20.6625 14.0625 20.9875C14.0208 21.3125 14 21.65 14 22C14 22.35 14.0208 22.6875 14.0625 23.0125C14.1042 23.3375 14.1667 23.6667 14.25 24ZM19.65 24H24.35C24.4 23.6667 24.4375 23.3375 24.4625 23.0125C24.4875 22.6875 24.5 22.35 24.5 22C24.5 21.65 24.4875 21.3125 24.4625 20.9875C24.4375 20.6625 24.4 20.3333 24.35 20H19.65C19.6 20.3333 19.5625 20.6625 19.5375 20.9875C19.5125 21.3125 19.5 21.65 19.5 22C19.5 22.35 19.5125 22.6875 19.5375 23.0125C19.5625 23.3375 19.6 23.6667 19.65 24ZM26.35 24H29.75C29.8333 23.6667 29.8958 23.3375 29.9375 23.0125C29.9792 22.6875 30 22.35 30 22C30 21.65 29.9792 21.3125 29.9375 20.9875C29.8958 20.6625 29.8333 20.3333 29.75 20H26.35C26.4 20.3333 26.4375 20.6625 26.4625 20.9875C26.4875 21.3125 26.5 21.65 26.5 22C26.5 22.35 26.4875 22.6875 26.4625 23.0125C26.4375 23.3375 26.4 23.6667 26.35 24ZM25.95 18H28.9C28.4167 17.1667 27.8125 16.4417 27.0875 15.825C26.3625 15.2083 25.5333 14.75 24.6 14.45C24.9 15 25.1625 15.5708 25.3875 16.1625C25.6125 16.7542 25.8 17.3667 25.95 18ZM20.1 18H23.9C23.7 17.2667 23.4417 16.575 23.125 15.925C22.8083 15.275 22.4333 14.65 22 14.05C21.5667 14.65 21.1917 15.275 20.875 15.925C20.5583 16.575 20.3 17.2667 20.1 18ZM15.1 18H18.05C18.2 17.3667 18.3875 16.7542 18.6125 16.1625C18.8375 15.5708 19.1 15 19.4 14.45C18.4667 14.75 17.6375 15.2083 16.9125 15.825C16.1875 16.4417 15.5833 17.1667 15.1 18Z" fill="#774625"/>
</g>
</svg>
