<svg width="44" height="44" viewBox="0 0 44 44" fill="none" xmlns="http://www.w3.org/2000/svg">
<path d="M0 22C0 12.6177 0 7.92655 2.47976 4.69486C3.11817 3.86288 3.86288 3.11817 4.69486 2.47976C7.92655 0 12.6177 0 22 0C31.3823 0 36.0735 0 39.3051 2.47976C40.1371 3.11817 40.8818 3.86288 41.5202 4.69486C44 7.92655 44 12.6177 44 22C44 31.3823 44 36.0735 41.5202 39.3051C40.8818 40.1371 40.1371 40.8818 39.3051 41.5202C36.0735 44 31.3823 44 22 44C12.6177 44 7.92655 44 4.69486 41.5202C3.86288 40.8818 3.11817 40.1371 2.47976 39.3051C0 36.0735 0 31.3823 0 22Z" fill="#C3CAAE"/>
<mask id="mask0_2612_6425" style="mask-type:alpha" maskUnits="userSpaceOnUse" x="10" y="10" width="24" height="24">
<rect x="10" y="10" width="24" height="24" fill="#D9D9D9"/>
</mask>
<g mask="url(#mask0_2612_6425)">
<path d="M26 25L29 22L27.95 20.925L26.75 22.125V19H25.25V22.125L24.05 20.925L23 22L26 25ZM14 30C13.45 30 12.9792 29.8042 12.5875 29.4125C12.1958 29.0208 12 28.55 12 28V16C12 15.45 12.1958 14.9792 12.5875 14.5875C12.9792 14.1958 13.45 14 14 14H30C30.55 14 31.0208 14.1958 31.4125 14.5875C31.8042 14.9792 32 15.45 32 16V28C32 28.55 31.8042 29.0208 31.4125 29.4125C31.0208 29.8042 30.55 30 30 30H14ZM14 28H30V16H14V28ZM15.5 25H17V20.5H18V23.5H19.5V20.5H20.5V25H22V20C22 19.7167 21.9042 19.4792 21.7125 19.2875C21.5208 19.0958 21.2833 19 21 19H16.5C16.2167 19 15.9792 19.0958 15.7875 19.2875C15.5958 19.4792 15.5 19.7167 15.5 20V25Z" fill="#774625"/>
</g>
</svg>
