<svg width="105" height="105" viewBox="0 0 105 105" fill="none" xmlns="http://www.w3.org/2000/svg">
<rect width="148" height="28" transform="translate(19.799 -19.7324) rotate(45)" fill="#FBBB52"/>
<path d="M38.6548 25.4263C38.4733 25.2448 38.3696 25.084 38.3436 24.944C38.3177 24.804 38.3385 24.6796 38.4059 24.5707C38.4785 24.4566 38.5666 24.3477 38.6703 24.244L42.9405 19.9738C43.0391 19.8752 43.1402 19.7949 43.2439 19.7326C43.3476 19.6704 43.4669 19.6549 43.6017 19.686C43.7469 19.7171 43.9154 19.8286 44.1073 20.0204C44.2939 20.2071 44.4002 20.3601 44.4262 20.4793C44.4573 20.5934 44.4625 20.7179 44.4417 20.8527L43.5939 26.243L46.4018 23.435C46.5004 23.3365 46.6015 23.2562 46.7052 23.1939C46.8141 23.1369 46.9359 23.1239 47.0708 23.155C47.2108 23.181 47.3741 23.2873 47.5608 23.4739C47.7526 23.6658 47.8589 23.8291 47.8797 23.964C47.9056 24.104 47.8797 24.2284 47.8019 24.3373C47.7345 24.4462 47.6515 24.5499 47.553 24.6484L43.3061 28.8953C43.2076 28.9939 43.1013 29.0794 42.9872 29.152C42.8783 29.2194 42.7539 29.2402 42.6139 29.2142C42.4739 29.1883 42.3079 29.0794 42.1161 28.8875C41.9709 28.7424 41.8698 28.6153 41.8127 28.5064C41.7609 28.4027 41.7427 28.286 41.7583 28.1564L42.5827 22.6961L39.8448 25.434C39.7463 25.5326 39.64 25.6181 39.5259 25.6907C39.417 25.7581 39.2926 25.7789 39.1526 25.7529C39.0126 25.727 38.8466 25.6181 38.6548 25.4263ZM45.2477 32.1592C44.8847 31.7962 44.6306 31.4228 44.4854 31.0391C44.3454 30.6606 44.2884 30.2924 44.3143 29.9346C44.3454 29.5716 44.4388 29.2294 44.5943 28.9079C44.7551 28.5916 44.9547 28.3142 45.1932 28.0756C45.5821 27.6867 46.0151 27.4301 46.4922 27.3056C46.9693 27.1812 47.4489 27.1889 47.9312 27.3289C48.4186 27.4638 48.8645 27.7334 49.269 28.1379C49.5698 28.4386 49.7798 28.7472 49.899 29.0635C50.0287 29.3798 50.0857 29.6857 50.0702 29.9813C50.065 30.2769 50.0079 30.5465 49.899 30.7902C49.7953 31.0391 49.6631 31.244 49.5023 31.4047C49.2171 31.6899 48.9345 31.8325 48.6545 31.8325C48.3849 31.8325 48.1438 31.7262 47.9312 31.5136L46.08 29.6624C45.9555 29.8076 45.8881 29.9683 45.8777 30.1446C45.8725 30.3261 45.9088 30.5076 45.9866 30.6891C46.0644 30.8706 46.1759 31.0339 46.3211 31.1791C46.4455 31.3036 46.5596 31.4073 46.6633 31.4903C46.7722 31.568 46.8707 31.6303 46.9589 31.6769C47.0522 31.7184 47.1378 31.7573 47.2156 31.7936C47.2985 31.8247 47.3685 31.8532 47.4256 31.8792C47.4878 31.9103 47.5422 31.944 47.5889 31.9803C47.6719 32.0529 47.7186 32.1462 47.7289 32.2603C47.7497 32.3744 47.7367 32.5066 47.69 32.657C47.6693 32.7503 47.6382 32.8281 47.5967 32.8903C47.5604 32.9577 47.5163 33.0174 47.4645 33.0692C47.34 33.1937 47.1637 33.2403 46.9355 33.2092C46.7126 33.1833 46.4559 33.0822 46.1655 32.9059C45.8803 32.7348 45.5744 32.4859 45.2477 32.1592ZM46.7178 29.0246L47.9467 30.2535C48.0297 30.3365 48.1023 30.3832 48.1645 30.3935C48.2371 30.4039 48.3149 30.3676 48.3978 30.2846C48.4912 30.1913 48.543 30.0824 48.5534 29.958C48.569 29.8283 48.5456 29.6961 48.4834 29.5613C48.4316 29.4265 48.3434 29.2968 48.2189 29.1724C48.0582 29.0116 47.8845 28.9001 47.6978 28.8379C47.5111 28.7757 47.3296 28.7601 47.1533 28.7912C46.9822 28.8275 46.837 28.9053 46.7178 29.0246ZM48.8244 35.6114C48.6844 35.4714 48.6014 35.3366 48.5755 35.207C48.5547 35.0825 48.5625 34.9658 48.5988 34.8569C48.6403 34.7532 48.6766 34.6651 48.7077 34.5925L50.3256 30.7812C50.4137 30.6204 50.4993 30.4986 50.5822 30.4156C50.6756 30.3326 50.7793 30.2911 50.8934 30.2911C51.0178 30.2911 51.1682 30.3326 51.3445 30.4156C51.6245 30.5297 51.8086 30.6671 51.8967 30.8278C51.9849 30.9886 51.9719 31.1882 51.8579 31.4268L50.87 33.5658L52.8224 32.6402C52.8949 32.609 52.9805 32.5805 53.079 32.5546C53.1827 32.5235 53.2968 32.5183 53.4213 32.539C53.5509 32.565 53.6805 32.6427 53.8102 32.7724C53.9502 32.9124 54.0332 33.0472 54.0591 33.1768C54.085 33.3065 54.0824 33.4232 54.0513 33.5269C54.0254 33.6358 53.9969 33.7213 53.9657 33.7835L53.0401 35.7359L55.0547 34.8103C55.3191 34.691 55.5447 34.6573 55.7314 34.7091C55.9181 34.761 56.0684 34.9269 56.1825 35.207C56.2862 35.4662 56.3148 35.6866 56.2681 35.8681C56.2214 36.0496 56.0684 36.187 55.8092 36.2803L52.0056 37.8904C51.9279 37.9267 51.8345 37.963 51.7256 37.9993C51.6167 38.0356 51.5027 38.0408 51.3834 38.0149C51.2589 37.9941 51.1319 37.9189 51.0023 37.7893C50.8674 37.6545 50.7871 37.5274 50.7611 37.4082C50.73 37.2941 50.73 37.18 50.7611 37.0659C50.7974 36.957 50.8389 36.8533 50.8856 36.7548L51.7956 34.8025L49.8511 35.7203C49.7215 35.7774 49.6048 35.8266 49.5011 35.8681C49.4025 35.9044 49.2988 35.9044 49.1899 35.8681C49.0862 35.837 48.9644 35.7514 48.8244 35.6114ZM55.6326 42.4041C55.4408 42.2123 55.3293 42.0489 55.2982 41.9141C55.2774 41.7793 55.3008 41.6574 55.3682 41.5485C55.446 41.4396 55.5341 41.3359 55.6326 41.2374L58.3472 38.5228C58.4509 38.4191 58.5546 38.331 58.6584 38.2584C58.7672 38.191 58.8891 38.1728 59.0239 38.2039C59.1639 38.2298 59.3299 38.3387 59.5217 38.5306C59.7084 38.7173 59.8121 38.878 59.8329 39.0128C59.8588 39.1529 59.8354 39.2747 59.7629 39.3784C59.6954 39.4873 59.6073 39.5962 59.4984 39.7051L56.7916 42.4119C56.6931 42.5104 56.5868 42.596 56.4727 42.6686C56.369 42.7412 56.2497 42.7619 56.1149 42.7308C55.9853 42.7049 55.8245 42.596 55.6326 42.4041ZM60.0818 37.955C59.8847 37.758 59.7732 37.5894 59.7473 37.4494C59.7214 37.3094 59.7447 37.1824 59.8173 37.0683C59.8951 36.9594 59.9858 36.8531 60.0895 36.7494C60.1984 36.6405 60.3073 36.5524 60.4162 36.4849C60.5303 36.4123 60.6548 36.3916 60.7896 36.4227C60.9296 36.4486 61.0981 36.5601 61.2952 36.7572C61.487 36.949 61.5959 37.115 61.6218 37.255C61.6478 37.395 61.6218 37.5194 61.5441 37.6283C61.4715 37.7424 61.3833 37.8513 61.2796 37.955C61.1759 38.0587 61.067 38.1469 60.9529 38.2195C60.844 38.2973 60.7196 38.3232 60.5796 38.2973C60.4447 38.2661 60.2788 38.1521 60.0818 37.955ZM57.4853 44.2412C57.2934 44.0494 57.182 43.886 57.1508 43.7512C57.1301 43.6164 57.1534 43.4945 57.2208 43.3856C57.2986 43.2767 57.3868 43.173 57.4853 43.0745L60.2232 40.3366C60.3217 40.2381 60.4229 40.1577 60.5266 40.0955C60.6355 40.0281 60.7547 40.0073 60.8844 40.0332C61.0192 40.0644 61.1825 40.1758 61.3744 40.3677C61.5403 40.5336 61.6389 40.6788 61.67 40.8033C61.7063 40.9226 61.7037 41.0237 61.6622 41.1066C61.6259 41.1948 61.5792 41.2674 61.5222 41.3244C61.4703 41.3763 61.4392 41.4178 61.4288 41.4489L61.2344 41.55C61.3225 41.4826 61.4392 41.4437 61.5844 41.4333C61.74 41.4229 61.9007 41.4385 62.0667 41.48C62.243 41.5215 62.4089 41.5837 62.5645 41.6667C62.7252 41.7548 62.8652 41.8585 62.9845 41.9778C63.2334 42.2267 63.4071 42.4937 63.5056 42.7789C63.6145 43.0641 63.6508 43.3597 63.6145 43.6657C63.5782 43.9716 63.4771 44.2749 63.3112 44.5757C63.1556 44.8765 62.9404 45.1643 62.6656 45.4391L61.2499 46.8547C61.1514 46.9532 61.0451 47.0388 60.931 47.1114C60.8273 47.184 60.7081 47.2047 60.5732 47.1736C60.4436 47.1477 60.2829 47.0388 60.091 46.8469C59.8939 46.6499 59.7799 46.4839 59.7488 46.3491C59.728 46.2143 59.7513 46.0924 59.8188 45.9836C59.8914 45.8695 59.9769 45.7632 60.0754 45.6646L61.4833 44.2568C61.6389 44.1012 61.7452 43.9431 61.8022 43.7823C61.8592 43.6216 61.8644 43.4608 61.8178 43.3001C61.7763 43.1341 61.6803 42.976 61.53 42.8256C61.3796 42.6752 61.2188 42.5767 61.0477 42.53C60.8766 42.4834 60.7055 42.4834 60.5344 42.53C60.3684 42.5819 60.2103 42.683 60.0599 42.8334L58.6443 44.249C58.5457 44.3475 58.4394 44.4331 58.3253 44.5057C58.2216 44.5783 58.1024 44.599 57.9676 44.5679C57.8379 44.542 57.6772 44.4331 57.4853 44.2412ZM64.9888 51.8225C64.8644 51.6981 64.7814 51.5684 64.7399 51.4336C64.6984 51.2988 64.701 51.1562 64.7477 51.0058L66.14 46.8134C66.2333 46.5334 66.3578 46.3519 66.5133 46.2689C66.6793 46.1859 66.91 46.1937 67.2056 46.2922C67.496 46.396 67.6827 46.5204 67.7656 46.6656C67.859 46.8108 67.846 47.0364 67.7267 47.3423L66.5678 50.2436L69.4379 49.1157C69.7594 48.9913 69.9954 48.9679 70.1457 49.0457C70.2961 49.1235 70.4232 49.318 70.5269 49.6291C70.641 49.9402 70.641 50.1736 70.5269 50.3291C70.4232 50.4847 70.2417 50.6039 69.9824 50.6869L65.8133 52.0714C65.6681 52.1233 65.5281 52.1285 65.3933 52.087C65.2585 52.0455 65.1236 51.9574 64.9888 51.8225ZM69.3948 56.3374C69.0577 56.0003 68.827 55.6555 68.7025 55.3029C68.5781 54.9503 68.534 54.6003 68.5703 54.2528C68.6118 53.9002 68.7051 53.558 68.8503 53.2261C69.0059 52.8943 69.1951 52.5805 69.4181 52.285C69.6463 51.9842 69.8822 51.712 70.1259 51.4683C70.3541 51.2401 70.6134 51.0171 70.9038 50.7993C71.1993 50.5764 71.513 50.3871 71.8449 50.2315C72.1768 50.076 72.5164 49.9748 72.8639 49.9282C73.2216 49.8815 73.5769 49.9204 73.9295 50.0449C74.2924 50.1693 74.6399 50.3975 74.9717 50.7293C75.2932 51.0508 75.511 51.3879 75.6251 51.7405C75.7496 52.0931 75.7884 52.4431 75.7418 52.7905C75.7003 53.1328 75.6018 53.4698 75.4462 53.8017C75.2958 54.1388 75.1092 54.4551 74.8862 54.7506C74.6632 55.0462 74.4325 55.3133 74.1939 55.5518C73.9502 55.7955 73.678 56.0263 73.3772 56.2441C73.0816 56.467 72.7679 56.6563 72.4361 56.8119C72.1042 56.9674 71.7645 57.0634 71.4171 57.0997C71.0749 57.1411 70.7326 57.1048 70.3904 56.9908C70.0482 56.8767 69.7163 56.6589 69.3948 56.3374ZM70.5537 55.1162C70.7249 55.2873 70.9012 55.3859 71.0826 55.4118C71.2745 55.4377 71.4612 55.417 71.6427 55.3496C71.8294 55.2873 72.0057 55.1992 72.1716 55.0851C72.3479 54.971 72.5035 54.8518 72.6383 54.7273C72.7783 54.5977 72.8924 54.4888 72.9805 54.4006L73.0194 54.3617C73.3668 54.0143 73.6287 53.6902 73.805 53.3895C73.9813 53.0887 74.0695 52.8139 74.0695 52.565C74.0695 52.3161 73.9735 52.0957 73.7817 51.9038C73.5846 51.7068 73.3591 51.6057 73.105 51.6005C72.8613 51.5953 72.5864 51.6835 72.2805 51.8649C71.9797 52.0413 71.653 52.3057 71.3004 52.6583C70.9582 53.0006 70.6989 53.3221 70.5226 53.6228C70.3515 53.9288 70.2659 54.2062 70.2659 54.4551C70.2711 54.7092 70.3671 54.9295 70.5537 55.1162ZM72.5159 59.3029C72.2774 59.0644 72.1581 58.8518 72.1581 58.6651C72.1581 58.4785 72.2722 58.271 72.5003 58.0429C72.6611 57.8821 72.8089 57.7758 72.9437 57.724C73.0785 57.6721 73.2133 57.6721 73.3482 57.724C73.483 57.7758 73.6282 57.8795 73.7837 58.0351C74.0223 58.2736 74.1389 58.4836 74.1338 58.6651C74.1338 58.8518 74.0145 59.0644 73.776 59.3029C73.6204 59.4585 73.4752 59.5622 73.3404 59.6141C73.2107 59.6711 73.0811 59.6711 72.9515 59.6141C72.8167 59.5622 72.6715 59.4585 72.5159 59.3029ZM76.7612 63.5327C76.5693 63.3408 76.4604 63.1749 76.4345 63.0349C76.4086 62.8949 76.4319 62.7678 76.5045 62.6538C76.5823 62.5449 76.6705 62.4412 76.769 62.3426L77.7646 61.347L75.68 59.2625C75.4934 59.0758 75.3871 58.9125 75.3611 58.7725C75.3352 58.6324 75.3559 58.508 75.4234 58.3991C75.5011 58.2902 75.5893 58.1865 75.6878 58.088C75.7397 58.0361 75.7812 57.9946 75.8123 57.9635C75.8537 57.9324 75.8952 57.9065 75.9367 57.8857L79.2035 55.9723C79.5043 55.796 79.7299 55.7364 79.8803 55.7934C80.041 55.8504 80.2017 56.0112 80.3625 56.2757C80.4869 56.4831 80.5518 56.6723 80.557 56.8435C80.5621 57.0146 80.4869 57.1468 80.3314 57.2402L77.5157 58.8891L78.8691 60.2425L81.0625 58.0491C81.1559 57.9557 81.2544 57.878 81.3581 57.8157C81.4618 57.7535 81.5811 57.738 81.7159 57.7691C81.8559 57.795 82.0244 57.9065 82.2215 58.1035C82.4082 58.2902 82.5145 58.4535 82.5404 58.5936C82.5663 58.7336 82.5404 58.858 82.4626 58.9669C82.3952 59.0758 82.3096 59.1821 82.2059 59.2858L77.9513 63.5405C77.8476 63.6442 77.7387 63.7323 77.6246 63.8049C77.5157 63.8723 77.3912 63.8931 77.2512 63.8672C77.1164 63.836 76.9531 63.7246 76.7612 63.5327ZM80.3534 63.5625C80.1667 63.3758 80.0552 63.2176 80.0189 63.088C79.9878 62.9532 80.0008 62.8365 80.0578 62.738C80.1252 62.6395 80.2056 62.5435 80.2989 62.4502L82.9046 59.8445C82.998 59.7512 83.0939 59.6708 83.1924 59.6034C83.2961 59.5412 83.4154 59.5256 83.5502 59.5567C83.685 59.5878 83.8484 59.6993 84.0402 59.8912C84.2321 60.083 84.341 60.2438 84.3669 60.3734C84.398 60.5082 84.3799 60.6249 84.3125 60.7234C84.2502 60.8271 84.1725 60.9257 84.0791 61.019L81.4657 63.6325C81.3775 63.7206 81.2816 63.7958 81.1779 63.858C81.0793 63.9255 80.9653 63.941 80.8356 63.9047C80.7112 63.8736 80.5504 63.7595 80.3534 63.5625ZM78.5644 65.3514C78.3103 65.0974 78.1911 64.8796 78.2066 64.6981C78.2222 64.5166 78.344 64.3118 78.5722 64.0836C78.6759 63.9799 78.7848 63.8917 78.8989 63.8191C79.0181 63.7414 79.153 63.7154 79.3033 63.7414C79.4537 63.7673 79.6326 63.884 79.84 64.0914C80.0993 64.3507 80.2186 64.5684 80.1978 64.7448C80.1874 64.9211 80.0656 65.1259 79.8322 65.3592C79.7285 65.4629 79.617 65.5537 79.4978 65.6315C79.3837 65.7041 79.2515 65.7274 79.1011 65.7015C78.9507 65.6755 78.7718 65.5589 78.5644 65.3514Z" fill="#774625"/>
</svg>
