<svg width="44" height="45" viewBox="0 0 44 45" fill="none" xmlns="http://www.w3.org/2000/svg">
<path d="M0 22.7324C0 13.3501 0 8.65897 2.47976 5.42728C3.11817 4.5953 3.86288 3.85059 4.69486 3.21218C7.92655 0.732422 12.6177 0.732422 22 0.732422C31.3823 0.732422 36.0735 0.732422 39.3051 3.21218C40.1371 3.85059 40.8818 4.5953 41.5202 5.42728C44 8.65897 44 13.3501 44 22.7324C44 32.1147 44 36.8059 41.5202 40.0376C40.8818 40.8695 40.1371 41.6143 39.3051 42.2527C36.0735 44.7324 31.3823 44.7324 22 44.7324C12.6177 44.7324 7.92655 44.7324 4.69486 42.2527C3.86288 41.6143 3.11817 40.8695 2.47976 40.0376C0 36.8059 0 32.1147 0 22.7324Z" fill="#C3CAAE"/>
<mask id="mask0_2060_562" style="mask-type:alpha" maskUnits="userSpaceOnUse" x="10" y="10" width="24" height="25">
<rect x="10" y="10.7324" width="24" height="24" fill="#D9D9D9"/>
</mask>
<g mask="url(#mask0_2060_562)">
<path d="M17 27.7324V25.7324H23C22.7667 25.4491 22.5792 25.1408 22.4375 24.8074C22.2958 24.4741 22.1833 24.1158 22.1 23.7324H19V21.7324H22.1C22.1833 21.3491 22.2958 20.9908 22.4375 20.6574C22.5792 20.3241 22.7667 20.0158 23 19.7324H13V17.7324H27C28.3833 17.7324 29.5625 18.2199 30.5375 19.1949C31.5125 20.1699 32 21.3491 32 22.7324C32 24.1158 31.5125 25.2949 30.5375 26.2699C29.5625 27.2449 28.3833 27.7324 27 27.7324H17ZM27 25.7324C27.8333 25.7324 28.5417 25.4408 29.125 24.8574C29.7083 24.2741 30 23.5658 30 22.7324C30 21.8991 29.7083 21.1908 29.125 20.6074C28.5417 20.0241 27.8333 19.7324 27 19.7324C26.1667 19.7324 25.4583 20.0241 24.875 20.6074C24.2917 21.1908 24 21.8991 24 22.7324C24 23.5658 24.2917 24.2741 24.875 24.8574C25.4583 25.4408 26.1667 25.7324 27 25.7324ZM12 23.7324V21.7324H18V23.7324H12ZM13 27.7324V25.7324H16V27.7324H13Z" fill="#774625"/>
</g>
</svg>
