<svg width="44" height="44" viewBox="0 0 44 44" fill="none" xmlns="http://www.w3.org/2000/svg">
<path d="M0 22C0 12.6177 0 7.92655 2.47976 4.69486C3.11817 3.86288 3.86288 3.11817 4.69486 2.47976C7.92655 0 12.6177 0 22 0C31.3823 0 36.0735 0 39.3051 2.47976C40.1371 3.11817 40.8818 3.86288 41.5202 4.69486C44 7.92655 44 12.6177 44 22C44 31.3823 44 36.0735 41.5202 39.3051C40.8818 40.1371 40.1371 40.8818 39.3051 41.5202C36.0735 44 31.3823 44 22 44C12.6177 44 7.92655 44 4.69486 41.5202C3.86288 40.8818 3.11817 40.1371 2.47976 39.3051C0 36.0735 0 31.3823 0 22Z" fill="#EAADAD"/>
<mask id="mask0_2612_6402" style="mask-type:alpha" maskUnits="userSpaceOnUse" x="10" y="10" width="24" height="24">
<rect x="10" y="10" width="24" height="24" fill="#D9D9D9"/>
</mask>
<g mask="url(#mask0_2612_6402)">
<path d="M18 21C18.2833 21 18.5208 20.9042 18.7125 20.7125C18.9042 20.5208 19 20.2833 19 20C19 19.7167 18.9042 19.4792 18.7125 19.2875C18.5208 19.0958 18.2833 19 18 19C17.7167 19 17.4792 19.0958 17.2875 19.2875C17.0958 19.4792 17 19.7167 17 20C17 20.2833 17.0958 20.5208 17.2875 20.7125C17.4792 20.9042 17.7167 21 18 21ZM22 21C22.2833 21 22.5208 20.9042 22.7125 20.7125C22.9042 20.5208 23 20.2833 23 20C23 19.7167 22.9042 19.4792 22.7125 19.2875C22.5208 19.0958 22.2833 19 22 19C21.7167 19 21.4792 19.0958 21.2875 19.2875C21.0958 19.4792 21 19.7167 21 20C21 20.2833 21.0958 20.5208 21.2875 20.7125C21.4792 20.9042 21.7167 21 22 21ZM26 21C26.2833 21 26.5208 20.9042 26.7125 20.7125C26.9042 20.5208 27 20.2833 27 20C27 19.7167 26.9042 19.4792 26.7125 19.2875C26.5208 19.0958 26.2833 19 26 19C25.7167 19 25.4792 19.0958 25.2875 19.2875C25.0958 19.4792 25 19.7167 25 20C25 20.2833 25.0958 20.5208 25.2875 20.7125C25.4792 20.9042 25.7167 21 26 21ZM12 32V14C12 13.45 12.1958 12.9792 12.5875 12.5875C12.9792 12.1958 13.45 12 14 12H30C30.55 12 31.0208 12.1958 31.4125 12.5875C31.8042 12.9792 32 13.45 32 14V26C32 26.55 31.8042 27.0208 31.4125 27.4125C31.0208 27.8042 30.55 28 30 28H16L12 32ZM15.15 26H30V14H14V27.125L15.15 26Z" fill="#774625"/>
</g>
</svg>
