<svg width="44" height="45" viewBox="0 0 44 45" fill="none" xmlns="http://www.w3.org/2000/svg">
<path d="M0 22.7324C0 13.3501 0 8.65897 2.47976 5.42728C3.11817 4.5953 3.86288 3.85059 4.69486 3.21218C7.92655 0.732422 12.6177 0.732422 22 0.732422C31.3823 0.732422 36.0735 0.732422 39.3051 3.21218C40.1371 3.85059 40.8818 4.5953 41.5202 5.42728C44 8.65897 44 13.3501 44 22.7324C44 32.1147 44 36.8059 41.5202 40.0376C40.8818 40.8695 40.1371 41.6143 39.3051 42.2527C36.0735 44.7324 31.3823 44.7324 22 44.7324C12.6177 44.7324 7.92655 44.7324 4.69486 42.2527C3.86288 41.6143 3.11817 40.8695 2.47976 40.0376C0 36.8059 0 32.1147 0 22.7324Z" fill="#FAF9F0"/>
<mask id="mask0_2062_776" style="mask-type:alpha" maskUnits="userSpaceOnUse" x="10" y="10" width="24" height="25">
<rect x="10" y="10.7324" width="24" height="24" fill="#D9D9D9"/>
</mask>
<g mask="url(#mask0_2062_776)">
<path d="M13 29.7324C12.45 29.7324 11.9792 29.5366 11.5875 29.1449C11.1958 28.7533 11 28.2824 11 27.7324V17.7324C11 17.1824 11.1958 16.7116 11.5875 16.3199C11.9792 15.9283 12.45 15.7324 13 15.7324H23C23.55 15.7324 24.0208 15.9283 24.4125 16.3199C24.8042 16.7116 25 17.1824 25 17.7324V27.7324C25 28.2824 24.8042 28.7533 24.4125 29.1449C24.0208 29.5366 23.55 29.7324 23 29.7324H13ZM13 27.7324H23V17.7324H13V27.7324ZM14 25.7324H22L19.4 22.2324L17.5 24.7324L16.1 22.8824L14 25.7324ZM27 29.7324V15.7324H29V29.7324H27ZM31 29.7324V15.7324H33V29.7324H31Z" fill="#AD907C"/>
</g>
</svg>
