<svg width="105" height="106" viewBox="0 0 105 106" fill="none" xmlns="http://www.w3.org/2000/svg">
<rect width="148" height="28" transform="translate(19.799 -19) rotate(45)" fill="#FDE4BA"/>
<path d="M39.2621 26.8284C39.0339 26.6002 38.842 26.3254 38.6865 26.0039C38.5413 25.6824 38.4505 25.3376 38.4142 24.9694C38.3883 24.6012 38.4376 24.2357 38.562 23.8727C38.6917 23.5045 38.9172 23.1597 39.2387 22.8382C39.5602 22.5167 39.9025 22.2937 40.2655 22.1693C40.6284 22.0448 40.9914 21.9981 41.3544 22.0293C41.7174 22.0604 42.057 22.1511 42.3733 22.3015C42.7 22.4519 42.9749 22.6385 43.1978 22.8615C43.3897 23.0534 43.5375 23.2478 43.6412 23.4449C43.7553 23.6419 43.833 23.8234 43.8745 23.9894C43.9212 24.1605 43.9445 24.2927 43.9445 24.386C43.9653 24.5416 43.9756 24.6868 43.9756 24.8216C43.9756 24.9564 43.9186 25.0757 43.8045 25.1794C43.7423 25.2313 43.6645 25.2728 43.5712 25.3039C43.483 25.3298 43.3845 25.3505 43.2756 25.3661C42.9023 25.4283 42.6482 25.3713 42.5133 25.195C42.4511 25.1016 42.4045 25.0031 42.3733 24.8994C42.3474 24.8009 42.3215 24.7024 42.2956 24.6038C42.28 24.5053 42.2515 24.4094 42.21 24.316C42.1685 24.2227 42.1037 24.132 42.0155 24.0438C41.8652 23.8934 41.6966 23.7923 41.51 23.7405C41.3233 23.6886 41.134 23.686 40.9422 23.7327C40.7555 23.7845 40.5844 23.8882 40.4288 24.0438C40.2784 24.1942 40.1773 24.3627 40.1254 24.5494C40.0788 24.7412 40.0762 24.9305 40.1177 25.1172C40.1695 25.3039 40.268 25.4698 40.4132 25.615C40.5014 25.7031 40.587 25.768 40.6699 25.8094C40.7581 25.8561 40.8384 25.8898 40.911 25.9106C40.9888 25.9261 41.0485 25.9391 41.0899 25.9495C41.1936 25.9702 41.2896 25.9935 41.3777 26.0195C41.4711 26.0402 41.5489 26.0817 41.6111 26.1439C41.6837 26.2165 41.7303 26.3202 41.7511 26.455C41.777 26.5847 41.777 26.7558 41.7511 26.9684C41.7252 27.1603 41.6707 27.308 41.5877 27.4118C41.51 27.5206 41.4011 27.5881 41.2611 27.614C41.1211 27.6399 40.9525 27.6321 40.7555 27.5907C40.6777 27.5855 40.5558 27.5569 40.3899 27.5051C40.2292 27.4584 40.0477 27.3806 39.8454 27.2717C39.6484 27.168 39.4539 27.0203 39.2621 26.8284ZM43.1036 30.7321C42.8599 30.4884 42.6628 30.198 42.5124 29.861C42.3724 29.5239 42.2921 29.1687 42.2713 28.7954C42.2506 28.422 42.305 28.0564 42.4347 27.6986C42.5695 27.3357 42.7873 27.0038 43.088 26.703C43.368 26.423 43.6792 26.2156 44.0214 26.0808C44.3688 25.9408 44.7292 25.8708 45.1026 25.8708C45.4759 25.8708 45.8337 25.9382 46.176 26.073C46.5286 26.2078 46.8423 26.4126 47.1171 26.6875C47.4905 27.0608 47.7368 27.4886 47.856 27.9709C47.9857 28.4531 47.9883 28.938 47.8638 29.4254C47.7394 29.9128 47.4905 30.3432 47.1171 30.7166C46.8008 31.0329 46.4586 31.2559 46.0904 31.3855C45.7326 31.5151 45.367 31.5696 44.9937 31.5488C44.6255 31.5333 44.2755 31.4529 43.9436 31.3077C43.6221 31.1625 43.3421 30.9707 43.1036 30.7321ZM44.2625 29.5421C44.387 29.6665 44.5451 29.7624 44.737 29.8299C44.9289 29.8973 45.1311 29.9128 45.3437 29.8765C45.5563 29.8402 45.7585 29.7261 45.9504 29.5343C46.1163 29.3683 46.2252 29.1869 46.2771 28.9898C46.3289 28.7928 46.3237 28.5957 46.2615 28.3987C46.2097 28.2016 46.1008 28.0201 45.9348 27.8542C45.7793 27.6986 45.603 27.5949 45.4059 27.5431C45.2141 27.4964 45.0144 27.499 44.807 27.5508C44.6099 27.6027 44.4311 27.709 44.2703 27.8698C44.0836 28.0564 43.967 28.2561 43.9203 28.4687C43.884 28.6813 43.8995 28.8835 43.967 29.0754C44.0395 29.262 44.1381 29.4176 44.2625 29.5421ZM46.2117 33.7158C46.025 33.5291 45.9187 33.3658 45.8928 33.2258C45.8669 33.0857 45.8902 32.9639 45.9628 32.8602C46.0354 32.7565 46.1235 32.6528 46.2272 32.5491L48.9496 29.8267C49.0533 29.723 49.1544 29.6374 49.253 29.57C49.3618 29.5026 49.4837 29.4845 49.6185 29.5156C49.7585 29.5415 49.9245 29.6504 50.1163 29.8422C50.3082 30.0341 50.4093 30.213 50.4197 30.3789C50.4352 30.5397 50.3575 30.7056 50.1863 30.8767L49.9997 30.8612C50.036 30.8456 50.1111 30.8327 50.2252 30.8223C50.3393 30.8119 50.4715 30.8145 50.6219 30.8301C50.7723 30.8456 50.9253 30.8845 51.0808 30.9468C51.2468 31.009 51.3945 31.1049 51.5242 31.2345C51.6953 31.4057 51.8223 31.5846 51.9053 31.7712C51.9986 31.9579 52.0505 32.155 52.0609 32.3624C52.0816 32.5698 52.0609 32.7876 51.9986 33.0157C52.175 32.9846 52.3642 32.9717 52.5665 32.9769C52.7687 32.982 52.9735 33.0209 53.1809 33.0935C53.3935 33.1713 53.588 33.2984 53.7643 33.4747C54.065 33.7754 54.2414 34.1073 54.2932 34.4703C54.3554 34.8332 54.2984 35.2118 54.1221 35.6059C53.9458 36 53.6554 36.3993 53.2509 36.8037L51.8586 38.196C51.7601 38.2945 51.6538 38.3801 51.5397 38.4527C51.436 38.5253 51.3142 38.5486 51.1742 38.5227C51.0393 38.4916 50.876 38.3801 50.6841 38.1882C50.4923 37.9964 50.3834 37.8304 50.3575 37.6904C50.3367 37.5556 50.36 37.4337 50.4275 37.3249C50.5052 37.216 50.5934 37.1123 50.6919 37.0137L52.0842 35.6214C52.245 35.4607 52.3616 35.3077 52.4342 35.1625C52.5068 35.0173 52.5327 34.8773 52.512 34.7425C52.5016 34.6077 52.4394 34.4832 52.3253 34.3691C52.2061 34.2499 52.0764 34.1773 51.9364 34.1514C51.8016 34.1202 51.6564 34.141 51.5008 34.2136C51.3505 34.281 51.1897 34.4003 51.0186 34.5714L49.6263 35.9637C49.5226 36.0674 49.4111 36.1529 49.2918 36.2204C49.1778 36.2826 49.0481 36.2981 48.9029 36.267C48.7681 36.2359 48.61 36.1244 48.4285 35.9326C48.247 35.7407 48.1459 35.5774 48.1251 35.4425C48.1044 35.3077 48.1303 35.1884 48.2029 35.0847C48.2807 34.9758 48.3662 34.8747 48.4596 34.7814L49.8519 33.3891C50.0126 33.2283 50.1293 33.0754 50.2019 32.9302C50.2797 32.7798 50.3108 32.6398 50.2952 32.5102C50.2797 32.3805 50.2123 32.2561 50.093 32.1368C49.9634 32.0072 49.8234 31.9346 49.673 31.919C49.5226 31.9035 49.3696 31.932 49.2141 32.0046C49.0689 32.0772 48.9263 32.1835 48.7863 32.3235L47.3862 33.7236C47.2825 33.8273 47.1762 33.9128 47.0673 33.9802C46.9636 34.0528 46.8417 34.0762 46.7017 34.0502C46.5669 34.0191 46.4035 33.9076 46.2117 33.7158ZM52.5099 40.014C52.3181 39.8222 52.2066 39.6588 52.1755 39.524C52.1547 39.3892 52.1781 39.2673 52.2455 39.1584C52.3233 39.0495 52.4114 38.9458 52.5099 38.8473L55.2245 36.1327C55.3282 36.029 55.4319 35.9409 55.5357 35.8683C55.6445 35.8009 55.7664 35.7827 55.9012 35.8138C56.0412 35.8397 56.2072 35.9486 56.399 36.1405C56.5857 36.3272 56.6894 36.4879 56.7102 36.6228C56.7361 36.7628 56.7127 36.8846 56.6402 36.9883C56.5727 37.0972 56.4846 37.2061 56.3757 37.315L53.6689 40.0218C53.5704 40.1203 53.4641 40.2059 53.35 40.2785C53.2463 40.3511 53.127 40.3718 52.9922 40.3407C52.8626 40.3148 52.7018 40.2059 52.5099 40.014ZM56.9591 35.5649C56.762 35.3679 56.6505 35.1993 56.6246 35.0593C56.5987 34.9193 56.622 34.7923 56.6946 34.6782C56.7724 34.5693 56.8631 34.463 56.9668 34.3593C57.0757 34.2504 57.1846 34.1623 57.2935 34.0948C57.4076 34.0222 57.532 34.0015 57.6669 34.0326C57.8069 34.0585 57.9754 34.17 58.1725 34.3671C58.3643 34.5589 58.4732 34.7249 58.4991 34.8649C58.5251 35.0049 58.4991 35.1293 58.4214 35.2382C58.3488 35.3523 58.2606 35.4612 58.1569 35.5649C58.0532 35.6686 57.9443 35.7568 57.8302 35.8294C57.7213 35.9072 57.5969 35.9331 57.4569 35.9072C57.322 35.876 57.1561 35.762 56.9591 35.5649ZM54.3626 41.8511C54.1707 41.6593 54.0593 41.4959 54.0281 41.3611C54.0074 41.2263 54.0307 41.1044 54.0981 40.9955C54.1759 40.8866 54.2641 40.7829 54.3626 40.6844L57.1005 37.9465C57.199 37.848 57.3002 37.7676 57.4039 37.7054C57.5128 37.638 57.632 37.6172 57.7617 37.6432C57.8965 37.6743 58.0598 37.7858 58.2517 37.9776C58.4176 38.1435 58.5161 38.2887 58.5473 38.4132C58.5836 38.5325 58.581 38.6336 58.5395 38.7165C58.5032 38.8047 58.4565 38.8773 58.3995 38.9343C58.3476 38.9862 58.3165 39.0277 58.3061 39.0588L58.1117 39.1599C58.1998 39.0925 58.3165 39.0536 58.4617 39.0432C58.6173 39.0329 58.778 39.0484 58.9439 39.0899C59.1203 39.1314 59.2862 39.1936 59.4418 39.2766C59.6025 39.3647 59.7425 39.4684 59.8618 39.5877C60.1107 39.8366 60.2844 40.1036 60.3829 40.3888C60.4918 40.674 60.5281 40.9696 60.4918 41.2756C60.4555 41.5815 60.3544 41.8848 60.1885 42.1856C60.0329 42.4864 59.8177 42.7742 59.5429 43.049L58.1272 44.4646C58.0287 44.5631 57.9224 44.6487 57.8083 44.7213C57.7046 44.7939 57.5854 44.8146 57.4505 44.7835C57.3209 44.7576 57.1602 44.6487 56.9683 44.4568C56.7712 44.2598 56.6572 44.0939 56.6261 43.959C56.6053 43.8242 56.6286 43.7023 56.6961 43.5935C56.7687 43.4794 56.8542 43.3731 56.9527 43.2745L58.3606 41.8667C58.5161 41.7111 58.6225 41.553 58.6795 41.3922C58.7365 41.2315 58.7417 41.0707 58.695 40.91C58.6536 40.744 58.5576 40.5859 58.4073 40.4355C58.2569 40.2851 58.0961 40.1866 57.925 40.1399C57.7539 40.0933 57.5828 40.0933 57.4116 40.1399C57.2457 40.1918 57.0876 40.2929 56.9372 40.4433L55.5216 41.8589C55.423 41.9574 55.3167 42.043 55.2026 42.1156C55.0989 42.1882 54.9797 42.2089 54.8449 42.1778C54.7152 42.1519 54.5545 42.043 54.3626 41.8511ZM58.3021 49.0108C58.1206 48.8293 57.9624 48.6245 57.8276 48.3963C57.6928 48.1681 57.5891 47.94 57.5165 47.7118C57.4439 47.4837 57.4076 47.2814 57.4076 47.1051C57.4076 46.9288 57.4517 46.7966 57.5398 46.7084C57.6228 46.6255 57.7161 46.5632 57.8198 46.5218C57.9183 46.4855 58.0324 46.4647 58.1621 46.4595C58.3124 46.4543 58.4343 46.4569 58.5276 46.4673C58.621 46.4777 58.7039 46.5192 58.7765 46.5918C58.8491 46.6644 58.8958 46.7473 58.9165 46.8407C58.9321 46.9392 58.9477 47.0429 58.9632 47.1518C58.984 47.2659 59.0254 47.3903 59.0877 47.5251C59.1447 47.6651 59.2484 47.8103 59.3988 47.9607C59.5077 48.0696 59.6269 48.1474 59.7566 48.1941C59.881 48.2459 60.0159 48.2667 60.1611 48.2563C60.3011 48.2511 60.4411 48.2148 60.5811 48.1474C60.7159 48.0852 60.8455 47.9918 60.97 47.8674L64.1901 44.6472C64.3405 44.5279 64.4883 44.4839 64.6335 44.515C64.7891 44.5461 64.9602 44.655 65.1469 44.8417C65.3335 45.0283 65.4347 45.1865 65.4502 45.3161C65.4761 45.4458 65.4528 45.5624 65.3802 45.6662C65.3128 45.7751 65.2298 45.8788 65.1313 45.9773L62.0589 49.0497C61.7634 49.3452 61.447 49.5527 61.11 49.6719C60.7677 49.7964 60.4281 49.8456 60.091 49.8197C59.7488 49.799 59.4247 49.7186 59.1188 49.5786C58.8128 49.4386 58.5406 49.2493 58.3021 49.0108ZM59.8655 47.1673C59.6321 46.934 59.4584 46.6618 59.3443 46.3506C59.2406 46.0395 59.194 45.7128 59.2043 45.3706C59.2199 45.0335 59.2951 44.7043 59.4299 44.3828C59.5647 44.0613 59.7592 43.7735 60.0133 43.5194C60.2674 43.2653 60.5526 43.0734 60.8689 42.9438C61.1904 42.809 61.517 42.7364 61.8489 42.726C62.1912 42.7156 62.5152 42.7649 62.8212 42.8738C63.1375 42.9827 63.4123 43.1538 63.6457 43.3872C63.8738 43.6153 64.0216 43.8564 64.089 44.1105C64.1616 44.3594 64.1616 44.6187 64.089 44.8883C64.0268 45.158 63.9024 45.4328 63.7157 45.7128C63.5342 45.9877 63.3008 46.2677 63.0156 46.5529C62.6319 46.9366 62.256 47.2296 61.8878 47.4318C61.5248 47.6288 61.1722 47.7118 60.83 47.6807C60.4929 47.6444 60.1714 47.4733 59.8655 47.1673ZM61.1333 46.1795C61.2681 46.3143 61.4237 46.4025 61.6 46.444C61.7815 46.4803 61.9604 46.4725 62.1367 46.4206C62.3182 46.374 62.4815 46.278 62.6267 46.1328C62.7719 45.9877 62.8679 45.8243 62.9145 45.6428C62.9664 45.4665 62.969 45.2876 62.9223 45.1061C62.8808 44.9298 62.7901 44.7717 62.6501 44.6317C62.5101 44.4917 62.3519 44.4009 62.1756 44.3594C61.9993 44.3179 61.8178 44.3231 61.6311 44.375C61.4548 44.4268 61.2941 44.5254 61.1489 44.6705C61.0089 44.8106 60.9155 44.9713 60.8689 45.1528C60.8222 45.3343 60.817 45.5158 60.8533 45.6973C60.9 45.8788 60.9933 46.0395 61.1333 46.1795ZM65.66 53.2885C65.52 53.1485 65.3826 52.98 65.2477 52.7829C65.1181 52.5911 65.004 52.3888 64.9055 52.1762C64.8122 51.9585 64.7525 51.7588 64.7266 51.5773C64.7059 51.3906 64.7396 51.2377 64.8277 51.1184C64.8692 51.0562 64.9236 51.0017 64.9911 50.9551C65.0688 50.9084 65.157 50.8721 65.2555 50.8462C65.3592 50.8151 65.4733 50.7891 65.5978 50.7684C65.6963 50.7528 65.7792 50.7632 65.8467 50.7995C65.9141 50.8358 65.9711 50.898 66.0178 50.9862C66.0852 51.0847 66.1396 51.1962 66.1811 51.3206C66.233 51.4451 66.277 51.5721 66.3133 51.7018C66.36 51.8314 66.4119 51.961 66.4689 52.0907C66.5311 52.2151 66.6115 52.3266 66.71 52.4251C66.8552 52.5703 66.9875 52.6611 67.1067 52.6974C67.2364 52.7337 67.3401 52.7129 67.4178 52.6352C67.4749 52.5781 67.5034 52.5133 67.5034 52.4407C67.5086 52.3733 67.493 52.2955 67.4567 52.2074C67.4308 52.1192 67.3893 52.0259 67.3323 51.9273C67.2752 51.8288 67.2104 51.7225 67.1378 51.6084C67.0756 51.4944 67.0108 51.3777 66.9434 51.2584C66.85 51.0925 66.7723 50.9214 66.71 50.7451C66.6478 50.5688 66.6115 50.3873 66.6011 50.2006C66.596 50.0087 66.6297 49.8195 66.7023 49.6328C66.78 49.4409 66.9149 49.2491 67.1067 49.0572C67.3608 48.8031 67.633 48.6501 67.9234 48.5983C68.2138 48.5464 68.5172 48.5905 68.8335 48.7305C69.155 48.8653 69.4791 49.0961 69.8057 49.4228C69.8991 49.5161 69.9872 49.6146 70.0702 49.7183C70.1532 49.8221 70.2258 49.9309 70.288 50.045C70.3554 50.1643 70.415 50.2861 70.4669 50.4106C70.5187 50.535 70.5628 50.6673 70.5991 50.8073C70.6821 51.0354 70.6639 51.2143 70.5447 51.344C70.4254 51.4736 70.2543 51.5566 70.0313 51.5929C69.8861 51.624 69.7617 51.6292 69.658 51.6084C69.5594 51.5825 69.4842 51.5281 69.4324 51.4451C69.3702 51.3414 69.3131 51.2169 69.2613 51.0717C69.2146 50.9317 69.1576 50.7865 69.0902 50.6362C69.0279 50.491 68.945 50.3665 68.8413 50.2628C68.7531 50.1747 68.6649 50.1124 68.5768 50.0761C68.4938 50.0347 68.416 50.0191 68.3434 50.0295C68.276 50.0347 68.2164 50.0632 68.1645 50.115C68.0971 50.1824 68.0608 50.255 68.0557 50.3328C68.0608 50.4106 68.0842 50.4962 68.1257 50.5895C68.1671 50.6828 68.2216 50.784 68.289 50.8928C68.3564 51.0017 68.4316 51.1184 68.5146 51.2429C68.6286 51.4088 68.7349 51.5877 68.8335 51.7796C68.9424 51.9714 69.015 52.1685 69.0513 52.3707C69.0927 52.5781 69.0798 52.7881 69.0124 53.0007C68.9501 53.2185 68.805 53.4415 68.5768 53.6697C68.1671 54.0793 67.7108 54.2504 67.2078 54.183C66.7048 54.1156 66.1889 53.8174 65.66 53.2885ZM69.6891 57.3177C69.4454 57.074 69.2484 56.7836 69.098 56.4465C68.958 56.1095 68.8776 55.7543 68.8569 55.3809C68.8361 55.0076 68.8906 54.642 69.0202 54.2842C69.155 53.9212 69.3728 53.5893 69.6736 53.2886C69.9536 53.0086 70.2647 52.8012 70.607 52.6663C70.9544 52.5263 71.3148 52.4563 71.6881 52.4563C72.0615 52.4563 72.4193 52.5237 72.7615 52.6586C73.1141 52.7934 73.4278 52.9982 73.7027 53.273C74.076 53.6464 74.3223 54.0742 74.4416 54.5564C74.5712 55.0387 74.5738 55.5235 74.4494 56.0109C74.3249 56.4984 74.076 56.9288 73.7027 57.3021C73.3864 57.6184 73.0441 57.8414 72.676 57.971C72.3182 58.1007 71.9526 58.1551 71.5792 58.1344C71.2111 58.1188 70.861 58.0385 70.5292 57.8933C70.2077 57.7481 69.9277 57.5562 69.6891 57.3177ZM70.8481 56.1276C70.9725 56.2521 71.1307 56.348 71.3225 56.4154C71.5144 56.4828 71.7166 56.4984 71.9292 56.4621C72.1419 56.4258 72.3441 56.3117 72.5359 56.1198C72.7019 55.9539 72.8108 55.7724 72.8626 55.5754C72.9145 55.3783 72.9093 55.1813 72.8471 54.9842C72.7952 54.7872 72.6863 54.6057 72.5204 54.4398C72.3648 54.2842 72.1885 54.1805 71.9915 54.1286C71.7996 54.082 71.6 54.0846 71.3926 54.1364C71.1955 54.1883 71.0166 54.2946 70.8559 54.4553C70.6692 54.642 70.5525 54.8416 70.5058 55.0542C70.4695 55.2668 70.4851 55.4691 70.5525 55.6609C70.6251 55.8476 70.7236 56.0032 70.8481 56.1276ZM74.034 61.6625C73.7903 61.4188 73.5932 61.1284 73.4428 60.7914C73.3028 60.4543 73.2224 60.0991 73.2017 59.7258C73.181 59.3524 73.2354 58.9868 73.365 58.629C73.4999 58.266 73.7177 57.9342 74.0184 57.6334C74.2984 57.3534 74.6096 57.146 74.9518 57.0112C75.2992 56.8712 75.6596 56.8012 76.033 56.8012C76.4063 56.8012 76.7641 56.8686 77.1064 57.0034C77.459 57.1382 77.7727 57.343 78.0475 57.6179C78.4209 57.9912 78.6672 58.419 78.7864 58.9013C78.9161 59.3835 78.9187 59.8684 78.7942 60.3558C78.6698 60.8432 78.4209 61.2736 78.0475 61.647C77.7312 61.9633 77.389 62.1862 77.0208 62.3159C76.663 62.4455 76.2974 62.5 75.9241 62.4792C75.5559 62.4637 75.2059 62.3833 74.874 62.2381C74.5525 62.0929 74.2725 61.901 74.034 61.6625ZM75.1929 60.4725C75.3174 60.5969 75.4755 60.6928 75.6674 60.7603C75.8593 60.8277 76.0615 60.8432 76.2741 60.8069C76.4867 60.7706 76.6889 60.6565 76.8808 60.4647C77.0467 60.2987 77.1556 60.1173 77.2075 59.9202C77.2593 59.7232 77.2541 59.5261 77.1919 59.3291C77.1401 59.132 77.0312 58.9505 76.8652 58.7846C76.7097 58.629 76.5334 58.5253 76.3363 58.4735C76.1445 58.4268 75.9448 58.4294 75.7374 58.4812C75.5403 58.5331 75.3614 58.6394 75.2007 58.8002C75.014 58.9868 74.8973 59.1865 74.8507 59.3991C74.8144 59.6117 74.8299 59.8139 74.8973 60.0058C74.9699 60.1924 75.0685 60.348 75.1929 60.4725ZM77.1654 64.654C76.9736 64.4621 76.8621 64.2988 76.831 64.1639C76.8102 64.0291 76.8335 63.9073 76.901 63.7984C76.9787 63.6895 77.0669 63.5858 77.1654 63.4872L79.9033 60.7493C80.0019 60.6508 80.103 60.5704 80.2067 60.5082C80.3156 60.4408 80.4348 60.42 80.5645 60.446C80.6993 60.4771 80.8626 60.5886 81.0545 60.7804C81.2204 60.9464 81.319 61.0916 81.3501 61.216C81.3864 61.3353 81.3838 61.4364 81.3423 61.5194C81.306 61.6075 81.2593 61.6801 81.2023 61.7371C81.1504 61.789 81.1193 61.8305 81.109 61.8616L80.9145 61.9627C81.0026 61.8953 81.1193 61.8564 81.2645 61.846C81.4201 61.8357 81.5808 61.8512 81.7468 61.8927C81.9231 61.9342 82.089 61.9964 82.2446 62.0794C82.4053 62.1675 82.5453 62.2712 82.6646 62.3905C82.9135 62.6394 83.0872 62.9065 83.1857 63.1917C83.2946 63.4769 83.3309 63.7724 83.2946 64.0784C83.2583 64.3843 83.1572 64.6877 82.9913 64.9884C82.8357 65.2892 82.6205 65.577 82.3457 65.8518L80.9301 67.2674C80.8315 67.3659 80.7252 67.4515 80.6111 67.5241C80.5074 67.5967 80.3882 67.6174 80.2534 67.5863C80.1237 67.5604 79.963 67.4515 79.7711 67.2596C79.5741 67.0626 79.46 66.8967 79.4289 66.7618C79.4081 66.627 79.4315 66.5052 79.4989 66.3963C79.5715 66.2822 79.657 66.1759 79.7555 66.0774L81.1634 64.6695C81.319 64.5139 81.4253 64.3558 81.4823 64.195C81.5393 64.0343 81.5445 63.8735 81.4979 63.7128C81.4564 63.5469 81.3604 63.3887 81.2101 63.2383C81.0597 63.0879 80.8989 62.9894 80.7278 62.9428C80.5567 62.8961 80.3856 62.8961 80.2145 62.9428C80.0485 62.9946 79.8904 63.0957 79.74 63.2461L78.3244 64.6617C78.2258 64.7603 78.1195 64.8458 78.0055 64.9184C77.9018 64.991 77.7825 65.0118 77.6477 64.9806C77.518 64.9547 77.3573 64.8458 77.1654 64.654Z" fill="#774625"/>
</svg>
