<svg width="96" height="97" viewBox="0 0 96 97" fill="none" xmlns="http://www.w3.org/2000/svg">
<mask id="mask0_2060_652" style="mask-type:alpha" maskUnits="userSpaceOnUse" x="16" y="16" width="64" height="65">
<rect x="16" y="16.7324" width="64" height="64" fill="#D9D9D9"/>
</mask>
<g mask="url(#mask0_2060_652)">
<path d="M29.7333 48.7325L39.6 58.5991C40.3111 59.3102 40.6667 60.1436 40.6667 61.0991C40.6667 62.0547 40.3111 62.888 39.6 63.5991C38.8889 64.3102 38.0556 64.6658 37.1 64.6658C36.1444 64.6658 35.3111 64.3102 34.6 63.5991L22.1333 51.1325C21.7698 50.78 21.5122 50.3982 21.3607 49.9871C21.2091 49.576 21.1333 49.1356 21.1333 48.6658C21.1333 48.196 21.2091 47.7556 21.3607 47.3445C21.5122 46.9334 21.7698 46.5516 22.1333 46.1991L29.4 38.9325L20.0667 29.5991C19.3556 28.9 19 28.0696 19 27.1078C19 26.1465 19.3509 25.3102 20.0527 24.5991C20.7544 23.888 21.5878 23.5325 22.5527 23.5325C23.5176 23.5325 24.3556 23.888 25.0667 24.5991L72.1333 71.6658C72.8444 72.3689 73.2 73.1891 73.2 74.1265C73.2 75.0638 72.8491 75.888 72.1473 76.5991C71.4456 77.3102 70.6122 77.6658 69.6473 77.6658C68.6824 77.6658 67.8444 77.3102 67.1333 76.5991L34.4667 43.9991L29.7333 48.7325ZM64 55.9325C63.2889 55.2214 62.9333 54.3769 62.9333 53.3991C62.9333 52.4214 63.2889 51.5769 64 50.8658L66.4 48.4658L56.4667 38.5325C55.8 37.8658 55.4667 37.0547 55.4667 36.0991C55.4667 35.1436 55.8 34.3325 56.4667 33.6658C57.1333 32.9991 57.9444 32.6658 58.9 32.6658C59.8556 32.6658 60.6667 32.9991 61.3333 33.6658L73.8667 46.1991C74.2302 46.5516 74.4878 46.9334 74.6393 47.3445C74.7909 47.7556 74.8667 48.196 74.8667 48.6658C74.8667 49.1356 74.7909 49.576 74.6393 49.9871C74.4878 50.3982 74.2302 50.78 73.8667 51.1325L69.0667 55.9325C68.3556 56.6436 67.5111 56.9991 66.5333 56.9991C65.5556 56.9991 64.7111 56.6436 64 55.9325Z" fill="url(#paint0_linear_2060_652)"/>
</g>
<defs>
<linearGradient id="paint0_linear_2060_652" x1="19" y1="24" x2="75" y2="78" gradientUnits="userSpaceOnUse">
<stop stop-color="#FBBB52"/>
<stop offset="0.25" stop-color="#E88C4D"/>
<stop offset="0.495192" stop-color="#E27676"/>
<stop offset="0.75" stop-color="#64AFB5"/>
<stop offset="1" stop-color="#616F36"/>
</linearGradient>
</defs>
</svg>
