<svg width="44" height="45" viewBox="0 0 44 45" fill="none" xmlns="http://www.w3.org/2000/svg">
<path d="M0 22.7324C0 13.3501 0 8.65897 2.47976 5.42728C3.11817 4.5953 3.86288 3.85059 4.69486 3.21218C7.92655 0.732422 12.6177 0.732422 22 0.732422C31.3823 0.732422 36.0735 0.732422 39.3051 3.21218C40.1371 3.85059 40.8818 4.5953 41.5202 5.42728C44 8.65897 44 13.3501 44 22.7324C44 32.1147 44 36.8059 41.5202 40.0376C40.8818 40.8695 40.1371 41.6143 39.3051 42.2527C36.0735 44.7324 31.3823 44.7324 22 44.7324C12.6177 44.7324 7.92655 44.7324 4.69486 42.2527C3.86288 41.6143 3.11817 40.8695 2.47976 40.0376C0 36.8059 0 32.1147 0 22.7324Z" fill="#FDE4BA"/>
<path d="M22.025 32.7324L13.025 23.8324L18.025 17.7324H26.025L31.025 23.8324L22.025 32.7324ZM14.6 17.7324L12.475 15.6074L13.9 14.2074L16.025 16.3324L14.6 17.7324ZM21.025 15.7324V12.7324H23.025V15.7324H21.025ZM29.4 17.7324L27.975 16.3074L30.1 14.1824L31.525 15.6074L29.4 17.7324ZM22.025 29.9324L27.275 24.7324H16.775L22.025 29.9324ZM18.975 19.7324L16.5 22.7324H27.55L25.075 19.7324H18.975Z" fill="#774625"/>
</svg>
