<svg width="44" height="45" viewBox="0 0 44 45" fill="none" xmlns="http://www.w3.org/2000/svg">
<path d="M0 22.7324C0 13.3501 0 8.65897 2.47976 5.42728C3.11817 4.5953 3.86288 3.85059 4.69486 3.21218C7.92655 0.732422 12.6177 0.732422 22 0.732422C31.3823 0.732422 36.0735 0.732422 39.3051 3.21218C40.1371 3.85059 40.8818 4.5953 41.5202 5.42728C44 8.65897 44 13.3501 44 22.7324C44 32.1147 44 36.8059 41.5202 40.0376C40.8818 40.8695 40.1371 41.6143 39.3051 42.2527C36.0735 44.7324 31.3823 44.7324 22 44.7324C12.6177 44.7324 7.92655 44.7324 4.69486 42.2527C3.86288 41.6143 3.11817 40.8695 2.47976 40.0376C0 36.8059 0 32.1147 0 22.7324Z" fill="#D8ECEF"/>
<mask id="mask0_2060_598" style="mask-type:alpha" maskUnits="userSpaceOnUse" x="10" y="10" width="24" height="25">
<rect x="10" y="10.7324" width="24" height="24" fill="#D9D9D9"/>
</mask>
<g mask="url(#mask0_2060_598)">
<path d="M19.6 26.3324L21 24.9074L18.825 22.7324L21 20.5574L19.6 19.1324L16 22.7324L19.6 26.3324ZM24.4 26.3324L28 22.7324L24.4 19.1324L23 20.5574L25.175 22.7324L23 24.9074L24.4 26.3324ZM15 31.7324C14.45 31.7324 13.9792 31.5366 13.5875 31.1449C13.1958 30.7533 13 30.2824 13 29.7324V15.7324C13 15.1824 13.1958 14.7116 13.5875 14.3199C13.9792 13.9283 14.45 13.7324 15 13.7324H29C29.55 13.7324 30.0208 13.9283 30.4125 14.3199C30.8042 14.7116 31 15.1824 31 15.7324V29.7324C31 30.2824 30.8042 30.7533 30.4125 31.1449C30.0208 31.5366 29.55 31.7324 29 31.7324H15ZM15 29.7324H29V15.7324H15V29.7324Z" fill="#774625"/>
</g>
</svg>
