<svg width="44" height="45" viewBox="0 0 44 45" fill="none" xmlns="http://www.w3.org/2000/svg">
<path d="M0 22.7324C0 13.3501 0 8.65897 2.47976 5.42728C3.11817 4.5953 3.86288 3.85059 4.69486 3.21218C7.92655 0.732422 12.6177 0.732422 22 0.732422C31.3823 0.732422 36.0735 0.732422 39.3051 3.21218C40.1371 3.85059 40.8818 4.5953 41.5202 5.42728C44 8.65897 44 13.3501 44 22.7324C44 32.1147 44 36.8059 41.5202 40.0376C40.8818 40.8695 40.1371 41.6143 39.3051 42.2527C36.0735 44.7324 31.3823 44.7324 22 44.7324C12.6177 44.7324 7.92655 44.7324 4.69486 42.2527C3.86288 41.6143 3.11817 40.8695 2.47976 40.0376C0 36.8059 0 32.1147 0 22.7324Z" fill="#FAF9F0"/>
<mask id="mask0_2062_756" style="mask-type:alpha" maskUnits="userSpaceOnUse" x="10" y="10" width="24" height="25">
<rect x="10" y="10.7324" width="24" height="24" fill="#D9D9D9"/>
</mask>
<g mask="url(#mask0_2062_756)">
<path d="M16 32.7324C17.0333 32.7324 17.8792 32.474 18.5375 31.9574C19.1958 31.4407 19.7 30.6824 20.05 29.6824C20.3333 28.849 20.6042 28.2657 20.8625 27.9324C21.1208 27.599 21.7167 27.0657 22.65 26.3324C23.6833 25.499 24.5 24.5574 25.1 23.5074C25.7 22.4574 26 21.199 26 19.7324C26 17.749 25.3292 16.0865 23.9875 14.7449C22.6458 13.4032 20.9833 12.7324 19 12.7324C17.0167 12.7324 15.3542 13.4032 14.0125 14.7449C12.6708 16.0865 12 17.749 12 19.7324H14C14 18.3157 14.4792 17.1282 15.4375 16.1699C16.3958 15.2115 17.5833 14.7324 19 14.7324C20.4167 14.7324 21.6042 15.2115 22.5625 16.1699C23.5208 17.1282 24 18.3157 24 19.7324C24 20.8657 23.775 21.8324 23.325 22.6324C22.875 23.4324 22.2333 24.149 21.4 24.7824C20.5333 25.4157 19.8583 26.0324 19.375 26.6324C18.8917 27.2324 18.5333 27.8824 18.3 28.5824C18.0667 29.3157 17.7875 29.8574 17.4625 30.2074C17.1375 30.5574 16.65 30.7324 16 30.7324C15.45 30.7324 14.9792 30.5365 14.5875 30.1449C14.1958 29.7532 14 29.2824 14 28.7324H12C12 29.8324 12.3917 30.774 13.175 31.5574C13.9583 32.3407 14.9 32.7324 16 32.7324ZM19 22.2324C19.7 22.2324 20.2917 21.9865 20.775 21.4949C21.2583 21.0032 21.5 20.4157 21.5 19.7324C21.5 19.0324 21.2583 18.4407 20.775 17.9574C20.2917 17.474 19.7 17.2324 19 17.2324C18.3 17.2324 17.7083 17.474 17.225 17.9574C16.7417 18.4407 16.5 19.0324 16.5 19.7324C16.5 20.4157 16.7417 21.0032 17.225 21.4949C17.7083 21.9865 18.3 22.2324 19 22.2324ZM28.5 25.2574L27.025 23.7824C27.3417 23.1657 27.5833 22.5199 27.75 21.8449C27.9167 21.1699 28 20.4657 28 19.7324C28 18.999 27.9167 18.299 27.75 17.6324C27.5833 16.9657 27.3417 16.324 27.025 15.7074L28.5 14.2324C28.9833 15.049 29.3542 15.9199 29.6125 16.8449C29.8708 17.7699 30 18.7324 30 19.7324C30 20.749 29.8708 21.7199 29.6125 22.6449C29.3542 23.5699 28.9833 24.4407 28.5 25.2574ZM31.425 28.1574L29.95 26.7074C30.6 25.7074 31.1042 24.624 31.4625 23.4574C31.8208 22.2907 32 21.0657 32 19.7824C32 18.4824 31.8167 17.2449 31.45 16.0699C31.0833 14.8949 30.575 13.8074 29.925 12.8074L31.425 11.3074C32.2417 12.5074 32.875 13.8199 33.325 15.2449C33.775 16.6699 34 18.1657 34 19.7324C34 21.299 33.775 22.7949 33.325 24.2199C32.875 25.6449 32.2417 26.9574 31.425 28.1574Z" fill="#AD907C"/>
</g>
</svg>
