<svg width="44" height="45" viewBox="0 0 44 45" fill="none" xmlns="http://www.w3.org/2000/svg">
<path d="M0 22.7324C0 13.3501 0 8.65897 2.47976 5.42728C3.11817 4.5953 3.86288 3.85059 4.69486 3.21218C7.92655 0.732422 12.6177 0.732422 22 0.732422C31.3823 0.732422 36.0735 0.732422 39.3051 3.21218C40.1371 3.85059 40.8818 4.5953 41.5202 5.42728C44 8.65897 44 13.3501 44 22.7324C44 32.1147 44 36.8059 41.5202 40.0376C40.8818 40.8695 40.1371 41.6143 39.3051 42.2527C36.0735 44.7324 31.3823 44.7324 22 44.7324C12.6177 44.7324 7.92655 44.7324 4.69486 42.2527C3.86288 41.6143 3.11817 40.8695 2.47976 40.0376C0 36.8059 0 32.1147 0 22.7324Z" fill="#F6D1B8"/>
<path d="M11 27.5991V17.8658H13.1526L14.006 20.9324C14.0994 21.2524 14.1673 21.5324 14.2098 21.7724C14.2607 22.0124 14.2905 22.1813 14.2989 22.2791C14.3074 22.1813 14.3329 22.0124 14.3754 21.7724C14.4263 21.5324 14.4942 21.2524 14.5792 20.9324L15.4198 17.8658H17.5724V27.5991H15.8274V24.9324C15.8274 24.4435 15.8359 23.9324 15.8529 23.3991C15.8784 22.8569 15.9081 22.3191 15.942 21.7858C15.976 21.2524 16.0142 20.7546 16.0567 20.2924C16.0991 19.8213 16.1374 19.4124 16.1713 19.0658L15.1014 23.4658H13.4838L12.3629 19.0658C12.4053 19.3946 12.4478 19.7902 12.4903 20.2524C12.5327 20.7058 12.5709 21.1991 12.6049 21.7324C12.6473 22.2569 12.6813 22.7946 12.7068 23.3458C12.7323 23.8969 12.745 24.4258 12.745 24.9324V27.5991H11Z" fill="#774625"/>
<path d="M21.9745 27.7324C21.3546 27.7324 20.8112 27.6124 20.3442 27.3724C19.8771 27.1235 19.512 26.7813 19.2488 26.3458C18.994 25.9013 18.8666 25.3858 18.8666 24.7991V20.6658C18.8666 20.0702 18.994 19.5546 19.2488 19.1191C19.512 18.6835 19.8771 18.3458 20.3442 18.1058C20.8112 17.8569 21.3546 17.7324 21.9745 17.7324C22.6029 17.7324 23.1464 17.8569 23.6049 18.1058C24.0719 18.3458 24.4328 18.6835 24.6876 19.1191C24.9508 19.5546 25.0824 20.0702 25.0824 20.6658H23.1718C23.1718 20.2746 23.0657 19.9769 22.8534 19.7724C22.6496 19.568 22.3566 19.4658 21.9745 19.4658C21.5924 19.4658 21.2952 19.568 21.0829 19.7724C20.8791 19.9769 20.7772 20.2746 20.7772 20.6658V24.7991C20.7772 25.1813 20.8791 25.4791 21.0829 25.6924C21.2952 25.8969 21.5924 25.9991 21.9745 25.9991C22.3566 25.9991 22.6496 25.8969 22.8534 25.6924C23.0657 25.4791 23.1718 25.1813 23.1718 24.7991H25.0824C25.0824 25.3858 24.9508 25.9013 24.6876 26.3458C24.4328 26.7813 24.0719 27.1235 23.6049 27.3724C23.1464 27.6124 22.6029 27.7324 21.9745 27.7324Z" fill="#774625"/>
<path d="M26.5804 27.5991V17.8658H29.752C30.4058 17.8658 30.9748 17.9946 31.4588 18.2524C31.9513 18.5102 32.3292 18.8702 32.5924 19.3324C32.8641 19.7946 33 20.3369 33 20.9591C33 21.5724 32.8641 22.1146 32.5924 22.5858C32.3207 23.048 31.9428 23.408 31.4588 23.6658C30.9748 23.9235 30.4058 24.0524 29.752 24.0524H28.491V27.5991H26.5804ZM28.491 22.2524H29.752C30.1596 22.2524 30.4823 22.1369 30.72 21.9058C30.9663 21.6658 31.0894 21.3502 31.0894 20.9591C31.0894 20.568 30.9663 20.2569 30.72 20.0258C30.4823 19.7858 30.1596 19.6658 29.752 19.6658H28.491V22.2524Z" fill="#774625"/>
</svg>
