<svg width="44" height="45" viewBox="0 0 44 45" fill="none" xmlns="http://www.w3.org/2000/svg">
<path d="M0 22.7324C0 13.3501 0 8.65897 2.47976 5.42728C3.11817 4.5953 3.86288 3.85059 4.69486 3.21218C7.92655 0.732422 12.6177 0.732422 22 0.732422C31.3823 0.732422 36.0735 0.732422 39.3051 3.21218C40.1371 3.85059 40.8818 4.5953 41.5202 5.42728C44 8.65897 44 13.3501 44 22.7324C44 32.1147 44 36.8059 41.5202 40.0376C40.8818 40.8695 40.1371 41.6143 39.3051 42.2527C36.0735 44.7324 31.3823 44.7324 22 44.7324C12.6177 44.7324 7.92655 44.7324 4.69486 42.2527C3.86288 41.6143 3.11817 40.8695 2.47976 40.0376C0 36.8059 0 32.1147 0 22.7324Z" fill="#D8ECEF"/>
<mask id="mask0_2060_526" style="mask-type:alpha" maskUnits="userSpaceOnUse" x="10" y="10" width="24" height="25">
<rect x="10" y="10.7324" width="24" height="24" fill="#D9D9D9"/>
</mask>
<g mask="url(#mask0_2060_526)">
<path d="M28.9 31.7325L23.425 26.2575L25.525 24.1575L31 29.6325L28.9 31.7325ZM15.1 31.7325L13 29.6325L19.9 22.7325L18.2 21.0325L17.5 21.7325L16.225 20.4575V22.5075L15.525 23.2075L12.5 20.1825L13.2 19.4825H15.25L14 18.2325L17.55 14.6825C17.8833 14.3492 18.2417 14.1075 18.625 13.9575C19.0083 13.8075 19.4 13.7325 19.8 13.7325C20.2 13.7325 20.5917 13.8075 20.975 13.9575C21.3583 14.1075 21.7167 14.3492 22.05 14.6825L19.75 16.9825L21 18.2325L20.3 18.9325L22 20.6325L24.25 18.3825C24.1833 18.1992 24.1292 18.0075 24.0875 17.8075C24.0458 17.6075 24.025 17.4075 24.025 17.2075C24.025 16.2242 24.3625 15.395 25.0375 14.72C25.7125 14.045 26.5417 13.7075 27.525 13.7075C27.775 13.7075 28.0125 13.7325 28.2375 13.7825C28.4625 13.8325 28.6917 13.9075 28.925 14.0075L26.45 16.4825L28.25 18.2825L30.725 15.8075C30.8417 16.0409 30.9208 16.27 30.9625 16.495C31.0042 16.72 31.025 16.9575 31.025 17.2075C31.025 18.1909 30.6875 19.02 30.0125 19.695C29.3375 20.37 28.5083 20.7075 27.525 20.7075C27.325 20.7075 27.125 20.6909 26.925 20.6575C26.725 20.6242 26.5333 20.5659 26.35 20.4825L15.1 31.7325Z" fill="#774625"/>
</g>
</svg>
