<svg width="44" height="45" viewBox="0 0 44 45" fill="none" xmlns="http://www.w3.org/2000/svg">
<path d="M0 22.7324C0 13.3501 0 8.65897 2.47976 5.42728C3.11817 4.5953 3.86288 3.85059 4.69486 3.21218C7.92655 0.732422 12.6177 0.732422 22 0.732422C31.3823 0.732422 36.0735 0.732422 39.3051 3.21218C40.1371 3.85059 40.8818 4.5953 41.5202 5.42728C44 8.65897 44 13.3501 44 22.7324C44 32.1147 44 36.8059 41.5202 40.0376C40.8818 40.8695 40.1371 41.6143 39.3051 42.2527C36.0735 44.7324 31.3823 44.7324 22 44.7324C12.6177 44.7324 7.92655 44.7324 4.69486 42.2527C3.86288 41.6143 3.11817 40.8695 2.47976 40.0376C0 36.8059 0 32.1147 0 22.7324Z" fill="#D8ECEF"/>
<mask id="mask0_2060_580" style="mask-type:alpha" maskUnits="userSpaceOnUse" x="10" y="10" width="24" height="25">
<rect x="10" y="10.7324" width="24" height="24" fill="#D9D9D9"/>
</mask>
<g mask="url(#mask0_2060_580)">
<path d="M22.225 23.2324L24.5 21.8574L26.775 23.2324L26.175 20.6324L28.175 18.9074L25.55 18.6824L24.5 16.2324L23.45 18.6824L20.825 18.9074L22.825 20.6324L22.225 23.2324ZM22.7 29.7324H28.3C28.1833 30.1658 27.9833 30.5158 27.7 30.7824C27.4167 31.0491 27.05 31.2158 26.6 31.2824L15.7 32.6074C15.15 32.6908 14.6542 32.5616 14.2125 32.2199C13.7708 31.8783 13.5167 31.4324 13.45 30.8824L12.125 19.9574C12.0583 19.4074 12.1917 18.9158 12.525 18.4824C12.8583 18.0491 13.3 17.7991 13.85 17.7324L15 17.5824V19.5824L14.1 19.7074L15.45 30.6324L22.7 29.7324ZM19 27.7324C18.45 27.7324 17.9792 27.5366 17.5875 27.1449C17.1958 26.7533 17 26.2824 17 25.7324V14.7324C17 14.1824 17.1958 13.7116 17.5875 13.3199C17.9792 12.9283 18.45 12.7324 19 12.7324H30C30.55 12.7324 31.0208 12.9283 31.4125 13.3199C31.8042 13.7116 32 14.1824 32 14.7324V25.7324C32 26.2824 31.8042 26.7533 31.4125 27.1449C31.0208 27.5366 30.55 27.7324 30 27.7324H19ZM19 25.7324H30V14.7324H19V25.7324Z" fill="#774625"/>
</g>
</svg>
