<svg width="772" height="930" viewBox="0 0 772 930" fill="none" xmlns="http://www.w3.org/2000/svg">
<path d="M633.863 855.528C633.863 858.137 637.849 859.949 645.821 860.963C649.734 861.398 653.648 861.615 657.562 861.615C661.475 861.615 665.461 861.326 669.52 860.746C677.243 859.763 681.225 858.1 681.466 855.757L681.478 855.528V802.478L726.7 711.597C727.108 710.782 724.776 710.094 719.706 709.533L718.655 709.423C713.003 708.843 708.074 708.553 703.871 708.553C687.202 708.553 677.926 711.09 676.042 716.163L657.779 760.516L641.907 716.163C640.168 710.945 630.384 708.336 612.556 708.336C608.063 708.336 602.555 708.771 596.032 709.64C589.51 710.365 586.539 711.162 587.118 712.031L633.863 803.782V855.528ZM202.679 708.988C197.316 708.988 194.635 711.524 194.635 716.597V858.354C194.635 860.46 201.164 861.547 214.222 861.613L215.507 861.615C229.277 861.615 236.161 860.456 236.161 858.137V808.783H242.902L263.338 856.398C266.092 860.456 270.296 862.485 275.949 862.485C281.602 862.485 288.777 859.369 297.473 853.136C303.851 848.643 307.62 844.657 308.779 841.178L281.384 795.521C287.761 791.172 292.69 785.374 296.168 778.127C299.647 770.735 301.387 762.545 301.387 753.559C301.387 723.845 282.326 708.988 244.206 708.988H202.679ZM383.536 709.205C363.679 709.205 353.75 709.785 353.75 710.945L315.267 858.137C315.267 858.572 316.934 859.224 320.268 860.093C323.601 860.818 328.747 861.181 335.704 861.181C348.749 861.181 355.706 858.934 356.576 854.441L362.881 827.481H397.451L404.626 855.528C405.64 859.586 412.453 861.615 425.063 861.615C428.977 861.615 434.267 861.326 440.934 860.746C447.602 860.166 450.936 859.369 450.936 858.354L413.322 710.945C413.322 709.785 403.394 709.205 383.536 709.205ZM561.651 708.77C544.548 708.77 535.562 710.872 534.692 715.075L517.081 810.74L498.384 715.075C497.659 710.872 489.252 708.77 473.163 708.77C469.105 708.77 463.886 709.133 457.509 709.858C451.277 710.437 448.16 711.09 448.16 711.814L486.208 856.615C486.787 858.644 492.078 860.094 502.079 860.963C512.225 861.688 523.459 861.398 535.779 860.093C543.751 859.369 548.027 857.847 548.607 855.528L587.089 711.597C587.089 710.872 583.901 710.22 577.523 709.64C571.146 709.061 565.855 708.77 561.651 708.77ZM14.4845 782.91C14.4845 752.408 23.2685 723.814 43.818 700.902C65.5769 676.642 94.9663 666.265 126.563 666.265C139.206 666.265 151.588 667.51 163.405 670.42C167.442 671.353 172.315 672.677 177.447 674.707C186.789 669.341 196.303 668.222 202.679 668.222H244.206C267.44 668.222 292.371 672.559 312.153 687.978C313.995 689.415 315.739 690.907 317.391 692.446C320.377 686.602 324.263 682.472 327.006 680.069C331.931 675.755 336.73 673.644 338.791 672.802C343.213 670.994 347.123 670.284 348.578 670.029C352.205 669.393 355.969 669.11 358.82 668.943C365.014 668.581 373.43 668.439 383.536 668.439C393.642 668.439 402.058 668.581 408.252 668.943C411.104 669.11 414.868 669.393 418.495 670.029C419.95 670.284 423.859 670.994 428.281 672.802C429.046 673.114 430.188 673.602 431.573 674.312C431.83 674.193 432.062 674.087 432.268 673.996C436.619 672.073 440.537 671.217 442.146 670.88C445.901 670.094 449.946 669.626 453.356 669.303C460.334 668.52 467.081 668.004 473.163 668.004C482.217 668.004 492.319 668.522 501.422 670.798C505.264 671.758 510.859 673.489 516.647 676.909C522.761 673.347 528.731 671.604 532.8 670.652C541.899 668.524 552.143 668.004 561.651 668.004C567.546 668.004 574.172 668.402 581.214 669.042C583.042 669.208 585.048 669.414 587.095 669.681C588.525 669.476 589.871 669.313 591.073 669.176C598.494 668.199 605.774 667.57 612.556 667.57C622.766 667.57 633.803 668.245 643.769 670.903C646.952 671.752 652.8 673.528 659.046 677.168C664.888 673.785 670.369 672.033 673.66 671.133C683.45 668.456 694.143 667.787 703.871 667.787C709.849 667.787 716.225 668.194 722.815 668.869L722.814 668.87C726.073 669.198 730.94 669.774 735.651 671.047C737.228 671.474 743.581 673.147 750.035 677.727C753.38 680.101 760.254 685.691 764.395 695.715C769.328 707.658 768.028 720.096 763.162 729.828L763.161 729.827L722.243 812.06V855.528C722.243 882.96 699.573 893.957 694.792 896.044C687.544 899.206 680.09 900.484 674.935 901.15C669.172 901.958 663.375 902.381 657.562 902.381C652.135 902.381 646.718 902.08 641.319 901.48L640.996 901.444L640.674 901.403C635.419 900.735 627.593 899.414 619.983 895.955C614.099 893.281 593.097 881.913 593.097 855.528V846.952L587.989 866.057L587.986 866.057C582.103 888.245 562.604 895.402 558.635 896.814C551.82 899.24 544.891 900.19 539.689 900.671C525.611 902.143 512.053 902.546 499.175 901.626L498.861 901.603L498.548 901.576C492.756 901.072 486.046 900.242 479.839 898.541C477.474 897.893 473.881 896.777 469.916 894.816C469.864 894.844 469.817 894.871 469.777 894.893C464.647 897.681 459.915 898.884 457.917 899.361C453.23 900.482 448.296 901.026 444.466 901.359C437.321 901.98 430.693 902.381 425.063 902.381C417.361 902.381 407.882 901.851 398.858 899.163C394.957 898.001 387.31 895.233 380.118 889.314C373.813 894.298 367.263 896.988 363.233 898.289C353.714 901.363 343.698 901.947 335.704 901.947C328.186 901.947 319.413 901.626 311.608 899.93L310.789 899.751L309.978 899.54C308.086 899.046 305.335 898.288 302.503 897.235C294.68 900.711 285.705 903.251 275.949 903.251C267.373 903.251 258.483 901.452 250.292 897.411C245.067 899.607 240.342 900.512 237.768 900.946C230.859 902.109 222.925 902.381 215.507 902.381C208.058 902.381 200.266 902.125 193.559 901.077C190.616 900.618 184.775 899.571 178.637 896.693C178.537 896.647 178.425 896.592 178.3 896.532C173.213 898.22 168.394 899.39 164.598 900.261L164.355 900.317L164.111 900.37C151.937 903.008 138.945 904.121 125.476 904.121C94.7445 904.121 66.5609 893.72 44.9982 870.946C22.4597 847.141 14.4845 815.463 14.4845 782.91ZM381.362 754.863L391.146 799.869H368.317L380.058 754.863H381.362ZM240.727 747.471C246.814 747.471 251.163 748.775 253.772 751.384C256.526 753.848 257.903 757.69 257.903 762.908C257.903 774.358 251.018 780.083 237.248 780.083H236.161V747.471H240.727ZM55.2502 782.91C55.2502 809.29 61.7004 829.293 74.6004 842.918C87.2989 856.33 103.93 863.141 124.493 863.35L125.476 863.355C136.782 863.355 146.783 862.413 155.479 860.529C164.321 858.5 170.191 856.47 173.09 854.441L173.96 786.389C173.96 784.215 171.206 782.693 165.698 781.823L157.219 781.171C154.465 781.171 150.986 781.533 146.783 782.258C142.58 782.838 140.477 784.142 140.477 786.171L140.043 815.74C140.043 819.509 136.274 821.393 128.737 821.393L128.047 821.384C120.934 821.196 114.569 818.082 108.953 812.045C103.3 805.667 100.473 796.39 100.473 784.215C100.473 772.039 103.227 763.052 108.734 757.255C114.387 751.457 121.707 748.558 130.694 748.558C134.462 748.558 138.376 749.21 142.435 750.515C146.493 751.674 149.174 752.834 150.479 753.993C151.928 755.008 153.233 755.515 154.393 755.515C155.697 755.515 157.726 754.066 160.48 751.167C163.234 748.268 165.698 743.92 167.872 738.122C170.047 732.18 171.134 727.614 171.134 724.425C171.134 721.236 171.061 719.061 170.916 717.902C167.872 714.568 162.219 711.959 153.957 710.075C145.84 708.046 136.709 707.031 126.563 707.031C104.241 707.031 86.776 714.061 74.1658 728.121L73.5786 728.783C61.3595 742.752 55.2502 760.795 55.2502 782.91Z" fill="#3D3C3A"/>
<path d="M328.186 46.0605C346.437 33.9231 370.474 24.0832 405.771 24.6524C440.534 25.2131 462.621 34.5752 480.804 48.8365C486.642 53.415 495.734 61.8227 497.833 63.6244C501.761 66.9968 505.051 69.3798 509.122 71.4157C518.462 76.0855 526.33 76.8319 544.307 79.9028C561.263 82.7991 584.685 87.8325 607.099 107.143C628.965 125.981 638.484 147.868 643.747 166.715C646.191 175.466 647.903 184.334 649.205 190.674C650.646 197.687 651.751 202.515 653.136 206.669C654.107 209.583 658.144 215.08 671.623 229.113C677.067 234.781 684.232 242.155 690.452 249.873C696.636 257.546 703.935 267.984 708.274 280.785C716.516 305.099 711.594 325.178 709.124 336.186C706.74 346.808 705.871 351.417 707.209 358.677C708.888 367.794 713.743 377.05 722.395 394.539C729.039 407.971 741.237 432.141 739.187 458.789C737.282 483.559 725.035 503.822 717.184 516.244C707.155 532.111 703.044 537.626 701.052 543.498C698.123 552.129 698.77 555.455 695.128 574.061C691.958 590.255 686.351 609.008 672.37 630.407C652.942 660.143 624.329 668.834 604.007 672.686C595.721 674.257 583.122 675.873 578.178 676.666C570.961 677.824 566.8 678.917 564.013 680.088C558.567 682.377 556.974 683.523 556.744 683.687C555.546 684.539 556.483 683.933 551.241 688.492C541.151 697.266 528.314 705.817 499.71 718.443C461.803 735.177 431.466 730.969 406.59 722.817C400.994 720.983 395.712 718.971 391.258 717.257C386.535 715.44 382.838 713.998 379.079 712.682C371.83 710.146 366.646 708.942 361.825 708.693C353.207 708.249 348.75 708.574 346.364 708.889C344.178 709.177 342.767 709.546 338.696 710.732C327.139 714.097 314.022 717.494 285.85 717.242C269.508 717.096 255.016 714.285 241.948 708.623C228.901 702.971 219.38 695.377 212.199 688.643C208.762 685.419 205.646 682.177 203.253 679.687C200.65 676.978 198.801 675.052 196.901 673.229C193.42 669.889 190.887 668.022 188.154 666.656C185.598 665.378 182.262 664.343 176.642 663.418C173.728 662.938 170.716 662.561 166.775 662.071C163.121 661.617 158.49 661.044 153.781 660.242C144.251 658.619 131.864 655.686 119.384 648.495C106.411 641.018 95.5492 630.243 86.958 615.982C71.0879 589.637 69.2678 567.483 70.2958 549.374C71.4016 529.894 72.122 531.748 71.2479 529.08C70.9932 528.302 70.2889 526.644 67.6932 522.92C66.3617 521.01 64.8738 519.024 62.8189 516.291C60.9076 513.75 58.4881 510.536 56.0786 507.086C45.4962 491.936 34.309 471.075 33.9789 440.389C33.6384 408.73 45.6209 388.294 54.6512 374.359C63.5061 360.696 65.046 358.36 65.662 352.953C66.5782 344.912 65.1462 343.813 61.3965 326.595C57.2759 307.674 56.4239 286.21 68.4222 256.812C74.1423 242.796 81.1048 231.36 89.6261 221.869C98.1555 212.369 106.919 206.324 113.873 202.026C128.088 193.239 129.933 193.121 134.41 187C140.371 178.85 141.287 172.702 148.867 152.158C155.962 132.928 166.935 110.064 192.74 88.7573C221.121 65.3235 252.236 61.122 274.838 60.6419C285.121 60.4235 296.668 61.0366 302.137 61.1595C305.017 61.2242 306.879 61.185 307.976 61.1437C308.52 60.764 309.268 60.2241 310.249 59.4742C312.984 57.3827 320.727 51.0206 328.186 46.0605ZM405.114 65.4134C352.458 64.5641 340.993 93.5712 320.61 100.228L320.127 100.379C299.524 106.624 254.93 90.2751 218.696 120.193L217.847 120.9C182.268 150.85 187.959 182.842 167.314 211.067L166.826 211.727C146.142 239.378 123.019 230.922 106.166 272.216L105.774 273.185C89.5032 313.995 109.958 324.286 106.166 357.568L106.071 358.349C101.907 391.259 74.3208 400.771 74.7421 439.951C75.1667 479.439 101.919 491.761 109.987 516.387C118.056 541.013 100.645 559.701 121.877 594.946C143.11 630.192 175.807 614.908 206.381 630.192C236.955 645.475 239.079 676.057 286.214 676.478C333.349 676.899 322.733 665.859 363.924 667.982C404.792 670.089 430.193 703.86 482.019 681.683L483.248 681.149C535.081 658.268 519.432 654.922 546.878 643.077L548.218 642.506C577.29 630.288 616.812 639.808 637.752 608.849L638.243 608.11C658.725 576.76 654.519 554.873 662.078 531.514L662.447 530.4C670.452 506.806 696.015 483.629 698.488 456.309L698.542 455.662C700.648 428.276 673.493 398.799 667.262 366.818L667.118 366.062C661.22 334.041 677.895 319.16 669.86 294.458L669.666 293.873C661.24 269.014 623.969 246.664 614.677 220.186L614.463 219.56C605.615 193.016 608.053 162.292 581.132 138.587L580.491 138.028C553.105 114.433 523.629 123.864 491.647 108.251L490.892 107.878C458.871 91.8674 457.785 66.6598 406.338 65.4375L405.114 65.4134Z" fill="#3D3C3A"/>
<path d="M121.877 594.947C143.109 630.192 175.807 614.909 206.381 630.192C236.955 645.476 239.078 676.058 286.214 676.479C333.349 676.899 322.733 665.859 363.923 667.982C405.114 670.105 430.592 704.394 483.248 681.15C535.904 657.905 518.918 654.822 548.218 642.507C577.519 630.192 617.435 639.959 638.242 608.111C659.05 576.262 654.379 554.181 662.447 530.401C670.515 506.62 696.418 483.265 698.542 455.663C700.665 428.061 673.063 398.336 667.118 366.063C661.173 333.79 678.159 318.927 669.666 293.873C661.173 268.819 623.38 246.313 614.462 219.56C605.545 192.807 608.093 161.808 580.491 138.028C552.889 114.248 523.164 124.015 490.891 107.878C458.619 91.7418 457.769 66.2631 405.114 65.4138C352.458 64.5645 340.993 93.5712 320.61 100.228C300.227 106.884 255.215 90.0395 218.696 120.193C182.176 150.347 188.121 182.62 167.314 211.067C146.506 239.515 123.151 230.597 106.165 272.216C89.1797 313.835 109.987 324.025 106.165 357.568C102.344 391.111 74.3172 400.463 74.7418 439.951C75.1665 479.439 101.919 491.761 109.987 516.387C118.055 541.013 100.645 559.701 121.877 594.947Z" fill="#E5CEA8"/>
<path d="M137.584 583.038C158.816 618.284 191.514 595.357 222.088 610.64C252.662 625.924 243.745 651.41 290.88 651.831C338.015 652.252 323.578 635.27 364.768 637.393C405.958 639.516 425.067 675.075 477.723 651.831C530.378 628.586 519.762 617.435 549.063 605.12C578.363 592.805 605.54 608.942 626.348 577.093C647.155 545.245 631.019 540.574 639.087 516.794C647.155 493.013 674.332 481.123 676.455 453.521C678.579 425.919 667.963 404.263 662.018 371.989C656.073 339.716 678.159 318.927 669.666 293.873C661.173 268.819 623.38 246.313 614.462 219.56C605.545 192.807 608.093 161.808 580.491 138.028C552.889 114.248 523.164 124.015 490.891 107.878C458.619 91.7418 457.769 66.2631 405.114 65.4138C352.458 64.5645 340.993 93.5712 320.61 100.228C300.227 106.884 255.215 90.0395 218.696 120.193C182.176 150.347 188.121 182.62 167.314 211.067C146.506 239.515 123.151 230.597 106.165 272.216C89.1797 313.835 109.987 324.025 106.165 357.568C102.344 391.111 74.3172 400.463 74.7418 439.951C75.1665 479.439 107.434 492.168 115.503 516.794C123.571 541.419 116.352 547.793 137.584 583.038Z" fill="#FDE4BA"/>
<path d="M451.395 348.209C463.825 348.209 473.901 338.133 473.901 325.703C473.901 313.273 463.825 303.197 451.395 303.197C438.965 303.197 428.889 313.273 428.889 325.703C428.889 338.133 438.965 348.209 451.395 348.209Z" fill="#3E3D3B"/>
<path d="M321.879 344.812C334.074 344.812 343.96 334.736 343.96 322.306C343.96 309.876 334.074 299.8 321.879 299.8C309.684 299.8 299.798 309.876 299.798 322.306C299.798 334.736 309.684 344.812 321.879 344.812Z" fill="#3E3D3B"/>
<path d="M391.037 428.892C361.655 428.892 339.165 408.508 338.163 407.578C332.587 402.436 332.274 393.762 337.474 388.185C342.674 382.671 351.444 382.361 357.02 387.442C357.333 387.752 374.435 402.869 393.918 401.32C404.944 400.453 415.281 394.009 424.553 382.299C429.314 376.351 438.022 375.36 443.973 380.007C449.987 384.654 451.052 393.266 446.291 399.276C431.945 417.368 414.968 427.219 395.861 428.706C394.232 428.83 392.666 428.892 391.037 428.892Z" fill="#3E3D3B"/>
<path d="M238.224 435.686C258.628 435.686 275.168 419.146 275.168 398.742C275.168 378.338 258.628 361.798 238.224 361.798C217.821 361.798 201.281 378.338 201.281 398.742C201.281 419.146 217.821 435.686 238.224 435.686Z" fill="#AD907C"/>
<path d="M540.57 435.686C560.973 435.686 577.514 419.146 577.514 398.742C577.514 378.338 560.973 361.798 540.57 361.798C520.166 361.798 503.626 378.338 503.626 398.742C503.626 419.146 520.166 435.686 540.57 435.686Z" fill="#AD907C"/>
<ellipse cx="276.018" cy="523.163" rx="10.1914" ry="10.1915" fill="#5E5C5A"/>
<ellipse cx="177.501" cy="579.217" rx="8.49285" ry="8.49291" fill="#5E5C5A"/>
<ellipse cx="204.678" cy="521.465" rx="3.39714" ry="3.39716" fill="#5E5C5A"/>
<ellipse cx="161.364" cy="471.357" rx="7.64356" ry="7.64362" fill="#5E5C5A"/>
<ellipse cx="169.008" cy="364.346" rx="2.54785" ry="2.54787" fill="#5E5C5A"/>
<ellipse cx="140.132" cy="306.594" rx="7.64356" ry="7.64362" fill="#5E5C5A"/>
<ellipse cx="191.938" cy="266.677" rx="9.34213" ry="9.3422" fill="#5E5C5A"/>
<ellipse cx="296.4" cy="186.844" rx="9.34213" ry="9.3422" fill="#5E5C5A"/>
<ellipse cx="243.745" cy="170.707" rx="5.94499" ry="5.94504" fill="#5E5C5A"/>
<ellipse cx="366.891" cy="158.818" rx="5.94499" ry="5.94504" fill="#5E5C5A"/>
<ellipse cx="400.862" cy="103.613" rx="5.94499" ry="5.94504" fill="#5E5C5A"/>
<ellipse cx="464.559" cy="145.229" rx="9.34213" ry="9.3422" fill="#5E5C5A"/>
<ellipse cx="522.31" cy="223.364" rx="9.34213" ry="9.3422" fill="#5E5C5A"/>
<ellipse cx="467.107" cy="228.459" rx="2.54785" ry="2.54787" fill="#5E5C5A"/>
<ellipse cx="557.131" cy="197.036" rx="4.24642" ry="4.24645" fill="#5E5C5A"/>
<ellipse cx="608.937" cy="298.101" rx="5.94499" ry="5.94504" fill="#5E5C5A"/>
<ellipse cx="625.074" cy="404.262" rx="8.49285" ry="8.49291" fill="#5E5C5A"/>
<ellipse cx="654.799" cy="452.672" rx="5.09571" ry="5.09574" fill="#5E5C5A"/>
<ellipse cx="589.404" cy="507.876" rx="7.64356" ry="7.64362" fill="#5E5C5A"/>
<ellipse cx="581.76" cy="594.503" rx="2.54785" ry="2.54787" fill="#5E5C5A"/>
<ellipse cx="478.572" cy="469.233" rx="6.36964" ry="6.36968" fill="#5E5C5A"/>
<ellipse cx="430.163" cy="498.109" rx="6.36964" ry="6.36968" fill="#5E5C5A"/>
<ellipse cx="516.79" cy="566.052" rx="7.21892" ry="7.21897" fill="#5E5C5A"/>
<ellipse cx="462.436" cy="620.407" rx="7.21892" ry="7.21897" fill="#5E5C5A"/>
<ellipse cx="335.892" cy="590.682" rx="5.52035" ry="5.52039" fill="#5E5C5A"/>
<path d="M332.06 683.289C332.06 685.418 326.791 686.482 316.253 686.482C305.715 686.482 300.446 685.418 300.446 683.289V603.136H281.287C279.477 603.136 278.2 600.688 277.455 595.792C277.135 593.45 276.976 591.055 276.976 588.607C276.976 586.159 277.135 583.764 277.455 581.422C278.2 576.525 279.477 574.077 281.287 574.077H350.741C352.551 574.077 353.828 576.525 354.573 581.422C354.892 583.764 355.052 586.159 355.052 588.607C355.052 591.055 354.892 593.45 354.573 595.792C353.828 600.688 352.551 603.136 350.741 603.136H332.06V683.289Z" fill="#FAF9F0"/>
<path d="M390.011 684.726C390.011 685.684 385.541 686.163 376.599 686.163C367.765 686.163 363.347 685.418 363.347 683.928V574.556C363.347 573.811 364.997 573.279 368.297 572.959C371.597 572.64 374.364 572.48 376.599 572.48C385.541 572.48 390.011 573.438 390.011 575.354V607.288C395.972 605.478 400.496 604.573 403.583 604.573C411.673 604.573 418.059 606.756 422.743 611.12C427.426 615.378 429.768 623.361 429.768 635.07V684.566C429.768 685.524 425.617 686.003 417.314 686.003C407.947 685.684 403.264 685.152 403.264 684.407V637.465C403.264 632.249 401.56 629.641 398.154 629.641C395.813 629.641 393.098 630.759 390.011 632.994V684.726Z" fill="#FAF9F0"/>
<path d="M503.689 681.533C496.983 685.471 488.362 687.44 477.824 687.44C467.286 687.44 458.398 683.875 451.159 676.743C443.921 669.505 440.302 659.552 440.302 646.885C440.302 634.112 443.762 623.84 450.68 616.069C457.706 608.299 466.541 604.414 477.185 604.414C487.829 604.414 496.026 607.128 501.773 612.557C507.628 617.985 510.555 624.585 510.555 632.355C510.555 649.599 500.656 658.221 480.857 658.221H469.84C469.84 661.415 470.692 663.65 472.395 664.927C474.205 666.098 476.812 666.684 480.219 666.684C487.67 666.684 494.748 664.981 501.454 661.574C501.561 661.468 502.04 662.213 502.891 663.81C505.446 668.387 506.723 672.272 506.723 675.465C506.723 678.552 505.712 680.575 503.689 681.533ZM483.731 635.389C483.731 630.918 481.549 628.683 477.185 628.683C475.163 628.683 473.406 629.322 471.916 630.599C470.532 631.77 469.84 633.526 469.84 635.868V640.818H478.462C481.975 640.818 483.731 639.008 483.731 635.389Z" fill="#FAF9F0"/>
<path d="M376.599 531.715C381.767 531.715 388.624 531.929 395.2 533.338C398.171 533.975 404.587 535.544 411.217 539.806C417.591 543.904 427.84 553.272 430.254 568.594C433.476 569.845 436.657 571.372 439.755 573.212C451.001 566.894 463.704 563.648 477.185 563.648C494.458 563.648 513.913 568.113 529.491 582.665C529.55 582.72 529.61 582.775 529.669 582.831C529.701 582.86 529.732 582.89 529.764 582.919C543.509 595.795 551.321 613.018 551.321 632.356C551.321 641.518 549.777 651.564 545.587 661.139C546.737 665.521 547.489 670.329 547.489 675.466C547.489 686.97 543.058 706.854 523.092 717.397C508.616 725.534 492.712 728.207 477.824 728.207C466.868 728.207 456.33 726.132 446.592 721.986C444.768 722.843 443.272 723.391 442.325 723.718C437.512 725.384 433.178 725.928 431.327 726.142C426.843 726.659 421.822 726.77 417.314 726.77H416.619L415.925 726.746C410.996 726.578 406.172 726.325 402.173 725.871C401.183 725.758 399.62 725.565 397.759 725.228C394.79 725.909 392.316 726.198 391.001 726.338C386.525 726.818 381.4 726.93 376.599 726.93C371.647 726.93 365.56 726.761 359.88 725.803C357.663 725.429 352.818 724.527 347.414 722.07C342.654 724.23 338.463 725.182 336.181 725.643C329.435 727.006 322.175 727.249 316.253 727.249C310.332 727.249 303.072 727.006 296.326 725.643C293.3 725.032 286.919 723.557 280.305 719.549C273.414 715.373 269 687.275 269 666.684L259.68 638.1C250.398 632.561 245.065 624.442 242.829 620.157C239.079 612.97 237.754 605.876 237.153 601.925L237.106 601.613L237.062 601.3C236.485 597.069 236.21 592.832 236.21 588.607C236.21 584.383 236.485 580.146 237.062 575.914L237.106 575.601L237.153 575.289C237.754 571.337 239.079 564.244 242.829 557.057C246.429 550.156 258.059 533.311 281.287 533.311H350.741C352.673 533.311 354.525 533.431 356.298 533.649C359.694 532.877 362.627 532.552 364.37 532.383C368.416 531.992 372.591 531.715 376.599 531.715ZM477.185 604.414C466.541 604.414 457.706 608.3 450.681 616.07C443.762 623.84 440.302 634.112 440.302 646.886C440.302 659.552 443.921 669.505 451.159 676.743C458.398 683.875 467.286 687.441 477.824 687.441C488.362 687.441 496.984 685.472 503.69 681.533C505.712 680.575 506.723 678.552 506.723 675.466C506.723 672.272 505.446 668.387 502.891 663.81C502.04 662.214 501.56 661.469 501.454 661.575C494.748 664.981 487.669 666.684 480.218 666.684C476.812 666.684 474.204 666.098 472.395 664.927C470.692 663.65 469.84 661.415 469.84 658.222H480.857C500.656 658.222 510.555 649.6 510.555 632.356C510.555 624.585 507.628 617.986 501.773 612.558C496.025 607.129 487.83 604.414 477.185 604.414ZM376.599 572.481C374.364 572.481 371.596 572.641 368.297 572.96C364.997 573.28 363.347 573.812 363.347 574.557V683.928C363.347 685.418 367.764 686.164 376.599 686.164C385.54 686.164 390.011 685.684 390.011 684.727V632.994C393.098 630.759 395.813 629.641 398.155 629.641C401.56 629.641 403.263 632.249 403.264 637.465V684.407C403.264 685.152 407.947 685.684 417.314 686.004C425.617 686.004 429.768 685.524 429.768 684.566V635.07C429.768 623.361 427.426 615.378 422.742 611.12C418.059 606.756 411.672 604.574 403.583 604.574C400.496 604.574 395.972 605.479 390.011 607.288V575.355C390.011 573.439 385.54 572.481 376.599 572.481ZM477.185 628.683C481.549 628.683 483.732 630.919 483.732 635.39C483.732 639.009 481.975 640.818 478.463 640.818H469.84V635.868C469.84 633.527 470.533 631.77 471.916 630.599C473.406 629.322 475.163 628.683 477.185 628.683ZM276.983 589.523C277.018 591.653 277.175 593.743 277.455 595.792C278.177 600.535 279.398 602.982 281.118 603.13L281.287 603.137H300.446V683.289C300.446 685.352 305.391 686.415 315.28 686.48L316.253 686.483C326.626 686.483 331.894 685.451 332.056 683.389L332.06 683.289V603.137H350.741C352.551 603.136 353.828 600.688 354.573 595.792C354.892 593.451 355.052 591.056 355.052 588.607C355.052 586.159 354.892 583.764 354.573 581.422C353.828 576.526 352.551 574.078 350.741 574.077H281.287L281.118 574.085C279.398 574.233 278.177 576.679 277.455 581.422L277.342 582.302C277.098 584.363 276.976 586.465 276.976 588.607L276.983 589.523Z" fill="#3D3C3A"/>
<path d="M140.043 815.74L140.478 786.172C140.478 784.142 142.579 782.838 146.783 782.258C150.986 781.533 154.465 781.171 157.219 781.171L165.698 781.823C171.206 782.693 173.96 784.215 173.96 786.389L173.09 854.441C170.191 856.47 164.321 858.499 155.479 860.529C146.783 862.413 136.782 863.355 125.476 863.355C104.459 863.355 87.5004 856.543 74.6004 842.918C61.7003 829.293 55.2502 809.29 55.2502 782.91C55.2502 760.444 61.5553 742.181 74.1655 728.121C86.7757 714.061 104.242 707.031 126.563 707.031C136.709 707.031 145.841 708.046 153.958 710.075C162.219 711.959 167.872 714.568 170.916 717.902C171.061 719.062 171.133 721.236 171.133 724.425C171.133 727.614 170.046 732.179 167.872 738.122C165.698 743.92 163.234 748.268 160.48 751.167C157.726 754.066 155.697 755.516 154.392 755.516C153.233 755.516 151.928 755.008 150.479 753.994C149.174 752.834 146.493 751.675 142.434 750.515C138.376 749.21 134.462 748.558 130.694 748.558C121.707 748.558 114.388 751.457 108.735 757.255C103.227 763.053 100.473 772.039 100.473 784.215C100.473 796.39 103.299 805.667 108.952 812.044C114.75 818.277 121.345 821.393 128.737 821.393C136.274 821.393 140.043 819.509 140.043 815.74Z" fill="#FAF9F0"/>
<path d="M236.162 858.137C236.162 860.456 229.277 861.616 215.507 861.616C201.592 861.616 194.635 860.529 194.635 858.354V716.598C194.635 711.525 197.316 708.988 202.679 708.988H244.206C282.326 708.988 301.387 723.845 301.387 753.559C301.387 762.545 299.647 770.735 296.169 778.127C292.69 785.374 287.762 791.172 281.384 795.521L308.779 841.178C307.619 844.657 303.851 848.643 297.473 853.136C288.776 859.369 281.602 862.485 275.949 862.485C270.296 862.485 266.093 860.456 263.339 856.398L242.901 808.783H236.162V858.137ZM236.162 747.471V780.084H237.249C251.018 780.084 257.903 774.358 257.903 762.908C257.903 757.69 256.526 753.849 253.772 751.385C251.163 748.776 246.815 747.471 240.727 747.471H236.162Z" fill="#FAF9F0"/>
<path d="M425.063 861.616C412.453 861.616 405.64 859.587 404.626 855.528L397.451 827.481H362.882L356.577 854.441C355.707 858.934 348.75 861.181 335.704 861.181C328.747 861.181 323.602 860.819 320.268 860.094C316.934 859.224 315.267 858.572 315.267 858.137L353.75 710.945C353.75 709.785 363.679 709.205 383.536 709.205C403.394 709.205 413.322 709.785 413.322 710.945L450.935 858.354C450.935 859.369 447.602 860.166 440.934 860.746C434.267 861.326 428.976 861.616 425.063 861.616ZM368.317 799.869H391.146L381.362 754.863H380.058L368.317 799.869Z" fill="#FAF9F0"/>
<path d="M448.16 711.814C448.16 711.09 451.276 710.437 457.509 709.858C463.887 709.133 469.104 708.771 473.163 708.771C489.252 708.771 497.659 710.872 498.383 715.076L517.081 810.74L534.692 715.076C535.562 710.872 544.548 708.771 561.652 708.771C565.855 708.771 571.146 709.06 577.523 709.64C583.901 710.22 587.089 710.872 587.089 711.597L548.607 855.528C548.027 857.847 543.751 859.369 535.779 860.094C523.459 861.398 512.226 861.688 502.079 860.964C492.078 860.094 486.788 858.644 486.208 856.615L448.16 711.814Z" fill="#FAF9F0"/>
<path d="M676.042 716.163C677.926 711.09 687.203 708.553 703.871 708.553C708.075 708.553 713.003 708.843 718.656 709.423C724.453 710.003 727.135 710.727 726.7 711.597L681.477 802.478V855.528C681.477 857.992 677.491 859.731 669.519 860.746C665.461 861.326 661.475 861.616 657.561 861.616C653.648 861.616 649.734 861.398 645.821 860.964C637.849 859.949 633.863 858.137 633.863 855.528V803.782L587.118 712.032C586.539 711.162 589.51 710.365 596.032 709.64C602.555 708.771 608.063 708.336 612.556 708.336C630.384 708.336 640.168 710.945 641.907 716.163L657.779 760.516L676.042 716.163Z" fill="#FAF9F0"/>
</svg>
