<svg width="500" height="203" viewBox="0 0 500 203" fill="none" xmlns="http://www.w3.org/2000/svg">
<path d="M0 16C0 7.16344 7.16344 0 16 0H484C492.837 0 500 7.16344 500 16V203H0V16Z" fill="white"/>
<rect x="12" y="12" width="476" height="30" rx="6" fill="#FAF9F0"/>
<path d="M24.981 31.209C24.651 31.209 24.3503 31.1687 24.079 31.088C23.815 31.0073 23.5803 30.9047 23.375 30.78C23.177 30.6553 23.0083 30.527 22.869 30.395C22.7297 30.263 22.627 30.142 22.561 30.032C22.4657 29.9 22.4033 29.7827 22.374 29.68C22.3447 29.5773 22.352 29.4783 22.396 29.383C22.4473 29.2803 22.539 29.174 22.671 29.064C22.803 28.9467 22.924 28.888 23.034 28.888C23.1513 28.8807 23.2613 28.9137 23.364 28.987C23.474 29.0603 23.5803 29.163 23.683 29.295C23.859 29.5297 24.057 29.6983 24.277 29.801C24.497 29.8963 24.717 29.944 24.937 29.944C25.223 29.944 25.4723 29.9073 25.685 29.834C25.8977 29.7533 26.0627 29.636 26.18 29.482C26.3047 29.328 26.367 29.13 26.367 28.888C26.367 28.69 26.3047 28.5287 26.18 28.404C26.0627 28.272 25.905 28.162 25.707 28.074C25.509 27.9787 25.2853 27.8943 25.036 27.821C24.794 27.7403 24.5483 27.6523 24.299 27.557C24.123 27.4983 23.947 27.4287 23.771 27.348C23.595 27.26 23.43 27.161 23.276 27.051C23.1293 26.941 22.9973 26.8127 22.88 26.666C22.77 26.512 22.682 26.336 22.616 26.138C22.55 25.94 22.517 25.709 22.517 25.445C22.517 25.027 22.6197 24.6603 22.825 24.345C23.0303 24.0223 23.3163 23.7693 23.683 23.586C24.0497 23.3953 24.4677 23.3 24.937 23.3C25.2377 23.3 25.5053 23.3293 25.74 23.388C25.982 23.4393 26.1873 23.509 26.356 23.597C26.532 23.6777 26.675 23.762 26.785 23.85C26.9023 23.9307 26.9867 24.0003 27.038 24.059C27.2067 24.2277 27.2983 24.3707 27.313 24.488C27.335 24.598 27.269 24.7483 27.115 24.939C26.961 25.137 26.8107 25.247 26.664 25.269C26.5247 25.2837 26.367 25.225 26.191 25.093C26.0737 24.9683 25.9563 24.8693 25.839 24.796C25.7217 24.7153 25.5897 24.6567 25.443 24.62C25.3037 24.5833 25.1313 24.565 24.926 24.565C24.7793 24.565 24.6363 24.587 24.497 24.631C24.365 24.6677 24.2513 24.7263 24.156 24.807C24.0607 24.8803 23.9837 24.972 23.925 25.082C23.8737 25.192 23.848 25.3167 23.848 25.456C23.848 25.6467 23.8993 25.8043 24.002 25.929C24.112 26.0463 24.2587 26.1453 24.442 26.226C24.6253 26.2993 24.8307 26.369 25.058 26.435C25.2853 26.501 25.5163 26.5707 25.751 26.644C25.993 26.7247 26.2313 26.82 26.466 26.93C26.7007 27.04 26.9097 27.1793 27.093 27.348C27.2763 27.5093 27.423 27.7147 27.533 27.964C27.643 28.206 27.698 28.503 27.698 28.855C27.698 29.2583 27.621 29.6103 27.467 29.911C27.313 30.2117 27.104 30.4573 26.84 30.648C26.576 30.8387 26.2827 30.978 25.96 31.066C25.6373 31.1613 25.311 31.209 24.981 31.209ZM29.2139 31.11C29.0085 31.11 28.8582 31.077 28.7629 31.011C28.6749 30.9523 28.6199 30.8717 28.5979 30.769C28.5759 30.6663 28.5649 30.5563 28.5649 30.439V23.872C28.5649 23.7473 28.5759 23.6373 28.5979 23.542C28.6272 23.4393 28.6859 23.3587 28.7739 23.3C28.8692 23.2413 29.0195 23.212 29.2249 23.212C29.4302 23.212 29.5769 23.245 29.6649 23.311C29.7602 23.3697 29.8189 23.4503 29.8409 23.553C29.8702 23.6483 29.8849 23.7583 29.8849 23.883V26.369C30.0315 26.2003 30.2185 26.0463 30.4459 25.907C30.6805 25.7603 30.9629 25.687 31.2929 25.687C31.7402 25.687 32.1399 25.797 32.4919 26.017C32.8439 26.2297 33.1225 26.5267 33.3279 26.908C33.5332 27.2893 33.6359 27.7367 33.6359 28.25V30.45C33.6359 30.5673 33.6249 30.6773 33.6029 30.78C33.5809 30.8753 33.5222 30.9523 33.4269 31.011C33.3389 31.0697 33.1922 31.099 32.9869 31.099C32.7815 31.099 32.6312 31.0697 32.5359 31.011C32.4405 30.9523 32.3819 30.8753 32.3599 30.78C32.3379 30.6773 32.3269 30.56 32.3269 30.428V28.239C32.3269 27.9823 32.2829 27.7587 32.1949 27.568C32.1069 27.3773 31.9749 27.2307 31.7989 27.128C31.6302 27.018 31.4175 26.963 31.1609 26.963C30.8162 26.963 30.5265 27.0657 30.2919 27.271C30.0572 27.469 29.9215 27.7257 29.8849 28.041V30.45C29.8849 30.5673 29.8702 30.6773 29.8409 30.78C29.8189 30.8827 29.7602 30.9633 29.6649 31.022C29.5769 31.0807 29.4265 31.11 29.2139 31.11ZM37.0903 31.176C36.7383 31.176 36.3936 31.11 36.0563 30.978C35.7263 30.8387 35.4256 30.6443 35.1543 30.395C34.8903 30.1457 34.6776 29.8523 34.5163 29.515C34.3623 29.1777 34.2853 28.8073 34.2853 28.404C34.2853 28.0153 34.3586 27.6523 34.5053 27.315C34.6519 26.9777 34.8536 26.6807 35.1103 26.424C35.3669 26.1673 35.6603 25.9693 35.9903 25.83C36.3276 25.6833 36.6869 25.61 37.0683 25.61C37.5816 25.61 38.0473 25.7347 38.4653 25.984C38.8833 26.226 39.2169 26.556 39.4663 26.974C39.7156 27.392 39.8403 27.865 39.8403 28.393C39.8403 28.811 39.7633 29.1923 39.6093 29.537C39.4553 29.8743 39.2463 30.1677 38.9823 30.417C38.7183 30.659 38.4213 30.846 38.0913 30.978C37.7686 31.11 37.4349 31.176 37.0903 31.176ZM37.0683 29.878C37.3103 29.878 37.5413 29.8193 37.7613 29.702C37.9886 29.5773 38.1719 29.4013 38.3113 29.174C38.4579 28.9467 38.5313 28.679 38.5313 28.371C38.5313 28.085 38.4653 27.832 38.3333 27.612C38.2086 27.392 38.0363 27.2197 37.8163 27.095C37.5963 26.9703 37.3433 26.908 37.0573 26.908C36.7859 26.908 36.5403 26.974 36.3203 27.106C36.1003 27.2307 35.9243 27.4067 35.7923 27.634C35.6676 27.854 35.6053 28.1033 35.6053 28.382C35.6053 28.69 35.6749 28.9577 35.8143 29.185C35.9536 29.405 36.1333 29.5773 36.3533 29.702C36.5806 29.8193 36.8189 29.878 37.0683 29.878ZM42.47 31.099C42.3233 31.099 42.206 31.0697 42.118 31.011C42.0373 30.9597 41.975 30.8937 41.931 30.813C41.8943 30.7323 41.8613 30.659 41.832 30.593L40.215 26.501C40.171 26.3617 40.149 26.2443 40.149 26.149C40.1563 26.0537 40.193 25.973 40.259 25.907C40.3323 25.8337 40.4386 25.7713 40.578 25.72C40.8126 25.6247 40.996 25.599 41.128 25.643C41.2673 25.687 41.37 25.8117 41.436 26.017L42.481 28.789L43.427 26.138C43.449 26.072 43.482 26.0023 43.526 25.929C43.57 25.8557 43.6323 25.7933 43.713 25.742C43.801 25.6833 43.9183 25.654 44.065 25.654C44.219 25.654 44.34 25.6833 44.428 25.742C44.516 25.7933 44.582 25.8557 44.626 25.929C44.6773 26.0023 44.7103 26.072 44.725 26.138L45.671 28.811L46.672 26.116C46.76 25.8887 46.87 25.7383 47.002 25.665C47.134 25.5917 47.3136 25.599 47.541 25.687C47.7463 25.775 47.8856 25.885 47.959 26.017C48.0323 26.1417 48.025 26.3067 47.937 26.512L46.309 30.593C46.2796 30.6663 46.243 30.7433 46.199 30.824C46.1623 30.8973 46.1 30.9597 46.012 31.011C45.9313 31.0697 45.8213 31.099 45.682 31.099C45.5353 31.099 45.418 31.0733 45.33 31.022C45.2493 30.978 45.187 30.9157 45.143 30.835C45.099 30.7543 45.0623 30.67 45.033 30.582L44.076 27.865L43.119 30.582C43.075 30.6847 43.0346 30.7763 42.998 30.857C42.9613 30.9377 42.9026 30.9963 42.822 31.033C42.7413 31.077 42.624 31.099 42.47 31.099ZM52.1602 31.099C51.9622 31.099 51.8155 31.0697 51.7202 31.011C51.6322 30.9523 51.5772 30.8717 51.5552 30.769C51.5332 30.6663 51.5222 30.5563 51.5222 30.439V26.325C51.5222 26.2077 51.5332 26.1013 51.5552 26.006C51.5772 25.9107 51.6359 25.8337 51.7312 25.775C51.8265 25.7163 51.9769 25.687 52.1822 25.687C52.3949 25.687 52.5489 25.731 52.6442 25.819C52.7469 25.907 52.7982 26.0463 52.7982 26.237L52.6992 26.545C52.7359 26.4643 52.7982 26.3763 52.8862 26.281C52.9742 26.1857 53.0805 26.0903 53.2052 25.995C53.3372 25.8997 53.4839 25.8227 53.6452 25.764C53.8065 25.7053 53.9752 25.676 54.1512 25.676C54.3932 25.676 54.6132 25.7163 54.8112 25.797C55.0165 25.8777 55.1962 25.995 55.3502 26.149C55.5115 26.303 55.6509 26.49 55.7682 26.71C55.8929 26.5193 56.0322 26.347 56.1862 26.193C56.3402 26.0317 56.5199 25.907 56.7252 25.819C56.9305 25.7237 57.1615 25.676 57.4182 25.676C57.8435 25.676 58.1992 25.7823 58.4852 25.995C58.7785 26.2077 58.9985 26.512 59.1452 26.908C59.2992 27.2967 59.3762 27.7623 59.3762 28.305V30.439C59.3762 30.5637 59.3615 30.6773 59.3322 30.78C59.3102 30.8753 59.2515 30.9523 59.1562 31.011C59.0682 31.0697 58.9215 31.099 58.7162 31.099C58.5109 31.099 58.3605 31.066 58.2652 31C58.1699 30.9413 58.1112 30.8643 58.0892 30.769C58.0672 30.6663 58.0562 30.5527 58.0562 30.428V28.294C58.0562 28.0227 58.0232 27.788 57.9572 27.59C57.8912 27.392 57.7922 27.238 57.6602 27.128C57.5355 27.018 57.3705 26.963 57.1652 26.963C56.9452 26.963 56.7545 27.018 56.5932 27.128C56.4392 27.2307 56.3182 27.381 56.2302 27.579C56.1422 27.777 56.0982 28.019 56.0982 28.305V30.45C56.0982 30.5747 56.0799 30.692 56.0432 30.802C56.0065 30.9047 55.9332 30.9817 55.8232 31.033C55.7205 31.0917 55.5702 31.1137 55.3722 31.099C55.1889 31.0917 55.0532 31.055 54.9652 30.989C54.8845 30.923 54.8332 30.8423 54.8112 30.747C54.7965 30.6443 54.7892 30.538 54.7892 30.428V28.294C54.7892 28.0227 54.7562 27.788 54.6902 27.59C54.6242 27.3847 54.5252 27.2307 54.3932 27.128C54.2685 27.018 54.0999 26.963 53.8872 26.963C53.6599 26.963 53.4655 27.0217 53.3042 27.139C53.1502 27.2563 53.0329 27.414 52.9522 27.612C52.8715 27.81 52.8312 28.0373 52.8312 28.294V30.45C52.8312 30.5673 52.8165 30.6773 52.7872 30.78C52.7652 30.8827 52.7065 30.9597 52.6112 31.011C52.5232 31.0697 52.3729 31.099 52.1602 31.099ZM63.0992 31.176C62.6225 31.176 62.2045 31.099 61.8452 30.945C61.4932 30.791 61.1962 30.582 60.9542 30.318C60.7195 30.0467 60.5398 29.746 60.4152 29.416C60.2978 29.0787 60.2392 28.7303 60.2392 28.371C60.2392 27.843 60.3602 27.3737 60.6022 26.963C60.8442 26.5523 61.1778 26.2297 61.6032 25.995C62.0358 25.7603 62.5308 25.643 63.0882 25.643C63.4842 25.643 63.8325 25.7053 64.1332 25.83C64.4338 25.9547 64.6832 26.1197 64.8812 26.325C65.0865 26.523 65.2405 26.743 65.3432 26.985C65.4532 27.227 65.5082 27.4617 65.5082 27.689C65.5082 28.0777 65.4128 28.36 65.2222 28.536C65.0388 28.712 64.8078 28.8 64.5292 28.8H61.6252C61.6325 29.0493 61.7095 29.2657 61.8562 29.449C62.0102 29.6323 62.2008 29.7753 62.4282 29.878C62.6628 29.9733 62.9012 30.021 63.1432 30.021C63.3265 30.021 63.4878 30.01 63.6272 29.988C63.7738 29.966 63.8985 29.9403 64.0012 29.911C64.1038 29.8743 64.1918 29.8377 64.2652 29.801C64.3458 29.7643 64.4192 29.7313 64.4852 29.702C64.5512 29.6727 64.6135 29.6543 64.6722 29.647C64.7528 29.6397 64.8335 29.658 64.9142 29.702C64.9948 29.746 65.0608 29.823 65.1122 29.933C65.1562 30.0063 65.1855 30.076 65.2002 30.142C65.2222 30.2007 65.2332 30.2593 65.2332 30.318C65.2332 30.4647 65.1452 30.604 64.9692 30.736C64.7932 30.8607 64.5438 30.9633 64.2212 31.044C63.9058 31.132 63.5318 31.176 63.0992 31.176ZM61.6252 28.019H63.8802C64.0048 28.019 64.1002 28.0007 64.1662 27.964C64.2322 27.92 64.2652 27.832 64.2652 27.7C64.2652 27.5313 64.2138 27.381 64.1112 27.249C64.0085 27.1097 63.8692 27.0033 63.6932 26.93C63.5172 26.8493 63.3118 26.809 63.0772 26.809C62.8058 26.809 62.5602 26.864 62.3402 26.974C62.1202 27.0767 61.9442 27.2197 61.8122 27.403C61.6875 27.5863 61.6252 27.7917 61.6252 28.019ZM69.8434 31.11C69.6454 31.11 69.4987 31.077 69.4034 31.011C69.308 30.9523 69.2494 30.8753 69.2274 30.78C69.2054 30.6773 69.1944 30.5637 69.1944 30.439V26.347C69.1944 26.2297 69.2054 26.1233 69.2274 26.028C69.2567 25.9253 69.3154 25.8447 69.4034 25.786C69.4987 25.7273 69.649 25.698 69.8544 25.698C70.0597 25.698 70.2064 25.7273 70.2944 25.786C70.3897 25.8447 70.4484 25.9253 70.4704 26.028C70.4924 26.1307 70.5034 26.2443 70.5034 26.369V30.45C70.5034 30.5747 70.4924 30.6883 70.4704 30.791C70.4484 30.8863 70.3897 30.9633 70.2944 31.022C70.2064 31.0807 70.056 31.11 69.8434 31.11ZM69.8434 24.631C69.6307 24.631 69.473 24.6017 69.3704 24.543C69.275 24.477 69.2127 24.389 69.1834 24.279C69.1614 24.169 69.1504 24.048 69.1504 23.916C69.1504 23.7767 69.1614 23.6557 69.1834 23.553C69.2127 23.4503 69.2787 23.3697 69.3814 23.311C69.484 23.245 69.6417 23.212 69.8544 23.212C70.0744 23.212 70.232 23.245 70.3274 23.311C70.4227 23.377 70.485 23.465 70.5144 23.575C70.5437 23.6777 70.5584 23.7987 70.5584 23.938C70.5584 24.0627 70.5437 24.18 70.5144 24.29C70.485 24.4 70.4227 24.4843 70.3274 24.543C70.232 24.6017 70.0707 24.631 69.8434 24.631ZM72.3558 31.099C72.1578 31.099 72.0111 31.066 71.9158 31C71.8278 30.9413 71.7728 30.8643 71.7508 30.769C71.7288 30.6663 71.7178 30.5527 71.7178 30.428V26.314C71.7178 26.1967 71.7288 26.0903 71.7508 25.995C71.7728 25.8997 71.8314 25.8263 71.9268 25.775C72.0221 25.7163 72.1688 25.687 72.3668 25.687C72.5428 25.687 72.6748 25.709 72.7628 25.753C72.8508 25.797 72.9094 25.852 72.9388 25.918C72.9681 25.984 72.9828 26.05 72.9828 26.116C72.9901 26.182 72.9974 26.2333 73.0048 26.27L72.9608 26.622C73.0048 26.5047 73.0781 26.391 73.1808 26.281C73.2834 26.171 73.4081 26.072 73.5548 25.984C73.7014 25.8887 73.8591 25.8153 74.0278 25.764C74.2038 25.7053 74.3834 25.676 74.5668 25.676C74.9114 25.676 75.2194 25.7383 75.4908 25.863C75.7621 25.9877 75.9931 26.1637 76.1838 26.391C76.3818 26.6183 76.5321 26.8897 76.6348 27.205C76.7374 27.513 76.7888 27.8613 76.7888 28.25V30.439C76.7888 30.5637 76.7741 30.6773 76.7448 30.78C76.7228 30.8753 76.6678 30.9523 76.5798 31.011C76.4918 31.0697 76.3414 31.099 76.1288 31.099C75.9234 31.099 75.7731 31.066 75.6778 31C75.5824 30.9413 75.5238 30.8643 75.5018 30.769C75.4798 30.6663 75.4688 30.5527 75.4688 30.428V28.239C75.4688 27.975 75.4211 27.7477 75.3258 27.557C75.2378 27.3663 75.1058 27.2197 74.9298 27.117C74.7611 27.0143 74.5448 26.963 74.2808 26.963C74.0241 26.963 73.8004 27.018 73.6098 27.128C73.4191 27.2307 73.2724 27.3773 73.1698 27.568C73.0671 27.7587 73.0158 27.9823 73.0158 28.239V30.439C73.0158 30.5637 73.0048 30.6773 72.9828 30.78C72.9608 30.8753 72.9021 30.9523 72.8068 31.011C72.7188 31.0697 72.5684 31.099 72.3558 31.099ZM80.227 33.31C79.963 33.31 79.71 33.277 79.468 33.211C79.226 33.1523 79.006 33.0717 78.808 32.969C78.6174 32.8663 78.4634 32.7563 78.346 32.639C78.236 32.5217 78.181 32.4117 78.181 32.309C78.181 32.2063 78.1957 32.1183 78.225 32.045C78.2617 31.9717 78.313 31.8983 78.379 31.825C78.467 31.737 78.5367 31.671 78.588 31.627C78.6467 31.583 78.7237 31.561 78.819 31.561C78.8997 31.561 78.9767 31.5903 79.05 31.649C79.1307 31.7077 79.2224 31.7737 79.325 31.847C79.4277 31.9203 79.5524 31.9863 79.699 32.045C79.8457 32.1037 80.0327 32.133 80.26 32.133C80.4507 32.133 80.6267 32.1 80.788 32.034C80.9494 31.968 81.085 31.869 81.195 31.737C81.3124 31.6123 81.404 31.462 81.47 31.286C81.536 31.11 81.569 30.912 81.569 30.692L81.558 26.138C81.5727 25.9693 81.6314 25.852 81.734 25.786C81.8367 25.7127 81.9944 25.676 82.207 25.676C82.405 25.676 82.548 25.7053 82.636 25.764C82.724 25.8153 82.779 25.8923 82.801 25.995C82.823 26.0903 82.834 26.1967 82.834 26.314V30.769C82.834 31.1723 82.7644 31.5317 82.625 31.847C82.4857 32.1623 82.295 32.4263 82.053 32.639C81.811 32.859 81.5324 33.024 81.217 33.134C80.909 33.2513 80.579 33.31 80.227 33.31ZM80.106 30.967C79.7614 30.967 79.4387 30.901 79.138 30.769C78.8447 30.637 78.5844 30.45 78.357 30.208C78.137 29.966 77.961 29.6873 77.829 29.372C77.7044 29.0493 77.642 28.701 77.642 28.327C77.642 27.9603 77.7044 27.6193 77.829 27.304C77.961 26.9887 78.137 26.71 78.357 26.468C78.5844 26.226 78.8447 26.039 79.138 25.907C79.4387 25.7677 79.7577 25.698 80.095 25.698C80.425 25.698 80.711 25.764 80.953 25.896C81.2024 26.0207 81.4077 26.2003 81.569 26.435C81.7304 26.6697 81.8514 26.9483 81.932 27.271C82.02 27.5937 82.064 27.9493 82.064 28.338C82.064 28.8733 81.9907 29.339 81.844 29.735C81.6974 30.131 81.481 30.4353 81.195 30.648C80.909 30.8607 80.546 30.967 80.106 30.967ZM80.227 29.724C80.4764 29.724 80.6964 29.6653 80.887 29.548C81.085 29.4233 81.239 29.2547 81.349 29.042C81.4664 28.8293 81.525 28.591 81.525 28.327C81.525 28.0557 81.4664 27.8173 81.349 27.612C81.239 27.3993 81.085 27.2343 80.887 27.117C80.689 26.9997 80.4654 26.941 80.216 26.941C79.9667 26.941 79.743 27.0033 79.545 27.128C79.3544 27.2453 79.204 27.4067 79.094 27.612C78.984 27.8173 78.929 28.0557 78.929 28.327C78.929 28.5983 78.984 28.8403 79.094 29.053C79.2114 29.2583 79.3654 29.4233 79.556 29.548C79.754 29.6653 79.9777 29.724 80.227 29.724ZM84.6556 31.11C84.4576 31.11 84.3109 31.077 84.2156 31.011C84.1276 30.9523 84.0726 30.8717 84.0506 30.769C84.0286 30.6663 84.0176 30.5527 84.0176 30.428V26.347C84.0176 26.215 84.0286 26.1013 84.0506 26.006C84.0726 25.9033 84.1276 25.8263 84.2156 25.775C84.3109 25.7163 84.4612 25.687 84.6666 25.687C84.8646 25.687 85.0076 25.7127 85.0956 25.764C85.1909 25.8153 85.2496 25.8813 85.2716 25.962C85.3009 26.0353 85.3156 26.1087 85.3156 26.182L85.2276 26.38C85.2642 26.3213 85.3156 26.2517 85.3816 26.171C85.4476 26.083 85.5356 25.9987 85.6456 25.918C85.7556 25.83 85.8876 25.7603 86.0416 25.709C86.1956 25.6503 86.3789 25.621 86.5916 25.621C86.6796 25.621 86.7712 25.632 86.8666 25.654C86.9692 25.6687 87.0682 25.6943 87.1636 25.731C87.2662 25.7603 87.3579 25.8007 87.4386 25.852C87.5192 25.9033 87.5816 25.9657 87.6256 26.039C87.6696 26.105 87.6916 26.182 87.6916 26.27C87.6916 26.5047 87.6329 26.7027 87.5156 26.864C87.3982 27.0253 87.2589 27.106 87.0976 27.106C86.9876 27.106 86.9069 27.095 86.8556 27.073C86.8042 27.051 86.7602 27.0253 86.7236 26.996C86.6942 26.9667 86.6466 26.941 86.5806 26.919C86.5219 26.897 86.4266 26.886 86.2946 26.886C86.1846 26.886 86.0709 26.9043 85.9536 26.941C85.8436 26.9777 85.7409 27.0327 85.6456 27.106C85.5502 27.1793 85.4732 27.2747 85.4146 27.392C85.3559 27.502 85.3266 27.6303 85.3266 27.777V30.45C85.3266 30.5747 85.3156 30.6883 85.2936 30.791C85.2716 30.8863 85.2129 30.9633 85.1176 31.022C85.0222 31.0807 84.8682 31.11 84.6556 31.11ZM90.857 31.176C90.3803 31.176 89.9623 31.099 89.603 30.945C89.251 30.791 88.954 30.582 88.712 30.318C88.4773 30.0467 88.2977 29.746 88.173 29.416C88.0557 29.0787 87.997 28.7303 87.997 28.371C87.997 27.843 88.118 27.3737 88.36 26.963C88.602 26.5523 88.9357 26.2297 89.361 25.995C89.7937 25.7603 90.2887 25.643 90.846 25.643C91.242 25.643 91.5903 25.7053 91.891 25.83C92.1917 25.9547 92.441 26.1197 92.639 26.325C92.8443 26.523 92.9983 26.743 93.101 26.985C93.211 27.227 93.266 27.4617 93.266 27.689C93.266 28.0777 93.1707 28.36 92.98 28.536C92.7967 28.712 92.5657 28.8 92.287 28.8H89.383C89.3903 29.0493 89.4673 29.2657 89.614 29.449C89.768 29.6323 89.9587 29.7753 90.186 29.878C90.4207 29.9733 90.659 30.021 90.901 30.021C91.0843 30.021 91.2457 30.01 91.385 29.988C91.5317 29.966 91.6563 29.9403 91.759 29.911C91.8617 29.8743 91.9497 29.8377 92.023 29.801C92.1037 29.7643 92.177 29.7313 92.243 29.702C92.309 29.6727 92.3713 29.6543 92.43 29.647C92.5107 29.6397 92.5913 29.658 92.672 29.702C92.7527 29.746 92.8187 29.823 92.87 29.933C92.914 30.0063 92.9433 30.076 92.958 30.142C92.98 30.2007 92.991 30.2593 92.991 30.318C92.991 30.4647 92.903 30.604 92.727 30.736C92.551 30.8607 92.3017 30.9633 91.979 31.044C91.6637 31.132 91.2897 31.176 90.857 31.176ZM89.383 28.019H91.638C91.7627 28.019 91.858 28.0007 91.924 27.964C91.99 27.92 92.023 27.832 92.023 27.7C92.023 27.5313 91.9717 27.381 91.869 27.249C91.7663 27.1097 91.627 27.0033 91.451 26.93C91.275 26.8493 91.0697 26.809 90.835 26.809C90.5637 26.809 90.318 26.864 90.098 26.974C89.878 27.0767 89.702 27.2197 89.57 27.403C89.4453 27.5863 89.383 27.7917 89.383 28.019ZM96.5007 31.099C96.1633 31.099 95.8443 31.0293 95.5437 30.89C95.243 30.7507 94.979 30.56 94.7517 30.318C94.5243 30.0687 94.3447 29.779 94.2127 29.449C94.0807 29.1117 94.0147 28.7523 94.0147 28.371C94.0147 28.0043 94.0807 27.6597 94.2127 27.337C94.3447 27.007 94.5243 26.721 94.7517 26.479C94.9863 26.2297 95.254 26.0353 95.5547 25.896C95.8553 25.7567 96.1707 25.687 96.5007 25.687C96.8527 25.687 97.168 25.7567 97.4467 25.896C97.7253 26.0353 97.96 26.2297 98.1507 26.479C98.3487 26.721 98.499 27.007 98.6017 27.337C98.7043 27.6597 98.7593 28.008 98.7667 28.382C98.7667 28.756 98.7153 29.108 98.6127 29.438C98.5173 29.7607 98.3707 30.0467 98.1727 30.296C97.982 30.5453 97.7437 30.7433 97.4577 30.89C97.179 31.0293 96.86 31.099 96.5007 31.099ZM96.6767 29.812C96.9333 29.812 97.1607 29.7533 97.3587 29.636C97.564 29.5113 97.7253 29.3427 97.8427 29.13C97.9673 28.9173 98.0297 28.6753 98.0297 28.404C98.0297 28.1253 97.9673 27.8797 97.8427 27.667C97.7253 27.4543 97.564 27.2857 97.3587 27.161C97.1607 27.0363 96.9333 26.974 96.6767 26.974C96.42 26.974 96.189 27.0363 95.9837 27.161C95.7783 27.2783 95.6133 27.447 95.4887 27.667C95.3713 27.8797 95.3127 28.1253 95.3127 28.404C95.3127 28.6753 95.3713 28.9173 95.4887 29.13C95.6133 29.3427 95.7783 29.5113 95.9837 29.636C96.1963 29.7533 96.4273 29.812 96.6767 29.812ZM98.7117 31.099C98.5063 31.099 98.356 31.066 98.2607 31C98.1653 30.9267 98.103 30.813 98.0737 30.659V23.883C98.0737 23.7583 98.081 23.6483 98.0957 23.553C98.1177 23.4503 98.1727 23.3697 98.2607 23.311C98.356 23.245 98.5027 23.212 98.7007 23.212C98.9133 23.212 99.0637 23.2413 99.1517 23.3C99.2397 23.3587 99.2947 23.4393 99.3167 23.542C99.346 23.6373 99.3607 23.7473 99.3607 23.872V30.428C99.3607 30.5527 99.3497 30.6663 99.3277 30.769C99.3057 30.8717 99.247 30.9523 99.1517 31.011C99.0637 31.0697 98.917 31.099 98.7117 31.099ZM101.2 31.11C101.002 31.11 100.855 31.077 100.76 31.011C100.664 30.9523 100.606 30.8753 100.584 30.78C100.562 30.6773 100.551 30.5637 100.551 30.439V26.347C100.551 26.2297 100.562 26.1233 100.584 26.028C100.613 25.9253 100.672 25.8447 100.76 25.786C100.855 25.7273 101.005 25.698 101.211 25.698C101.416 25.698 101.563 25.7273 101.651 25.786C101.746 25.8447 101.805 25.9253 101.827 26.028C101.849 26.1307 101.86 26.2443 101.86 26.369V30.45C101.86 30.5747 101.849 30.6883 101.827 30.791C101.805 30.8863 101.746 30.9633 101.651 31.022C101.563 31.0807 101.412 31.11 101.2 31.11ZM101.2 24.631C100.987 24.631 100.829 24.6017 100.727 24.543C100.631 24.477 100.569 24.389 100.54 24.279C100.518 24.169 100.507 24.048 100.507 23.916C100.507 23.7767 100.518 23.6557 100.54 23.553C100.569 23.4503 100.635 23.3697 100.738 23.311C100.84 23.245 100.998 23.212 101.211 23.212C101.431 23.212 101.588 23.245 101.684 23.311C101.779 23.377 101.841 23.465 101.871 23.575C101.9 23.6777 101.915 23.7987 101.915 23.938C101.915 24.0627 101.9 24.18 101.871 24.29C101.841 24.4 101.779 24.4843 101.684 24.543C101.588 24.6017 101.427 24.631 101.2 24.631ZM105.681 31.176C105.205 31.176 104.787 31.099 104.427 30.945C104.075 30.791 103.778 30.582 103.536 30.318C103.302 30.0467 103.122 29.746 102.997 29.416C102.88 29.0787 102.821 28.7303 102.821 28.371C102.821 27.843 102.942 27.3737 103.184 26.963C103.426 26.5523 103.76 26.2297 104.185 25.995C104.618 25.7603 105.113 25.643 105.67 25.643C106.066 25.643 106.415 25.7053 106.715 25.83C107.016 25.9547 107.265 26.1197 107.463 26.325C107.669 26.523 107.823 26.743 107.925 26.985C108.035 27.227 108.09 27.4617 108.09 27.689C108.09 28.0777 107.995 28.36 107.804 28.536C107.621 28.712 107.39 28.8 107.111 28.8H104.207C104.215 29.0493 104.292 29.2657 104.438 29.449C104.592 29.6323 104.783 29.7753 105.01 29.878C105.245 29.9733 105.483 30.021 105.725 30.021C105.909 30.021 106.07 30.01 106.209 29.988C106.356 29.966 106.481 29.9403 106.583 29.911C106.686 29.8743 106.774 29.8377 106.847 29.801C106.928 29.7643 107.001 29.7313 107.067 29.702C107.133 29.6727 107.196 29.6543 107.254 29.647C107.335 29.6397 107.416 29.658 107.496 29.702C107.577 29.746 107.643 29.823 107.694 29.933C107.738 30.0063 107.768 30.076 107.782 30.142C107.804 30.2007 107.815 30.2593 107.815 30.318C107.815 30.4647 107.727 30.604 107.551 30.736C107.375 30.8607 107.126 30.9633 106.803 31.044C106.488 31.132 106.114 31.176 105.681 31.176ZM104.207 28.019H106.462C106.587 28.019 106.682 28.0007 106.748 27.964C106.814 27.92 106.847 27.832 106.847 27.7C106.847 27.5313 106.796 27.381 106.693 27.249C106.591 27.1097 106.451 27.0033 106.275 26.93C106.099 26.8493 105.894 26.809 105.659 26.809C105.388 26.809 105.142 26.864 104.922 26.974C104.702 27.0767 104.526 27.2197 104.394 27.403C104.27 27.5863 104.207 27.7917 104.207 28.019ZM109.642 31.099C109.444 31.099 109.297 31.066 109.202 31C109.114 30.9413 109.059 30.8643 109.037 30.769C109.015 30.6663 109.004 30.5527 109.004 30.428V26.314C109.004 26.1967 109.015 26.0903 109.037 25.995C109.059 25.8997 109.118 25.8263 109.213 25.775C109.308 25.7163 109.455 25.687 109.653 25.687C109.829 25.687 109.961 25.709 110.049 25.753C110.137 25.797 110.196 25.852 110.225 25.918C110.254 25.984 110.269 26.05 110.269 26.116C110.276 26.182 110.284 26.2333 110.291 26.27L110.247 26.622C110.291 26.5047 110.364 26.391 110.467 26.281C110.57 26.171 110.694 26.072 110.841 25.984C110.988 25.8887 111.145 25.8153 111.314 25.764C111.49 25.7053 111.67 25.676 111.853 25.676C112.198 25.676 112.506 25.7383 112.777 25.863C113.048 25.9877 113.279 26.1637 113.47 26.391C113.668 26.6183 113.818 26.8897 113.921 27.205C114.024 27.513 114.075 27.8613 114.075 28.25V30.439C114.075 30.5637 114.06 30.6773 114.031 30.78C114.009 30.8753 113.954 30.9523 113.866 31.011C113.778 31.0697 113.628 31.099 113.415 31.099C113.21 31.099 113.059 31.066 112.964 31C112.869 30.9413 112.81 30.8643 112.788 30.769C112.766 30.6663 112.755 30.5527 112.755 30.428V28.239C112.755 27.975 112.707 27.7477 112.612 27.557C112.524 27.3663 112.392 27.2197 112.216 27.117C112.047 27.0143 111.831 26.963 111.567 26.963C111.31 26.963 111.087 27.018 110.896 27.128C110.705 27.2307 110.559 27.3773 110.456 27.568C110.353 27.7587 110.302 27.9823 110.302 28.239V30.439C110.302 30.5637 110.291 30.6773 110.269 30.78C110.247 30.8753 110.188 30.9523 110.093 31.011C110.005 31.0697 109.855 31.099 109.642 31.099ZM117.714 31.11C117.354 31.11 117.046 31.0733 116.79 31C116.533 30.9267 116.324 30.813 116.163 30.659C116.001 30.505 115.88 30.307 115.8 30.065C115.726 29.8157 115.69 29.5223 115.69 29.185V24.521C115.69 24.389 115.701 24.2753 115.723 24.18C115.752 24.0847 115.811 24.0113 115.899 23.96C115.994 23.9013 116.141 23.872 116.339 23.872C116.544 23.872 116.691 23.9013 116.779 23.96C116.874 24.0187 116.933 24.0993 116.955 24.202C116.984 24.2973 116.999 24.4037 116.999 24.521V29.141C116.999 29.295 117.01 29.4197 117.032 29.515C117.061 29.6103 117.101 29.6837 117.153 29.735C117.211 29.779 117.285 29.812 117.373 29.834C117.468 29.8487 117.582 29.856 117.714 29.856C117.853 29.856 117.97 29.867 118.066 29.889C118.168 29.911 118.245 29.966 118.297 30.054C118.348 30.1347 118.374 30.2703 118.374 30.461C118.374 30.6663 118.341 30.8167 118.275 30.912C118.216 31 118.135 31.055 118.033 31.077C117.937 31.099 117.831 31.11 117.714 31.11ZM115.239 25.797L116.372 25.808L117.89 25.764C118.014 25.764 118.124 25.7787 118.22 25.808C118.322 25.83 118.403 25.8887 118.462 25.984C118.52 26.072 118.55 26.2187 118.55 26.424C118.55 26.6147 118.52 26.7577 118.462 26.853C118.403 26.9483 118.326 27.0107 118.231 27.04C118.135 27.062 118.025 27.073 117.901 27.073L116.427 27.051L115.206 27.062C115.022 27.0547 114.894 27.0033 114.821 26.908C114.755 26.8053 114.722 26.6403 114.722 26.413C114.722 26.2003 114.762 26.0463 114.843 25.951C114.931 25.8483 115.063 25.797 115.239 25.797ZM124.491 31.132C124.139 31.132 123.794 31.0733 123.457 30.956C123.127 30.8313 122.826 30.6517 122.555 30.417C122.291 30.1823 122.078 29.8963 121.917 29.559C121.763 29.2143 121.686 28.8257 121.686 28.393C121.686 27.9603 121.763 27.5753 121.917 27.238C122.078 26.9007 122.291 26.6147 122.555 26.38C122.819 26.1453 123.116 25.9657 123.446 25.841C123.776 25.7163 124.117 25.654 124.469 25.654C124.725 25.654 124.967 25.6907 125.195 25.764C125.429 25.8373 125.631 25.9253 125.8 26.028C125.968 26.1307 126.089 26.2333 126.163 26.336C126.258 26.424 126.339 26.5083 126.405 26.589C126.471 26.6697 126.493 26.7687 126.471 26.886C126.449 26.9593 126.416 27.029 126.372 27.095C126.328 27.1537 126.273 27.216 126.207 27.282C126.031 27.48 125.858 27.5533 125.69 27.502C125.594 27.4507 125.499 27.3957 125.404 27.337C125.308 27.2783 125.209 27.2233 125.107 27.172C125.011 27.1133 124.912 27.0657 124.81 27.029C124.707 26.9923 124.593 26.974 124.469 26.974C124.19 26.974 123.941 27.0363 123.721 27.161C123.508 27.2783 123.339 27.4433 123.215 27.656C123.097 27.8687 123.039 28.1143 123.039 28.393C123.039 28.6717 123.097 28.921 123.215 29.141C123.339 29.3537 123.508 29.5223 123.721 29.647C123.933 29.7643 124.175 29.823 124.447 29.823C124.579 29.823 124.703 29.8083 124.821 29.779C124.945 29.7423 125.055 29.6983 125.151 29.647C125.246 29.5883 125.323 29.5297 125.382 29.471C125.462 29.4197 125.536 29.372 125.602 29.328C125.668 29.284 125.737 29.262 125.811 29.262C125.899 29.262 125.983 29.295 126.064 29.361C126.152 29.4197 126.247 29.515 126.35 29.647C126.445 29.757 126.496 29.8633 126.504 29.966C126.518 30.0687 126.496 30.1677 126.438 30.263C126.386 30.3583 126.298 30.4463 126.174 30.527C126.086 30.615 125.954 30.7067 125.778 30.802C125.609 30.89 125.411 30.967 125.184 31.033C124.964 31.099 124.733 31.132 124.491 31.132ZM129.978 31.176C129.626 31.176 129.281 31.11 128.944 30.978C128.614 30.8387 128.313 30.6443 128.042 30.395C127.778 30.1457 127.565 29.8523 127.404 29.515C127.25 29.1777 127.173 28.8073 127.173 28.404C127.173 28.0153 127.246 27.6523 127.393 27.315C127.54 26.9777 127.741 26.6807 127.998 26.424C128.255 26.1673 128.548 25.9693 128.878 25.83C129.215 25.6833 129.575 25.61 129.956 25.61C130.469 25.61 130.935 25.7347 131.353 25.984C131.771 26.226 132.105 26.556 132.354 26.974C132.603 27.392 132.728 27.865 132.728 28.393C132.728 28.811 132.651 29.1923 132.497 29.537C132.343 29.8743 132.134 30.1677 131.87 30.417C131.606 30.659 131.309 30.846 130.979 30.978C130.656 31.11 130.323 31.176 129.978 31.176ZM129.956 29.878C130.198 29.878 130.429 29.8193 130.649 29.702C130.876 29.5773 131.06 29.4013 131.199 29.174C131.346 28.9467 131.419 28.679 131.419 28.371C131.419 28.085 131.353 27.832 131.221 27.612C131.096 27.392 130.924 27.2197 130.704 27.095C130.484 26.9703 130.231 26.908 129.945 26.908C129.674 26.908 129.428 26.974 129.208 27.106C128.988 27.2307 128.812 27.4067 128.68 27.634C128.555 27.854 128.493 28.1033 128.493 28.382C128.493 28.69 128.563 28.9577 128.702 29.185C128.841 29.405 129.021 29.5773 129.241 29.702C129.468 29.8193 129.707 29.878 129.956 29.878ZM134.242 31.099C134.044 31.099 133.897 31.066 133.802 31C133.714 30.9413 133.659 30.8643 133.637 30.769C133.615 30.6663 133.604 30.5527 133.604 30.428V26.314C133.604 26.1967 133.615 26.0903 133.637 25.995C133.659 25.8997 133.717 25.8263 133.813 25.775C133.908 25.7163 134.055 25.687 134.253 25.687C134.429 25.687 134.561 25.709 134.649 25.753C134.737 25.797 134.795 25.852 134.825 25.918C134.854 25.984 134.869 26.05 134.869 26.116C134.876 26.182 134.883 26.2333 134.891 26.27L134.847 26.622C134.891 26.5047 134.964 26.391 135.067 26.281C135.169 26.171 135.294 26.072 135.441 25.984C135.587 25.8887 135.745 25.8153 135.914 25.764C136.09 25.7053 136.269 25.676 136.453 25.676C136.797 25.676 137.105 25.7383 137.377 25.863C137.648 25.9877 137.879 26.1637 138.07 26.391C138.268 26.6183 138.418 26.8897 138.521 27.205C138.623 27.513 138.675 27.8613 138.675 28.25V30.439C138.675 30.5637 138.66 30.6773 138.631 30.78C138.609 30.8753 138.554 30.9523 138.466 31.011C138.378 31.0697 138.227 31.099 138.015 31.099C137.809 31.099 137.659 31.066 137.564 31C137.468 30.9413 137.41 30.8643 137.388 30.769C137.366 30.6663 137.355 30.5527 137.355 30.428V28.239C137.355 27.975 137.307 27.7477 137.212 27.557C137.124 27.3663 136.992 27.2197 136.816 27.117C136.647 27.0143 136.431 26.963 136.167 26.963C135.91 26.963 135.686 27.018 135.496 27.128C135.305 27.2307 135.158 27.3773 135.056 27.568C134.953 27.7587 134.902 27.9823 134.902 28.239V30.439C134.902 30.5637 134.891 30.6773 134.869 30.78C134.847 30.8753 134.788 30.9523 134.693 31.011C134.605 31.0697 134.454 31.099 134.242 31.099ZM141.629 31.176C141.438 31.176 141.236 31.154 141.024 31.11C140.811 31.0733 140.606 31.0183 140.408 30.945C140.21 30.8643 140.037 30.7727 139.891 30.67C139.751 30.56 139.663 30.439 139.627 30.307C139.597 30.2337 139.586 30.164 139.594 30.098C139.601 30.0247 139.623 29.9513 139.66 29.878C139.696 29.7973 139.751 29.7167 139.825 29.636C139.891 29.5553 139.957 29.5113 140.023 29.504C140.096 29.4893 140.188 29.5113 140.298 29.57C140.393 29.6067 140.496 29.6543 140.606 29.713C140.723 29.7717 140.84 29.8303 140.958 29.889C141.082 29.9477 141.207 29.9953 141.332 30.032C141.464 30.0687 141.592 30.087 141.717 30.087C141.988 30.087 142.204 30.043 142.366 29.955C142.527 29.8597 142.608 29.7277 142.608 29.559C142.608 29.4637 142.582 29.3793 142.531 29.306C142.479 29.2327 142.41 29.174 142.322 29.13C142.241 29.0787 142.142 29.0347 142.025 28.998C141.915 28.954 141.794 28.9173 141.662 28.888C141.537 28.8513 141.405 28.811 141.266 28.767C141.082 28.7157 140.899 28.6533 140.716 28.58C140.532 28.5067 140.367 28.4113 140.221 28.294C140.081 28.1767 139.968 28.03 139.88 27.854C139.792 27.678 139.748 27.458 139.748 27.194C139.748 26.864 139.825 26.5853 139.979 26.358C140.14 26.1233 140.371 25.9437 140.672 25.819C140.972 25.6943 141.335 25.632 141.761 25.632C141.907 25.632 142.047 25.643 142.179 25.665C142.318 25.687 142.45 25.72 142.575 25.764C142.707 25.8007 142.831 25.8483 142.949 25.907C143.073 25.9657 143.191 26.0317 143.301 26.105C143.484 26.2077 143.579 26.3287 143.587 26.468C143.594 26.6 143.543 26.743 143.433 26.897C143.352 26.9997 143.271 27.073 143.191 27.117C143.11 27.1537 143.026 27.1537 142.938 27.117C142.82 27.0583 142.692 26.996 142.553 26.93C142.421 26.8567 142.281 26.7943 142.135 26.743C141.995 26.6917 141.849 26.666 141.695 26.666C141.548 26.666 141.416 26.688 141.299 26.732C141.181 26.776 141.093 26.8383 141.035 26.919C140.976 26.9997 140.947 27.095 140.947 27.205C140.947 27.3077 140.976 27.392 141.035 27.458C141.093 27.524 141.17 27.579 141.266 27.623C141.361 27.667 141.475 27.7073 141.607 27.744C141.739 27.7733 141.878 27.8027 142.025 27.832C142.23 27.876 142.439 27.931 142.652 27.997C142.864 28.063 143.059 28.1547 143.235 28.272C143.418 28.3893 143.565 28.547 143.675 28.745C143.785 28.9357 143.84 29.185 143.84 29.493C143.84 30.0283 143.642 30.4427 143.246 30.736C142.857 31.0293 142.318 31.176 141.629 31.176ZM147.041 31.099C146.703 31.099 146.392 31.0403 146.106 30.923C145.827 30.7983 145.581 30.6223 145.369 30.395C145.156 30.1677 144.991 29.8963 144.874 29.581C144.756 29.2657 144.698 28.9173 144.698 28.536V26.347C144.698 26.2223 144.709 26.1123 144.731 26.017C144.753 25.9143 144.811 25.8337 144.907 25.775C145.002 25.7163 145.149 25.687 145.347 25.687C145.559 25.687 145.71 25.7163 145.798 25.775C145.893 25.8337 145.952 25.9143 145.974 26.017C145.996 26.1197 146.007 26.2333 146.007 26.358V28.536C146.007 28.8 146.051 29.0273 146.139 29.218C146.234 29.4087 146.37 29.559 146.546 29.669C146.722 29.7717 146.938 29.823 147.195 29.823C147.459 29.823 147.682 29.7717 147.866 29.669C148.056 29.559 148.203 29.4087 148.306 29.218C148.408 29.02 148.46 28.7927 148.46 28.536V26.336C148.46 26.2113 148.471 26.1013 148.493 26.006C148.515 25.9033 148.573 25.8263 148.669 25.775C148.764 25.7163 148.914 25.687 149.12 25.687C149.325 25.687 149.472 25.7163 149.56 25.775C149.648 25.8337 149.703 25.9143 149.725 26.017C149.754 26.1197 149.769 26.2297 149.769 26.347V30.472C149.769 30.582 149.754 30.6847 149.725 30.78C149.703 30.8753 149.644 30.9523 149.549 31.011C149.461 31.0697 149.314 31.099 149.109 31.099C148.962 31.099 148.845 31.0807 148.757 31.044C148.676 31.0147 148.614 30.9743 148.57 30.923C148.533 30.8643 148.507 30.8057 148.493 30.747C148.485 30.6883 148.482 30.6297 148.482 30.571L148.57 30.274C148.526 30.34 148.46 30.4207 148.372 30.516C148.284 30.604 148.174 30.6957 148.042 30.791C147.917 30.879 147.77 30.9523 147.602 31.011C147.433 31.0697 147.246 31.099 147.041 31.099ZM151.493 31.099C151.295 31.099 151.149 31.0697 151.053 31.011C150.965 30.9523 150.91 30.8717 150.888 30.769C150.866 30.6663 150.855 30.5563 150.855 30.439V26.325C150.855 26.2077 150.866 26.1013 150.888 26.006C150.91 25.9107 150.969 25.8337 151.064 25.775C151.16 25.7163 151.31 25.687 151.515 25.687C151.728 25.687 151.882 25.731 151.977 25.819C152.08 25.907 152.131 26.0463 152.131 26.237L152.032 26.545C152.069 26.4643 152.131 26.3763 152.219 26.281C152.307 26.1857 152.414 26.0903 152.538 25.995C152.67 25.8997 152.817 25.8227 152.978 25.764C153.14 25.7053 153.308 25.676 153.484 25.676C153.726 25.676 153.946 25.7163 154.144 25.797C154.35 25.8777 154.529 25.995 154.683 26.149C154.845 26.303 154.984 26.49 155.101 26.71C155.226 26.5193 155.365 26.347 155.519 26.193C155.673 26.0317 155.853 25.907 156.058 25.819C156.264 25.7237 156.495 25.676 156.751 25.676C157.177 25.676 157.532 25.7823 157.818 25.995C158.112 26.2077 158.332 26.512 158.478 26.908C158.632 27.2967 158.709 27.7623 158.709 28.305V30.439C158.709 30.5637 158.695 30.6773 158.665 30.78C158.643 30.8753 158.585 30.9523 158.489 31.011C158.401 31.0697 158.255 31.099 158.049 31.099C157.844 31.099 157.694 31.066 157.598 31C157.503 30.9413 157.444 30.8643 157.422 30.769C157.4 30.6663 157.389 30.5527 157.389 30.428V28.294C157.389 28.0227 157.356 27.788 157.29 27.59C157.224 27.392 157.125 27.238 156.993 27.128C156.869 27.018 156.704 26.963 156.498 26.963C156.278 26.963 156.088 27.018 155.926 27.128C155.772 27.2307 155.651 27.381 155.563 27.579C155.475 27.777 155.431 28.019 155.431 28.305V30.45C155.431 30.5747 155.413 30.692 155.376 30.802C155.34 30.9047 155.266 30.9817 155.156 31.033C155.054 31.0917 154.903 31.1137 154.705 31.099C154.522 31.0917 154.386 31.055 154.298 30.989C154.218 30.923 154.166 30.8423 154.144 30.747C154.13 30.6443 154.122 30.538 154.122 30.428V28.294C154.122 28.0227 154.089 27.788 154.023 27.59C153.957 27.3847 153.858 27.2307 153.726 27.128C153.602 27.018 153.433 26.963 153.22 26.963C152.993 26.963 152.799 27.0217 152.637 27.139C152.483 27.2563 152.366 27.414 152.285 27.612C152.205 27.81 152.164 28.0373 152.164 28.294V30.45C152.164 30.5673 152.15 30.6773 152.12 30.78C152.098 30.8827 152.04 30.9597 151.944 31.011C151.856 31.0697 151.706 31.099 151.493 31.099ZM162.597 31.033C162.238 31.033 161.915 30.967 161.629 30.835C161.351 30.6957 161.112 30.505 160.914 30.263C160.724 30.0137 160.577 29.7277 160.474 29.405C160.379 29.0823 160.331 28.734 160.331 28.36C160.339 27.986 160.394 27.6377 160.496 27.315C160.599 26.985 160.746 26.699 160.936 26.457C161.134 26.215 161.373 26.0243 161.651 25.885C161.93 25.7457 162.245 25.676 162.597 25.676C162.935 25.676 163.25 25.7457 163.543 25.885C163.844 26.0243 164.108 26.2187 164.335 26.468C164.57 26.7173 164.753 27.007 164.885 27.337C165.017 27.6597 165.083 28.008 165.083 28.382C165.083 28.7633 165.017 29.1153 164.885 29.438C164.753 29.7607 164.574 30.043 164.346 30.285C164.119 30.5197 163.855 30.703 163.554 30.835C163.254 30.967 162.935 31.033 162.597 31.033ZM160.397 33.321C160.199 33.321 160.053 33.2917 159.957 33.233C159.862 33.1743 159.803 33.0973 159.781 33.002C159.759 32.9067 159.748 32.7967 159.748 32.672V26.347C159.748 26.2223 159.759 26.1123 159.781 26.017C159.803 25.9217 159.858 25.8447 159.946 25.786C160.042 25.72 160.188 25.687 160.386 25.687C160.577 25.687 160.727 25.7163 160.837 25.775C160.947 25.8337 161.021 25.9327 161.057 26.072V32.661C161.065 32.7857 161.054 32.8957 161.024 32.991C161.002 33.0937 160.944 33.1743 160.848 33.233C160.753 33.2917 160.603 33.321 160.397 33.321ZM162.421 29.801C162.678 29.801 162.909 29.7423 163.114 29.625C163.32 29.5003 163.481 29.3317 163.598 29.119C163.723 28.899 163.785 28.6533 163.785 28.382C163.785 28.1033 163.723 27.8577 163.598 27.645C163.481 27.4323 163.32 27.2673 163.114 27.15C162.909 27.0253 162.678 26.963 162.421 26.963C162.172 26.963 161.945 27.0253 161.739 27.15C161.534 27.2747 161.369 27.4433 161.244 27.656C161.127 27.8613 161.068 28.1033 161.068 28.382C161.068 28.6533 161.127 28.899 161.244 29.119C161.369 29.3317 161.534 29.5003 161.739 29.625C161.945 29.7423 162.172 29.801 162.421 29.801ZM168.578 31.11C168.219 31.11 167.911 31.0733 167.654 31C167.397 30.9267 167.188 30.813 167.027 30.659C166.866 30.505 166.745 30.307 166.664 30.065C166.591 29.8157 166.554 29.5223 166.554 29.185V24.521C166.554 24.389 166.565 24.2753 166.587 24.18C166.616 24.0847 166.675 24.0113 166.763 23.96C166.858 23.9013 167.005 23.872 167.203 23.872C167.408 23.872 167.555 23.9013 167.643 23.96C167.738 24.0187 167.797 24.0993 167.819 24.202C167.848 24.2973 167.863 24.4037 167.863 24.521V29.141C167.863 29.295 167.874 29.4197 167.896 29.515C167.925 29.6103 167.966 29.6837 168.017 29.735C168.076 29.779 168.149 29.812 168.237 29.834C168.332 29.8487 168.446 29.856 168.578 29.856C168.717 29.856 168.835 29.867 168.93 29.889C169.033 29.911 169.11 29.966 169.161 30.054C169.212 30.1347 169.238 30.2703 169.238 30.461C169.238 30.6663 169.205 30.8167 169.139 30.912C169.08 31 169 31.055 168.897 31.077C168.802 31.099 168.695 31.11 168.578 31.11ZM166.103 25.797L167.236 25.808L168.754 25.764C168.879 25.764 168.989 25.7787 169.084 25.808C169.187 25.83 169.267 25.8887 169.326 25.984C169.385 26.072 169.414 26.2187 169.414 26.424C169.414 26.6147 169.385 26.7577 169.326 26.853C169.267 26.9483 169.19 27.0107 169.095 27.04C169 27.062 168.89 27.073 168.765 27.073L167.291 27.051L166.07 27.062C165.887 27.0547 165.758 27.0033 165.685 26.908C165.619 26.8053 165.586 26.6403 165.586 26.413C165.586 26.2003 165.626 26.0463 165.707 25.951C165.795 25.8483 165.927 25.797 166.103 25.797ZM170.938 31.11C170.74 31.11 170.593 31.077 170.498 31.011C170.403 30.9523 170.344 30.8753 170.322 30.78C170.3 30.6773 170.289 30.5637 170.289 30.439V26.347C170.289 26.2297 170.3 26.1233 170.322 26.028C170.351 25.9253 170.41 25.8447 170.498 25.786C170.593 25.7273 170.744 25.698 170.949 25.698C171.154 25.698 171.301 25.7273 171.389 25.786C171.484 25.8447 171.543 25.9253 171.565 26.028C171.587 26.1307 171.598 26.2443 171.598 26.369V30.45C171.598 30.5747 171.587 30.6883 171.565 30.791C171.543 30.8863 171.484 30.9633 171.389 31.022C171.301 31.0807 171.151 31.11 170.938 31.11ZM170.938 24.631C170.725 24.631 170.568 24.6017 170.465 24.543C170.37 24.477 170.307 24.389 170.278 24.279C170.256 24.169 170.245 24.048 170.245 23.916C170.245 23.7767 170.256 23.6557 170.278 23.553C170.307 23.4503 170.373 23.3697 170.476 23.311C170.579 23.245 170.736 23.212 170.949 23.212C171.169 23.212 171.327 23.245 171.422 23.311C171.517 23.377 171.58 23.465 171.609 23.575C171.638 23.6777 171.653 23.7987 171.653 23.938C171.653 24.0627 171.638 24.18 171.609 24.29C171.58 24.4 171.517 24.4843 171.422 24.543C171.327 24.6017 171.165 24.631 170.938 24.631ZM175.278 31.176C174.926 31.176 174.581 31.11 174.244 30.978C173.914 30.8387 173.613 30.6443 173.342 30.395C173.078 30.1457 172.865 29.8523 172.704 29.515C172.55 29.1777 172.473 28.8073 172.473 28.404C172.473 28.0153 172.546 27.6523 172.693 27.315C172.839 26.9777 173.041 26.6807 173.298 26.424C173.554 26.1673 173.848 25.9693 174.178 25.83C174.515 25.6833 174.874 25.61 175.256 25.61C175.769 25.61 176.235 25.7347 176.653 25.984C177.071 26.226 177.404 26.556 177.654 26.974C177.903 27.392 178.028 27.865 178.028 28.393C178.028 28.811 177.951 29.1923 177.797 29.537C177.643 29.8743 177.434 30.1677 177.17 30.417C176.906 30.659 176.609 30.846 176.279 30.978C175.956 31.11 175.622 31.176 175.278 31.176ZM175.256 29.878C175.498 29.878 175.729 29.8193 175.949 29.702C176.176 29.5773 176.359 29.4013 176.499 29.174C176.645 28.9467 176.719 28.679 176.719 28.371C176.719 28.085 176.653 27.832 176.521 27.612C176.396 27.392 176.224 27.2197 176.004 27.095C175.784 26.9703 175.531 26.908 175.245 26.908C174.973 26.908 174.728 26.974 174.508 27.106C174.288 27.2307 174.112 27.4067 173.98 27.634C173.855 27.854 173.793 28.1033 173.793 28.382C173.793 28.69 173.862 28.9577 174.002 29.185C174.141 29.405 174.321 29.5773 174.541 29.702C174.768 29.8193 175.006 29.878 175.256 29.878ZM179.541 31.099C179.343 31.099 179.197 31.066 179.101 31C179.013 30.9413 178.958 30.8643 178.936 30.769C178.914 30.6663 178.903 30.5527 178.903 30.428V26.314C178.903 26.1967 178.914 26.0903 178.936 25.995C178.958 25.8997 179.017 25.8263 179.112 25.775C179.208 25.7163 179.354 25.687 179.552 25.687C179.728 25.687 179.86 25.709 179.948 25.753C180.036 25.797 180.095 25.852 180.124 25.918C180.154 25.984 180.168 26.05 180.168 26.116C180.176 26.182 180.183 26.2333 180.19 26.27L180.146 26.622C180.19 26.5047 180.264 26.391 180.366 26.281C180.469 26.171 180.594 26.072 180.74 25.984C180.887 25.8887 181.045 25.8153 181.213 25.764C181.389 25.7053 181.569 25.676 181.752 25.676C182.097 25.676 182.405 25.7383 182.676 25.863C182.948 25.9877 183.179 26.1637 183.369 26.391C183.567 26.6183 183.718 26.8897 183.82 27.205C183.923 27.513 183.974 27.8613 183.974 28.25V30.439C183.974 30.5637 183.96 30.6773 183.93 30.78C183.908 30.8753 183.853 30.9523 183.765 31.011C183.677 31.0697 183.527 31.099 183.314 31.099C183.109 31.099 182.959 31.066 182.863 31C182.768 30.9413 182.709 30.8643 182.687 30.769C182.665 30.6663 182.654 30.5527 182.654 30.428V28.239C182.654 27.975 182.607 27.7477 182.511 27.557C182.423 27.3663 182.291 27.2197 182.115 27.117C181.947 27.0143 181.73 26.963 181.466 26.963C181.21 26.963 180.986 27.018 180.795 27.128C180.605 27.2307 180.458 27.3773 180.355 27.568C180.253 27.7587 180.201 27.9823 180.201 28.239V30.439C180.201 30.5637 180.19 30.6773 180.168 30.78C180.146 30.8753 180.088 30.9523 179.992 31.011C179.904 31.0697 179.754 31.099 179.541 31.099ZM190.252 31.176C189.9 31.176 189.556 31.11 189.218 30.978C188.888 30.8387 188.588 30.6443 188.316 30.395C188.052 30.1457 187.84 29.8523 187.678 29.515C187.524 29.1777 187.447 28.8073 187.447 28.404C187.447 28.0153 187.521 27.6523 187.667 27.315C187.814 26.9777 188.016 26.6807 188.272 26.424C188.529 26.1673 188.822 25.9693 189.152 25.83C189.49 25.6833 189.849 25.61 190.23 25.61C190.744 25.61 191.209 25.7347 191.627 25.984C192.045 26.226 192.379 26.556 192.628 26.974C192.878 27.392 193.002 27.865 193.002 28.393C193.002 28.811 192.925 29.1923 192.771 29.537C192.617 29.8743 192.408 30.1677 192.144 30.417C191.88 30.659 191.583 30.846 191.253 30.978C190.931 31.11 190.597 31.176 190.252 31.176ZM190.23 29.878C190.472 29.878 190.703 29.8193 190.923 29.702C191.151 29.5773 191.334 29.4013 191.473 29.174C191.62 28.9467 191.693 28.679 191.693 28.371C191.693 28.085 191.627 27.832 191.495 27.612C191.371 27.392 191.198 27.2197 190.978 27.095C190.758 26.9703 190.505 26.908 190.219 26.908C189.948 26.908 189.702 26.974 189.482 27.106C189.262 27.2307 189.086 27.4067 188.954 27.634C188.83 27.854 188.767 28.1033 188.767 28.382C188.767 28.69 188.837 28.9577 188.976 29.185C189.116 29.405 189.295 29.5773 189.515 29.702C189.743 29.8193 189.981 29.878 190.23 29.878ZM195.987 31.132C195.833 31.132 195.705 31.1063 195.602 31.055C195.499 31.0037 195.419 30.9193 195.36 30.802L193.358 26.611C193.248 26.391 193.219 26.215 193.27 26.083C193.321 25.951 193.453 25.8337 193.666 25.731C193.886 25.621 194.062 25.5843 194.194 25.621C194.326 25.6577 194.443 25.7933 194.546 26.028L195.987 29.405L197.406 26.094C197.509 25.852 197.626 25.7017 197.758 25.643C197.89 25.577 198.081 25.6063 198.33 25.731C198.579 25.8557 198.711 25.995 198.726 26.149C198.741 26.2957 198.7 26.4643 198.605 26.655L196.614 30.802C196.555 30.912 196.475 30.9927 196.372 31.044C196.269 31.1027 196.141 31.132 195.987 31.132ZM201.878 31.176C201.401 31.176 200.983 31.099 200.624 30.945C200.272 30.791 199.975 30.582 199.733 30.318C199.498 30.0467 199.318 29.746 199.194 29.416C199.076 29.0787 199.018 28.7303 199.018 28.371C199.018 27.843 199.139 27.3737 199.381 26.963C199.623 26.5523 199.956 26.2297 200.382 25.995C200.814 25.7603 201.309 25.643 201.867 25.643C202.263 25.643 202.611 25.7053 202.912 25.83C203.212 25.9547 203.462 26.1197 203.66 26.325C203.865 26.523 204.019 26.743 204.122 26.985C204.232 27.227 204.287 27.4617 204.287 27.689C204.287 28.0777 204.191 28.36 204.001 28.536C203.817 28.712 203.586 28.8 203.308 28.8H200.404C200.411 29.0493 200.488 29.2657 200.635 29.449C200.789 29.6323 200.979 29.7753 201.207 29.878C201.441 29.9733 201.68 30.021 201.921 30.021C202.105 30.021 202.266 30.01 202.406 29.988C202.552 29.966 202.677 29.9403 202.78 29.911C202.882 29.8743 202.97 29.8377 203.044 29.801C203.124 29.7643 203.198 29.7313 203.264 29.702C203.33 29.6727 203.392 29.6543 203.451 29.647C203.531 29.6397 203.612 29.658 203.693 29.702C203.773 29.746 203.839 29.823 203.891 29.933C203.935 30.0063 203.964 30.076 203.979 30.142C204.001 30.2007 204.012 30.2593 204.012 30.318C204.012 30.4647 203.924 30.604 203.748 30.736C203.572 30.8607 203.322 30.9633 203 31.044C202.684 31.132 202.31 31.176 201.878 31.176ZM200.404 28.019H202.659C202.783 28.019 202.879 28.0007 202.945 27.964C203.011 27.92 203.044 27.832 203.044 27.7C203.044 27.5313 202.992 27.381 202.89 27.249C202.787 27.1097 202.648 27.0033 202.472 26.93C202.296 26.8493 202.09 26.809 201.856 26.809C201.584 26.809 201.339 26.864 201.119 26.974C200.899 27.0767 200.723 27.2197 200.591 27.403C200.466 27.5863 200.404 27.7917 200.404 28.019ZM205.838 31.11C205.64 31.11 205.494 31.077 205.398 31.011C205.31 30.9523 205.255 30.8717 205.233 30.769C205.211 30.6663 205.2 30.5527 205.2 30.428V26.347C205.2 26.215 205.211 26.1013 205.233 26.006C205.255 25.9033 205.31 25.8263 205.398 25.775C205.494 25.7163 205.644 25.687 205.849 25.687C206.047 25.687 206.19 25.7127 206.278 25.764C206.374 25.8153 206.432 25.8813 206.454 25.962C206.484 26.0353 206.498 26.1087 206.498 26.182L206.41 26.38C206.447 26.3213 206.498 26.2517 206.564 26.171C206.63 26.083 206.718 25.9987 206.828 25.918C206.938 25.83 207.07 25.7603 207.224 25.709C207.378 25.6503 207.562 25.621 207.774 25.621C207.862 25.621 207.954 25.632 208.049 25.654C208.152 25.6687 208.251 25.6943 208.346 25.731C208.449 25.7603 208.541 25.8007 208.621 25.852C208.702 25.9033 208.764 25.9657 208.808 26.039C208.852 26.105 208.874 26.182 208.874 26.27C208.874 26.5047 208.816 26.7027 208.698 26.864C208.581 27.0253 208.442 27.106 208.28 27.106C208.17 27.106 208.09 27.095 208.038 27.073C207.987 27.051 207.943 27.0253 207.906 26.996C207.877 26.9667 207.829 26.941 207.763 26.919C207.705 26.897 207.609 26.886 207.477 26.886C207.367 26.886 207.254 26.9043 207.136 26.941C207.026 26.9777 206.924 27.0327 206.828 27.106C206.733 27.1793 206.656 27.2747 206.597 27.392C206.539 27.502 206.509 27.6303 206.509 27.777V30.45C206.509 30.5747 206.498 30.6883 206.476 30.791C206.454 30.8863 206.396 30.9633 206.3 31.022C206.205 31.0807 206.051 31.11 205.838 31.11ZM215.016 31.11C214.657 31.11 214.349 31.0733 214.092 31C213.836 30.9267 213.627 30.813 213.465 30.659C213.304 30.505 213.183 30.307 213.102 30.065C213.029 29.8157 212.992 29.5223 212.992 29.185V24.521C212.992 24.389 213.003 24.2753 213.025 24.18C213.055 24.0847 213.113 24.0113 213.201 23.96C213.297 23.9013 213.443 23.872 213.641 23.872C213.847 23.872 213.993 23.9013 214.081 23.96C214.177 24.0187 214.235 24.0993 214.257 24.202C214.287 24.2973 214.301 24.4037 214.301 24.521V29.141C214.301 29.295 214.312 29.4197 214.334 29.515C214.364 29.6103 214.404 29.6837 214.455 29.735C214.514 29.779 214.587 29.812 214.675 29.834C214.771 29.8487 214.884 29.856 215.016 29.856C215.156 29.856 215.273 29.867 215.368 29.889C215.471 29.911 215.548 29.966 215.599 30.054C215.651 30.1347 215.676 30.2703 215.676 30.461C215.676 30.6663 215.643 30.8167 215.577 30.912C215.519 31 215.438 31.055 215.335 31.077C215.24 31.099 215.134 31.11 215.016 31.11ZM212.541 25.797L213.674 25.808L215.192 25.764C215.317 25.764 215.427 25.7787 215.522 25.808C215.625 25.83 215.706 25.8887 215.764 25.984C215.823 26.072 215.852 26.2187 215.852 26.424C215.852 26.6147 215.823 26.7577 215.764 26.853C215.706 26.9483 215.629 27.0107 215.533 27.04C215.438 27.062 215.328 27.073 215.203 27.073L213.729 27.051L212.508 27.062C212.325 27.0547 212.197 27.0033 212.123 26.908C212.057 26.8053 212.024 26.6403 212.024 26.413C212.024 26.2003 212.065 26.0463 212.145 25.951C212.233 25.8483 212.365 25.797 212.541 25.797ZM217.267 31.11C217.061 31.11 216.911 31.077 216.816 31.011C216.728 30.9523 216.673 30.8717 216.651 30.769C216.629 30.6663 216.618 30.5563 216.618 30.439V23.872C216.618 23.7473 216.629 23.6373 216.651 23.542C216.68 23.4393 216.739 23.3587 216.827 23.3C216.922 23.2413 217.072 23.212 217.278 23.212C217.483 23.212 217.63 23.245 217.718 23.311C217.813 23.3697 217.872 23.4503 217.894 23.553C217.923 23.6483 217.938 23.7583 217.938 23.883V26.369C218.084 26.2003 218.271 26.0463 218.499 25.907C218.733 25.7603 219.016 25.687 219.346 25.687C219.793 25.687 220.193 25.797 220.545 26.017C220.897 26.2297 221.175 26.5267 221.381 26.908C221.586 27.2893 221.689 27.7367 221.689 28.25V30.45C221.689 30.5673 221.678 30.6773 221.656 30.78C221.634 30.8753 221.575 30.9523 221.48 31.011C221.392 31.0697 221.245 31.099 221.04 31.099C220.834 31.099 220.684 31.0697 220.589 31.011C220.493 30.9523 220.435 30.8753 220.413 30.78C220.391 30.6773 220.38 30.56 220.38 30.428V28.239C220.38 27.9823 220.336 27.7587 220.248 27.568C220.16 27.3773 220.028 27.2307 219.852 27.128C219.683 27.018 219.47 26.963 219.214 26.963C218.869 26.963 218.579 27.0657 218.345 27.271C218.11 27.469 217.974 27.7257 217.938 28.041V30.45C217.938 30.5673 217.923 30.6773 217.894 30.78C217.872 30.8827 217.813 30.9633 217.718 31.022C217.63 31.0807 217.479 31.11 217.267 31.11ZM225.285 31.176C224.808 31.176 224.39 31.099 224.031 30.945C223.679 30.791 223.382 30.582 223.14 30.318C222.905 30.0467 222.725 29.746 222.601 29.416C222.483 29.0787 222.425 28.7303 222.425 28.371C222.425 27.843 222.546 27.3737 222.788 26.963C223.03 26.5523 223.363 26.2297 223.789 25.995C224.221 25.7603 224.716 25.643 225.274 25.643C225.67 25.643 226.018 25.7053 226.319 25.83C226.619 25.9547 226.869 26.1197 227.067 26.325C227.272 26.523 227.426 26.743 227.529 26.985C227.639 27.227 227.694 27.4617 227.694 27.689C227.694 28.0777 227.598 28.36 227.408 28.536C227.224 28.712 226.993 28.8 226.715 28.8H223.811C223.818 29.0493 223.895 29.2657 224.042 29.449C224.196 29.6323 224.386 29.7753 224.614 29.878C224.848 29.9733 225.087 30.021 225.329 30.021C225.512 30.021 225.673 30.01 225.813 29.988C225.959 29.966 226.084 29.9403 226.187 29.911C226.289 29.8743 226.377 29.8377 226.451 29.801C226.531 29.7643 226.605 29.7313 226.671 29.702C226.737 29.6727 226.799 29.6543 226.858 29.647C226.938 29.6397 227.019 29.658 227.1 29.702C227.18 29.746 227.246 29.823 227.298 29.933C227.342 30.0063 227.371 30.076 227.386 30.142C227.408 30.2007 227.419 30.2593 227.419 30.318C227.419 30.4647 227.331 30.604 227.155 30.736C226.979 30.8607 226.729 30.9633 226.407 31.044C226.091 31.132 225.717 31.176 225.285 31.176ZM223.811 28.019H226.066C226.19 28.019 226.286 28.0007 226.352 27.964C226.418 27.92 226.451 27.832 226.451 27.7C226.451 27.5313 226.399 27.381 226.297 27.249C226.194 27.1097 226.055 27.0033 225.879 26.93C225.703 26.8493 225.497 26.809 225.263 26.809C224.991 26.809 224.746 26.864 224.526 26.974C224.306 27.0767 224.13 27.2197 223.998 27.403C223.873 27.5863 223.811 27.7917 223.811 28.019ZM233.217 31.11C232.946 31.11 232.704 31.0917 232.491 31.055C232.286 31.0183 232.106 30.956 231.952 30.868C231.805 30.78 231.684 30.6627 231.589 30.516C231.494 30.362 231.42 30.175 231.369 29.955C231.325 29.735 231.303 29.471 231.303 29.163V23.861C231.303 23.7363 231.314 23.6263 231.336 23.531C231.365 23.4283 231.424 23.3477 231.512 23.289C231.607 23.223 231.758 23.19 231.963 23.19C232.168 23.19 232.315 23.2193 232.403 23.278C232.498 23.3367 232.557 23.4173 232.579 23.52C232.608 23.6153 232.623 23.7253 232.623 23.85V29.108C232.623 29.2473 232.63 29.3647 232.645 29.46C232.667 29.548 232.7 29.6213 232.744 29.68C232.795 29.7313 232.858 29.768 232.931 29.79C233.012 29.812 233.107 29.823 233.217 29.823C233.312 29.823 233.397 29.834 233.47 29.856C233.551 29.878 233.613 29.933 233.657 30.021C233.708 30.109 233.734 30.252 233.734 30.45C233.734 30.6553 233.708 30.8057 233.657 30.901C233.613 30.9963 233.551 31.055 233.47 31.077C233.389 31.099 233.305 31.11 233.217 31.11ZM239.036 31.088C238.823 31.088 238.666 31.0477 238.563 30.967C238.46 30.8863 238.409 30.7763 238.409 30.637L238.486 30.274C238.427 30.3693 238.328 30.483 238.189 30.615C238.05 30.7397 237.866 30.8533 237.639 30.956C237.412 31.0513 237.137 31.099 236.814 31.099C236.469 31.099 236.143 31.0293 235.835 30.89C235.534 30.7433 235.267 30.5453 235.032 30.296C234.805 30.0393 234.621 29.7497 234.482 29.427C234.35 29.097 234.284 28.745 234.284 28.371C234.284 28.0117 234.35 27.6743 234.482 27.359C234.621 27.0363 234.808 26.7503 235.043 26.501C235.278 26.2517 235.545 26.0573 235.846 25.918C236.154 25.7713 236.477 25.698 236.814 25.698C237.115 25.698 237.368 25.7383 237.573 25.819C237.786 25.8997 237.965 26.0023 238.112 26.127C238.259 26.2443 238.38 26.369 238.475 26.501L238.409 26.182C238.409 26.0207 238.46 25.8997 238.563 25.819C238.666 25.731 238.827 25.687 239.047 25.687C239.252 25.687 239.399 25.72 239.487 25.786C239.575 25.8447 239.63 25.929 239.652 26.039C239.674 26.1417 239.685 26.259 239.685 26.391V30.417C239.685 30.5417 239.674 30.6553 239.652 30.758C239.63 30.8607 239.571 30.9413 239.476 31C239.388 31.0587 239.241 31.088 239.036 31.088ZM237.012 29.812C237.261 29.812 237.485 29.7497 237.683 29.625C237.881 29.5003 238.039 29.3317 238.156 29.119C238.281 28.899 238.343 28.657 238.343 28.393C238.343 28.107 238.281 27.8577 238.156 27.645C238.031 27.4323 237.866 27.2673 237.661 27.15C237.463 27.0253 237.239 26.963 236.99 26.963C236.719 26.963 236.477 27.029 236.264 27.161C236.051 27.2857 235.883 27.458 235.758 27.678C235.641 27.8907 235.582 28.1327 235.582 28.404C235.582 28.668 235.644 28.9063 235.769 29.119C235.894 29.3317 236.062 29.5003 236.275 29.625C236.495 29.7497 236.741 29.812 237.012 29.812ZM242.67 31.176C242.479 31.176 242.277 31.154 242.065 31.11C241.852 31.0733 241.647 31.0183 241.449 30.945C241.251 30.8643 241.078 30.7727 240.932 30.67C240.792 30.56 240.704 30.439 240.668 30.307C240.638 30.2337 240.627 30.164 240.635 30.098C240.642 30.0247 240.664 29.9513 240.701 29.878C240.737 29.7973 240.792 29.7167 240.866 29.636C240.932 29.5553 240.998 29.5113 241.064 29.504C241.137 29.4893 241.229 29.5113 241.339 29.57C241.434 29.6067 241.537 29.6543 241.647 29.713C241.764 29.7717 241.881 29.8303 241.999 29.889C242.123 29.9477 242.248 29.9953 242.373 30.032C242.505 30.0687 242.633 30.087 242.758 30.087C243.029 30.087 243.245 30.043 243.407 29.955C243.568 29.8597 243.649 29.7277 243.649 29.559C243.649 29.4637 243.623 29.3793 243.572 29.306C243.52 29.2327 243.451 29.174 243.363 29.13C243.282 29.0787 243.183 29.0347 243.066 28.998C242.956 28.954 242.835 28.9173 242.703 28.888C242.578 28.8513 242.446 28.811 242.307 28.767C242.123 28.7157 241.94 28.6533 241.757 28.58C241.573 28.5067 241.408 28.4113 241.262 28.294C241.122 28.1767 241.009 28.03 240.921 27.854C240.833 27.678 240.789 27.458 240.789 27.194C240.789 26.864 240.866 26.5853 241.02 26.358C241.181 26.1233 241.412 25.9437 241.713 25.819C242.013 25.6943 242.376 25.632 242.802 25.632C242.948 25.632 243.088 25.643 243.22 25.665C243.359 25.687 243.491 25.72 243.616 25.764C243.748 25.8007 243.872 25.8483 243.99 25.907C244.114 25.9657 244.232 26.0317 244.342 26.105C244.525 26.2077 244.62 26.3287 244.628 26.468C244.635 26.6 244.584 26.743 244.474 26.897C244.393 26.9997 244.312 27.073 244.232 27.117C244.151 27.1537 244.067 27.1537 243.979 27.117C243.861 27.0583 243.733 26.996 243.594 26.93C243.462 26.8567 243.322 26.7943 243.176 26.743C243.036 26.6917 242.89 26.666 242.736 26.666C242.589 26.666 242.457 26.688 242.34 26.732C242.222 26.776 242.134 26.8383 242.076 26.919C242.017 26.9997 241.988 27.095 241.988 27.205C241.988 27.3077 242.017 27.392 242.076 27.458C242.134 27.524 242.211 27.579 242.307 27.623C242.402 27.667 242.516 27.7073 242.648 27.744C242.78 27.7733 242.919 27.8027 243.066 27.832C243.271 27.876 243.48 27.931 243.693 27.997C243.905 28.063 244.1 28.1547 244.276 28.272C244.459 28.3893 244.606 28.547 244.716 28.745C244.826 28.9357 244.881 29.185 244.881 29.493C244.881 30.0283 244.683 30.4427 244.287 30.736C243.898 31.0293 243.359 31.176 242.67 31.176ZM248.339 31.11C247.979 31.11 247.671 31.0733 247.415 31C247.158 30.9267 246.949 30.813 246.788 30.659C246.626 30.505 246.505 30.307 246.425 30.065C246.351 29.8157 246.315 29.5223 246.315 29.185V24.521C246.315 24.389 246.326 24.2753 246.348 24.18C246.377 24.0847 246.436 24.0113 246.524 23.96C246.619 23.9013 246.766 23.872 246.964 23.872C247.169 23.872 247.316 23.9013 247.404 23.96C247.499 24.0187 247.558 24.0993 247.58 24.202C247.609 24.2973 247.624 24.4037 247.624 24.521V29.141C247.624 29.295 247.635 29.4197 247.657 29.515C247.686 29.6103 247.726 29.6837 247.778 29.735C247.836 29.779 247.91 29.812 247.998 29.834C248.093 29.8487 248.207 29.856 248.339 29.856C248.478 29.856 248.595 29.867 248.691 29.889C248.793 29.911 248.87 29.966 248.922 30.054C248.973 30.1347 248.999 30.2703 248.999 30.461C248.999 30.6663 248.966 30.8167 248.9 30.912C248.841 31 248.76 31.055 248.658 31.077C248.562 31.099 248.456 31.11 248.339 31.11ZM245.864 25.797L246.997 25.808L248.515 25.764C248.639 25.764 248.749 25.7787 248.845 25.808C248.947 25.83 249.028 25.8887 249.087 25.984C249.145 26.072 249.175 26.2187 249.175 26.424C249.175 26.6147 249.145 26.7577 249.087 26.853C249.028 26.9483 248.951 27.0107 248.856 27.04C248.76 27.062 248.65 27.073 248.526 27.073L247.052 27.051L245.831 27.062C245.647 27.0547 245.519 27.0033 245.446 26.908C245.38 26.8053 245.347 26.6403 245.347 26.413C245.347 26.2003 245.387 26.0463 245.468 25.951C245.556 25.8483 245.688 25.797 245.864 25.797ZM255.33 31.176C254.942 31.176 254.582 31.1173 254.252 31C253.922 30.8753 253.629 30.7103 253.372 30.505C253.116 30.2923 252.914 30.0503 252.767 29.779C252.628 29.5077 252.551 29.2253 252.536 28.932C252.536 28.6093 252.775 28.448 253.251 28.448C253.398 28.448 253.508 28.4627 253.581 28.492C253.655 28.5213 253.713 28.5763 253.757 28.657C253.801 28.7377 253.845 28.8477 253.889 28.987C253.941 29.1337 254.025 29.2767 254.142 29.416C254.267 29.5553 254.428 29.6727 254.626 29.768C254.824 29.856 255.063 29.9 255.341 29.9C255.642 29.9 255.902 29.8523 256.122 29.757C256.342 29.6543 256.511 29.515 256.628 29.339C256.753 29.163 256.815 28.9613 256.815 28.734C256.815 28.5067 256.753 28.3123 256.628 28.151C256.511 27.9823 256.35 27.854 256.144 27.766C255.939 27.6707 255.704 27.623 255.44 27.623C255.301 27.623 255.176 27.612 255.066 27.59C254.964 27.568 254.879 27.513 254.813 27.425C254.755 27.337 254.725 27.1903 254.725 26.985C254.725 26.7723 254.755 26.6257 254.813 26.545C254.879 26.457 254.967 26.402 255.077 26.38C255.187 26.358 255.312 26.347 255.451 26.347C255.701 26.347 255.906 26.314 256.067 26.248C256.236 26.182 256.364 26.0903 256.452 25.973C256.54 25.8557 256.584 25.7237 256.584 25.577C256.584 25.379 256.537 25.2067 256.441 25.06C256.346 24.906 256.21 24.7887 256.034 24.708C255.866 24.62 255.664 24.576 255.429 24.576C255.217 24.576 255.033 24.6053 254.879 24.664C254.725 24.7153 254.59 24.7923 254.472 24.895C254.362 24.9977 254.26 25.1223 254.164 25.269C254.054 25.4817 253.926 25.6063 253.779 25.643C253.64 25.6797 253.457 25.632 253.229 25.5C253.046 25.39 252.936 25.2727 252.899 25.148C252.863 25.016 252.888 24.8657 252.976 24.697C252.998 24.6457 253.039 24.5687 253.097 24.466C253.163 24.356 253.255 24.2387 253.372 24.114C253.497 23.982 253.647 23.8573 253.823 23.74C253.999 23.6153 254.216 23.5127 254.472 23.432C254.729 23.3513 255.026 23.311 255.363 23.311C255.774 23.311 256.137 23.377 256.452 23.509C256.768 23.6337 257.035 23.8023 257.255 24.015C257.475 24.2203 257.64 24.455 257.75 24.719C257.868 24.9757 257.926 25.2433 257.926 25.522C257.926 25.7713 257.879 25.995 257.783 26.193C257.688 26.391 257.571 26.556 257.431 26.688C257.292 26.82 257.153 26.919 257.013 26.985C257.167 27.051 257.31 27.1427 257.442 27.26C257.582 27.3773 257.703 27.5167 257.805 27.678C257.915 27.832 258 27.997 258.058 28.173C258.117 28.349 258.146 28.5287 258.146 28.712C258.146 29.1813 258.025 29.603 257.783 29.977C257.549 30.351 257.219 30.6443 256.793 30.857C256.368 31.0697 255.88 31.176 255.33 31.176ZM261.766 31.187C261.334 31.187 260.956 31.1173 260.633 30.978C260.311 30.8313 260.039 30.6333 259.819 30.384C259.599 30.1273 259.423 29.834 259.291 29.504C259.159 29.1667 259.064 28.8073 259.005 28.426C258.947 28.0447 258.917 27.6523 258.917 27.249C258.917 26.8677 258.947 26.49 259.005 26.116C259.064 25.742 259.156 25.39 259.28 25.06C259.412 24.7227 259.588 24.4257 259.808 24.169C260.028 23.905 260.296 23.6997 260.611 23.553C260.934 23.399 261.312 23.322 261.744 23.322C262.162 23.322 262.525 23.3953 262.833 23.542C263.149 23.6887 263.413 23.8903 263.625 24.147C263.845 24.4037 264.021 24.7007 264.153 25.038C264.285 25.3753 264.381 25.7347 264.439 26.116C264.498 26.49 264.527 26.8713 264.527 27.26C264.527 27.656 264.498 28.0447 264.439 28.426C264.381 28.8073 264.285 29.1667 264.153 29.504C264.021 29.834 263.845 30.1273 263.625 30.384C263.413 30.6333 263.152 30.8313 262.844 30.978C262.536 31.1173 262.177 31.187 261.766 31.187ZM261.711 29.845C262.012 29.845 262.254 29.7827 262.437 29.658C262.621 29.526 262.764 29.3573 262.866 29.152C262.976 28.9467 263.053 28.7267 263.097 28.492C263.141 28.2573 263.167 28.0373 263.174 27.832C263.189 27.6193 263.196 27.447 263.196 27.315V27.249C263.196 26.699 263.141 26.2297 263.031 25.841C262.921 25.4523 262.756 25.159 262.536 24.961C262.324 24.7557 262.056 24.653 261.733 24.653C261.396 24.653 261.117 24.7557 260.897 24.961C260.677 25.159 260.512 25.4523 260.402 25.841C260.3 26.2223 260.248 26.6953 260.248 27.26C260.248 27.81 260.303 28.2793 260.413 28.668C260.523 29.0493 260.685 29.3427 260.897 29.548C261.117 29.746 261.389 29.845 261.711 29.845ZM270.546 31.099C270.208 31.099 269.889 31.0293 269.589 30.89C269.288 30.7507 269.024 30.56 268.797 30.318C268.569 30.0687 268.39 29.779 268.258 29.449C268.126 29.1117 268.06 28.7523 268.06 28.371C268.06 28.0043 268.126 27.6597 268.258 27.337C268.39 27.007 268.569 26.721 268.797 26.479C269.031 26.2297 269.299 26.0353 269.6 25.896C269.9 25.7567 270.216 25.687 270.546 25.687C270.898 25.687 271.213 25.7567 271.492 25.896C271.77 26.0353 272.005 26.2297 272.196 26.479C272.394 26.721 272.544 27.007 272.647 27.337C272.749 27.6597 272.804 28.008 272.812 28.382C272.812 28.756 272.76 29.108 272.658 29.438C272.562 29.7607 272.416 30.0467 272.218 30.296C272.027 30.5453 271.789 30.7433 271.503 30.89C271.224 31.0293 270.905 31.099 270.546 31.099ZM270.722 29.812C270.978 29.812 271.206 29.7533 271.404 29.636C271.609 29.5113 271.77 29.3427 271.888 29.13C272.012 28.9173 272.075 28.6753 272.075 28.404C272.075 28.1253 272.012 27.8797 271.888 27.667C271.77 27.4543 271.609 27.2857 271.404 27.161C271.206 27.0363 270.978 26.974 270.722 26.974C270.465 26.974 270.234 27.0363 270.029 27.161C269.823 27.2783 269.658 27.447 269.534 27.667C269.416 27.8797 269.358 28.1253 269.358 28.404C269.358 28.6753 269.416 28.9173 269.534 29.13C269.658 29.3427 269.823 29.5113 270.029 29.636C270.241 29.7533 270.472 29.812 270.722 29.812ZM272.757 31.099C272.551 31.099 272.401 31.066 272.306 31C272.21 30.9267 272.148 30.813 272.119 30.659V23.883C272.119 23.7583 272.126 23.6483 272.141 23.553C272.163 23.4503 272.218 23.3697 272.306 23.311C272.401 23.245 272.548 23.212 272.746 23.212C272.958 23.212 273.109 23.2413 273.197 23.3C273.285 23.3587 273.34 23.4393 273.362 23.542C273.391 23.6373 273.406 23.7473 273.406 23.872V30.428C273.406 30.5527 273.395 30.6663 273.373 30.769C273.351 30.8717 273.292 30.9523 273.197 31.011C273.109 31.0697 272.962 31.099 272.757 31.099ZM278.943 31.088C278.731 31.088 278.573 31.0477 278.47 30.967C278.368 30.8863 278.316 30.7763 278.316 30.637L278.393 30.274C278.335 30.3693 278.236 30.483 278.096 30.615C277.957 30.7397 277.774 30.8533 277.546 30.956C277.319 31.0513 277.044 31.099 276.721 31.099C276.377 31.099 276.05 31.0293 275.742 30.89C275.442 30.7433 275.174 30.5453 274.939 30.296C274.712 30.0393 274.529 29.7497 274.389 29.427C274.257 29.097 274.191 28.745 274.191 28.371C274.191 28.0117 274.257 27.6743 274.389 27.359C274.529 27.0363 274.716 26.7503 274.95 26.501C275.185 26.2517 275.453 26.0573 275.753 25.918C276.061 25.7713 276.384 25.698 276.721 25.698C277.022 25.698 277.275 25.7383 277.48 25.819C277.693 25.8997 277.873 26.0023 278.019 26.127C278.166 26.2443 278.287 26.369 278.382 26.501L278.316 26.182C278.316 26.0207 278.368 25.8997 278.47 25.819C278.573 25.731 278.734 25.687 278.954 25.687C279.16 25.687 279.306 25.72 279.394 25.786C279.482 25.8447 279.537 25.929 279.559 26.039C279.581 26.1417 279.592 26.259 279.592 26.391V30.417C279.592 30.5417 279.581 30.6553 279.559 30.758C279.537 30.8607 279.479 30.9413 279.383 31C279.295 31.0587 279.149 31.088 278.943 31.088ZM276.919 29.812C277.169 29.812 277.392 29.7497 277.59 29.625C277.788 29.5003 277.946 29.3317 278.063 29.119C278.188 28.899 278.25 28.657 278.25 28.393C278.25 28.107 278.188 27.8577 278.063 27.645C277.939 27.4323 277.774 27.2673 277.568 27.15C277.37 27.0253 277.147 26.963 276.897 26.963C276.626 26.963 276.384 27.029 276.171 27.161C275.959 27.2857 275.79 27.458 275.665 27.678C275.548 27.8907 275.489 28.1327 275.489 28.404C275.489 28.668 275.552 28.9063 275.676 29.119C275.801 29.3317 275.97 29.5003 276.182 29.625C276.402 29.7497 276.648 29.812 276.919 29.812ZM281.845 33.277C281.611 33.1743 281.475 33.057 281.438 32.925C281.402 32.8003 281.435 32.6317 281.537 32.419L284.375 26.061C284.478 25.8263 284.588 25.687 284.705 25.643C284.823 25.5917 285.002 25.6173 285.244 25.72C285.472 25.8227 285.604 25.9363 285.64 26.061C285.684 26.1857 285.659 26.3543 285.563 26.567L282.703 32.958C282.608 33.1927 282.502 33.3283 282.384 33.365C282.267 33.409 282.087 33.3797 281.845 33.277ZM282.868 30.582L280.327 26.677C280.195 26.479 280.14 26.314 280.162 26.182C280.192 26.05 280.309 25.9217 280.514 25.797C280.742 25.6577 280.918 25.6027 281.042 25.632C281.174 25.6613 281.306 25.7787 281.438 25.984L283.451 29.119L282.868 30.582ZM288.056 31.176C287.865 31.176 287.663 31.154 287.451 31.11C287.238 31.0733 287.033 31.0183 286.835 30.945C286.637 30.8643 286.464 30.7727 286.318 30.67C286.178 30.56 286.09 30.439 286.054 30.307C286.024 30.2337 286.013 30.164 286.021 30.098C286.028 30.0247 286.05 29.9513 286.087 29.878C286.123 29.7973 286.178 29.7167 286.252 29.636C286.318 29.5553 286.384 29.5113 286.45 29.504C286.523 29.4893 286.615 29.5113 286.725 29.57C286.82 29.6067 286.923 29.6543 287.033 29.713C287.15 29.7717 287.267 29.8303 287.385 29.889C287.509 29.9477 287.634 29.9953 287.759 30.032C287.891 30.0687 288.019 30.087 288.144 30.087C288.415 30.087 288.631 30.043 288.793 29.955C288.954 29.8597 289.035 29.7277 289.035 29.559C289.035 29.4637 289.009 29.3793 288.958 29.306C288.906 29.2327 288.837 29.174 288.749 29.13C288.668 29.0787 288.569 29.0347 288.452 28.998C288.342 28.954 288.221 28.9173 288.089 28.888C287.964 28.8513 287.832 28.811 287.693 28.767C287.509 28.7157 287.326 28.6533 287.143 28.58C286.959 28.5067 286.794 28.4113 286.648 28.294C286.508 28.1767 286.395 28.03 286.307 27.854C286.219 27.678 286.175 27.458 286.175 27.194C286.175 26.864 286.252 26.5853 286.406 26.358C286.567 26.1233 286.798 25.9437 287.099 25.819C287.399 25.6943 287.762 25.632 288.188 25.632C288.334 25.632 288.474 25.643 288.606 25.665C288.745 25.687 288.877 25.72 289.002 25.764C289.134 25.8007 289.258 25.8483 289.376 25.907C289.5 25.9657 289.618 26.0317 289.728 26.105C289.911 26.2077 290.006 26.3287 290.014 26.468C290.021 26.6 289.97 26.743 289.86 26.897C289.779 26.9997 289.698 27.073 289.618 27.117C289.537 27.1537 289.453 27.1537 289.365 27.117C289.247 27.0583 289.119 26.996 288.98 26.93C288.848 26.8567 288.708 26.7943 288.562 26.743C288.422 26.6917 288.276 26.666 288.122 26.666C287.975 26.666 287.843 26.688 287.726 26.732C287.608 26.776 287.52 26.8383 287.462 26.919C287.403 26.9997 287.374 27.095 287.374 27.205C287.374 27.3077 287.403 27.392 287.462 27.458C287.52 27.524 287.597 27.579 287.693 27.623C287.788 27.667 287.902 27.7073 288.034 27.744C288.166 27.7733 288.305 27.8027 288.452 27.832C288.657 27.876 288.866 27.931 289.079 27.997C289.291 28.063 289.486 28.1547 289.662 28.272C289.845 28.3893 289.992 28.547 290.102 28.745C290.212 28.9357 290.267 29.185 290.267 29.493C290.267 30.0283 290.069 30.4427 289.673 30.736C289.284 31.0293 288.745 31.176 288.056 31.176ZM296.779 31.099C296.42 31.099 296.097 31.0293 295.811 30.89C295.532 30.7433 295.294 30.5453 295.096 30.296C294.905 30.0467 294.759 29.7607 294.656 29.438C294.561 29.108 294.513 28.756 294.513 28.382C294.52 28.008 294.575 27.6597 294.678 27.337C294.781 27.007 294.927 26.721 295.118 26.479C295.316 26.2297 295.554 26.0353 295.833 25.896C296.112 25.7567 296.427 25.687 296.779 25.687C297.116 25.687 297.432 25.7567 297.725 25.896C298.026 26.0353 298.29 26.2297 298.517 26.479C298.752 26.721 298.935 27.007 299.067 27.337C299.199 27.6597 299.265 28.0043 299.265 28.371C299.265 28.7523 299.199 29.1117 299.067 29.449C298.935 29.779 298.755 30.0687 298.528 30.318C298.301 30.56 298.037 30.7507 297.736 30.89C297.435 31.0293 297.116 31.099 296.779 31.099ZM296.603 29.812C296.86 29.812 297.091 29.7533 297.296 29.636C297.501 29.5113 297.663 29.3427 297.78 29.13C297.905 28.9173 297.967 28.6753 297.967 28.404C297.967 28.1253 297.905 27.8797 297.78 27.667C297.663 27.447 297.501 27.2783 297.296 27.161C297.091 27.0363 296.86 26.974 296.603 26.974C296.354 26.974 296.126 27.0363 295.921 27.161C295.716 27.2857 295.551 27.4543 295.426 27.667C295.309 27.8797 295.25 28.1253 295.25 28.404C295.25 28.6753 295.309 28.9173 295.426 29.13C295.551 29.3427 295.716 29.5113 295.921 29.636C296.126 29.7533 296.354 29.812 296.603 29.812ZM294.568 31.11C294.37 31.11 294.223 31.077 294.128 31.011C294.033 30.9523 293.974 30.8753 293.952 30.78C293.93 30.6773 293.919 30.5637 293.919 30.439V23.883C293.919 23.7583 293.93 23.6483 293.952 23.553C293.974 23.4503 294.033 23.3697 294.128 23.311C294.223 23.2523 294.37 23.223 294.568 23.223C294.773 23.223 294.92 23.2523 295.008 23.311C295.096 23.3697 295.151 23.4503 295.173 23.553C295.195 23.6557 295.206 23.7657 295.206 23.883V30.659C295.177 30.8203 295.114 30.934 295.019 31C294.931 31.0733 294.781 31.11 294.568 31.11ZM301.17 33.277C300.936 33.1743 300.8 33.057 300.763 32.925C300.727 32.8003 300.76 32.6317 300.862 32.419L303.7 26.061C303.803 25.8263 303.913 25.687 304.03 25.643C304.148 25.5917 304.327 25.6173 304.569 25.72C304.797 25.8227 304.929 25.9363 304.965 26.061C305.009 26.1857 304.984 26.3543 304.888 26.567L302.028 32.958C301.933 33.1927 301.827 33.3283 301.709 33.365C301.592 33.409 301.412 33.3797 301.17 33.277ZM302.193 30.582L299.652 26.677C299.52 26.479 299.465 26.314 299.487 26.182C299.517 26.05 299.634 25.9217 299.839 25.797C300.067 25.6577 300.243 25.6027 300.367 25.632C300.499 25.6613 300.631 25.7787 300.763 25.984L302.776 29.119L302.193 30.582ZM310.9 31.132C310.548 31.132 310.203 31.0733 309.866 30.956C309.536 30.8313 309.235 30.6517 308.964 30.417C308.7 30.1823 308.487 29.8963 308.326 29.559C308.172 29.2143 308.095 28.8257 308.095 28.393C308.095 27.9603 308.172 27.5753 308.326 27.238C308.487 26.9007 308.7 26.6147 308.964 26.38C309.228 26.1453 309.525 25.9657 309.855 25.841C310.185 25.7163 310.526 25.654 310.878 25.654C311.135 25.654 311.377 25.6907 311.604 25.764C311.839 25.8373 312.04 25.9253 312.209 26.028C312.378 26.1307 312.499 26.2333 312.572 26.336C312.667 26.424 312.748 26.5083 312.814 26.589C312.88 26.6697 312.902 26.7687 312.88 26.886C312.858 26.9593 312.825 27.029 312.781 27.095C312.737 27.1537 312.682 27.216 312.616 27.282C312.44 27.48 312.268 27.5533 312.099 27.502C312.004 27.4507 311.908 27.3957 311.813 27.337C311.718 27.2783 311.619 27.2233 311.516 27.172C311.421 27.1133 311.322 27.0657 311.219 27.029C311.116 26.9923 311.003 26.974 310.878 26.974C310.599 26.974 310.35 27.0363 310.13 27.161C309.917 27.2783 309.749 27.4433 309.624 27.656C309.507 27.8687 309.448 28.1143 309.448 28.393C309.448 28.6717 309.507 28.921 309.624 29.141C309.749 29.3537 309.917 29.5223 310.13 29.647C310.343 29.7643 310.585 29.823 310.856 29.823C310.988 29.823 311.113 29.8083 311.23 29.779C311.355 29.7423 311.465 29.6983 311.56 29.647C311.655 29.5883 311.732 29.5297 311.791 29.471C311.872 29.4197 311.945 29.372 312.011 29.328C312.077 29.284 312.147 29.262 312.22 29.262C312.308 29.262 312.392 29.295 312.473 29.361C312.561 29.4197 312.656 29.515 312.759 29.647C312.854 29.757 312.906 29.8633 312.913 29.966C312.928 30.0687 312.906 30.1677 312.847 30.263C312.796 30.3583 312.708 30.4463 312.583 30.527C312.495 30.615 312.363 30.7067 312.187 30.802C312.018 30.89 311.82 30.967 311.593 31.033C311.373 31.099 311.142 31.132 310.9 31.132ZM318.367 31.088C318.154 31.088 317.997 31.0477 317.894 30.967C317.791 30.8863 317.74 30.7763 317.74 30.637L317.817 30.274C317.758 30.3693 317.659 30.483 317.52 30.615C317.381 30.7397 317.197 30.8533 316.97 30.956C316.743 31.0513 316.468 31.099 316.145 31.099C315.8 31.099 315.474 31.0293 315.166 30.89C314.865 30.7433 314.598 30.5453 314.363 30.296C314.136 30.0393 313.952 29.7497 313.813 29.427C313.681 29.097 313.615 28.745 313.615 28.371C313.615 28.0117 313.681 27.6743 313.813 27.359C313.952 27.0363 314.139 26.7503 314.374 26.501C314.609 26.2517 314.876 26.0573 315.177 25.918C315.485 25.7713 315.808 25.698 316.145 25.698C316.446 25.698 316.699 25.7383 316.904 25.819C317.117 25.8997 317.296 26.0023 317.443 26.127C317.59 26.2443 317.711 26.369 317.806 26.501L317.74 26.182C317.74 26.0207 317.791 25.8997 317.894 25.819C317.997 25.731 318.158 25.687 318.378 25.687C318.583 25.687 318.73 25.72 318.818 25.786C318.906 25.8447 318.961 25.929 318.983 26.039C319.005 26.1417 319.016 26.259 319.016 26.391V30.417C319.016 30.5417 319.005 30.6553 318.983 30.758C318.961 30.8607 318.902 30.9413 318.807 31C318.719 31.0587 318.572 31.088 318.367 31.088ZM316.343 29.812C316.592 29.812 316.816 29.7497 317.014 29.625C317.212 29.5003 317.37 29.3317 317.487 29.119C317.612 28.899 317.674 28.657 317.674 28.393C317.674 28.107 317.612 27.8577 317.487 27.645C317.362 27.4323 317.197 27.2673 316.992 27.15C316.794 27.0253 316.57 26.963 316.321 26.963C316.05 26.963 315.808 27.029 315.595 27.161C315.382 27.2857 315.214 27.458 315.089 27.678C314.972 27.8907 314.913 28.1327 314.913 28.404C314.913 28.668 314.975 28.9063 315.1 29.119C315.225 29.3317 315.393 29.5003 315.606 29.625C315.826 29.7497 316.072 29.812 316.343 29.812ZM322.793 31.11C322.434 31.11 322.126 31.0733 321.869 31C321.612 30.9267 321.403 30.813 321.242 30.659C321.081 30.505 320.96 30.307 320.879 30.065C320.806 29.8157 320.769 29.5223 320.769 29.185V24.521C320.769 24.389 320.78 24.2753 320.802 24.18C320.831 24.0847 320.89 24.0113 320.978 23.96C321.073 23.9013 321.22 23.872 321.418 23.872C321.623 23.872 321.77 23.9013 321.858 23.96C321.953 24.0187 322.012 24.0993 322.034 24.202C322.063 24.2973 322.078 24.4037 322.078 24.521V29.141C322.078 29.295 322.089 29.4197 322.111 29.515C322.14 29.6103 322.181 29.6837 322.232 29.735C322.291 29.779 322.364 29.812 322.452 29.834C322.547 29.8487 322.661 29.856 322.793 29.856C322.932 29.856 323.05 29.867 323.145 29.889C323.248 29.911 323.325 29.966 323.376 30.054C323.427 30.1347 323.453 30.2703 323.453 30.461C323.453 30.6663 323.42 30.8167 323.354 30.912C323.295 31 323.215 31.055 323.112 31.077C323.017 31.099 322.91 31.11 322.793 31.11ZM320.318 25.797L321.451 25.808L322.969 25.764C323.094 25.764 323.204 25.7787 323.299 25.808C323.402 25.83 323.482 25.8887 323.541 25.984C323.6 26.072 323.629 26.2187 323.629 26.424C323.629 26.6147 323.6 26.7577 323.541 26.853C323.482 26.9483 323.405 27.0107 323.31 27.04C323.215 27.062 323.105 27.073 322.98 27.073L321.506 27.051L320.285 27.062C320.102 27.0547 319.973 27.0033 319.9 26.908C319.834 26.8053 319.801 26.6403 319.801 26.413C319.801 26.2003 319.841 26.0463 319.922 25.951C320.01 25.8483 320.142 25.797 320.318 25.797ZM327.067 31.176C326.59 31.176 326.172 31.099 325.813 30.945C325.461 30.791 325.164 30.582 324.922 30.318C324.687 30.0467 324.508 29.746 324.383 29.416C324.266 29.0787 324.207 28.7303 324.207 28.371C324.207 27.843 324.328 27.3737 324.57 26.963C324.812 26.5523 325.146 26.2297 325.571 25.995C326.004 25.7603 326.499 25.643 327.056 25.643C327.452 25.643 327.8 25.7053 328.101 25.83C328.402 25.9547 328.651 26.1197 328.849 26.325C329.054 26.523 329.208 26.743 329.311 26.985C329.421 27.227 329.476 27.4617 329.476 27.689C329.476 28.0777 329.381 28.36 329.19 28.536C329.007 28.712 328.776 28.8 328.497 28.8H325.593C325.6 29.0493 325.677 29.2657 325.824 29.449C325.978 29.6323 326.169 29.7753 326.396 29.878C326.631 29.9733 326.869 30.021 327.111 30.021C327.294 30.021 327.456 30.01 327.595 29.988C327.742 29.966 327.866 29.9403 327.969 29.911C328.072 29.8743 328.16 29.8377 328.233 29.801C328.314 29.7643 328.387 29.7313 328.453 29.702C328.519 29.6727 328.581 29.6543 328.64 29.647C328.721 29.6397 328.801 29.658 328.882 29.702C328.963 29.746 329.029 29.823 329.08 29.933C329.124 30.0063 329.153 30.076 329.168 30.142C329.19 30.2007 329.201 30.2593 329.201 30.318C329.201 30.4647 329.113 30.604 328.937 30.736C328.761 30.8607 328.512 30.9633 328.189 31.044C327.874 31.132 327.5 31.176 327.067 31.176ZM325.593 28.019H327.848C327.973 28.019 328.068 28.0007 328.134 27.964C328.2 27.92 328.233 27.832 328.233 27.7C328.233 27.5313 328.182 27.381 328.079 27.249C327.976 27.1097 327.837 27.0033 327.661 26.93C327.485 26.8493 327.28 26.809 327.045 26.809C326.774 26.809 326.528 26.864 326.308 26.974C326.088 27.0767 325.912 27.2197 325.78 27.403C325.655 27.5863 325.593 27.7917 325.593 28.019ZM332.744 33.31C332.48 33.31 332.227 33.277 331.985 33.211C331.743 33.1523 331.523 33.0717 331.325 32.969C331.134 32.8663 330.98 32.7563 330.863 32.639C330.753 32.5217 330.698 32.4117 330.698 32.309C330.698 32.2063 330.712 32.1183 330.742 32.045C330.778 31.9717 330.83 31.8983 330.896 31.825C330.984 31.737 331.053 31.671 331.105 31.627C331.163 31.583 331.24 31.561 331.336 31.561C331.416 31.561 331.493 31.5903 331.567 31.649C331.647 31.7077 331.739 31.7737 331.842 31.847C331.944 31.9203 332.069 31.9863 332.216 32.045C332.362 32.1037 332.549 32.133 332.777 32.133C332.967 32.133 333.143 32.1 333.305 32.034C333.466 31.968 333.602 31.869 333.712 31.737C333.829 31.6123 333.921 31.462 333.987 31.286C334.053 31.11 334.086 30.912 334.086 30.692L334.075 26.138C334.089 25.9693 334.148 25.852 334.251 25.786C334.353 25.7127 334.511 25.676 334.724 25.676C334.922 25.676 335.065 25.7053 335.153 25.764C335.241 25.8153 335.296 25.8923 335.318 25.995C335.34 26.0903 335.351 26.1967 335.351 26.314V30.769C335.351 31.1723 335.281 31.5317 335.142 31.847C335.002 32.1623 334.812 32.4263 334.57 32.639C334.328 32.859 334.049 33.024 333.734 33.134C333.426 33.2513 333.096 33.31 332.744 33.31ZM332.623 30.967C332.278 30.967 331.955 30.901 331.655 30.769C331.361 30.637 331.101 30.45 330.874 30.208C330.654 29.966 330.478 29.6873 330.346 29.372C330.221 29.0493 330.159 28.701 330.159 28.327C330.159 27.9603 330.221 27.6193 330.346 27.304C330.478 26.9887 330.654 26.71 330.874 26.468C331.101 26.226 331.361 26.039 331.655 25.907C331.955 25.7677 332.274 25.698 332.612 25.698C332.942 25.698 333.228 25.764 333.47 25.896C333.719 26.0207 333.924 26.2003 334.086 26.435C334.247 26.6697 334.368 26.9483 334.449 27.271C334.537 27.5937 334.581 27.9493 334.581 28.338C334.581 28.8733 334.507 29.339 334.361 29.735C334.214 30.131 333.998 30.4353 333.712 30.648C333.426 30.8607 333.063 30.967 332.623 30.967ZM332.744 29.724C332.993 29.724 333.213 29.6653 333.404 29.548C333.602 29.4233 333.756 29.2547 333.866 29.042C333.983 28.8293 334.042 28.591 334.042 28.327C334.042 28.0557 333.983 27.8173 333.866 27.612C333.756 27.3993 333.602 27.2343 333.404 27.117C333.206 26.9997 332.982 26.941 332.733 26.941C332.483 26.941 332.26 27.0033 332.062 27.128C331.871 27.2453 331.721 27.4067 331.611 27.612C331.501 27.8173 331.446 28.0557 331.446 28.327C331.446 28.5983 331.501 28.8403 331.611 29.053C331.728 29.2583 331.882 29.4233 332.073 29.548C332.271 29.6653 332.494 29.724 332.744 29.724ZM338.999 31.176C338.647 31.176 338.303 31.11 337.965 30.978C337.635 30.8387 337.335 30.6443 337.063 30.395C336.799 30.1457 336.587 29.8523 336.425 29.515C336.271 29.1777 336.194 28.8073 336.194 28.404C336.194 28.0153 336.268 27.6523 336.414 27.315C336.561 26.9777 336.763 26.6807 337.019 26.424C337.276 26.1673 337.569 25.9693 337.899 25.83C338.237 25.6833 338.596 25.61 338.977 25.61C339.491 25.61 339.956 25.7347 340.374 25.984C340.792 26.226 341.126 26.556 341.375 26.974C341.625 27.392 341.749 27.865 341.749 28.393C341.749 28.811 341.672 29.1923 341.518 29.537C341.364 29.8743 341.155 30.1677 340.891 30.417C340.627 30.659 340.33 30.846 340 30.978C339.678 31.11 339.344 31.176 338.999 31.176ZM338.977 29.878C339.219 29.878 339.45 29.8193 339.67 29.702C339.898 29.5773 340.081 29.4013 340.22 29.174C340.367 28.9467 340.44 28.679 340.44 28.371C340.44 28.085 340.374 27.832 340.242 27.612C340.118 27.392 339.945 27.2197 339.725 27.095C339.505 26.9703 339.252 26.908 338.966 26.908C338.695 26.908 338.449 26.974 338.229 27.106C338.009 27.2307 337.833 27.4067 337.701 27.634C337.577 27.854 337.514 28.1033 337.514 28.382C337.514 28.69 337.584 28.9577 337.723 29.185C337.863 29.405 338.042 29.5773 338.262 29.702C338.49 29.8193 338.728 29.878 338.977 29.878ZM343.263 31.11C343.065 31.11 342.918 31.077 342.823 31.011C342.735 30.9523 342.68 30.8717 342.658 30.769C342.636 30.6663 342.625 30.5527 342.625 30.428V26.347C342.625 26.215 342.636 26.1013 342.658 26.006C342.68 25.9033 342.735 25.8263 342.823 25.775C342.918 25.7163 343.069 25.687 343.274 25.687C343.472 25.687 343.615 25.7127 343.703 25.764C343.798 25.8153 343.857 25.8813 343.879 25.962C343.908 26.0353 343.923 26.1087 343.923 26.182L343.835 26.38C343.872 26.3213 343.923 26.2517 343.989 26.171C344.055 26.083 344.143 25.9987 344.253 25.918C344.363 25.83 344.495 25.7603 344.649 25.709C344.803 25.6503 344.986 25.621 345.199 25.621C345.287 25.621 345.379 25.632 345.474 25.654C345.577 25.6687 345.676 25.6943 345.771 25.731C345.874 25.7603 345.965 25.8007 346.046 25.852C346.127 25.9033 346.189 25.9657 346.233 26.039C346.277 26.105 346.299 26.182 346.299 26.27C346.299 26.5047 346.24 26.7027 346.123 26.864C346.006 27.0253 345.866 27.106 345.705 27.106C345.595 27.106 345.514 27.095 345.463 27.073C345.412 27.051 345.368 27.0253 345.331 26.996C345.302 26.9667 345.254 26.941 345.188 26.919C345.129 26.897 345.034 26.886 344.902 26.886C344.792 26.886 344.678 26.9043 344.561 26.941C344.451 26.9777 344.348 27.0327 344.253 27.106C344.158 27.1793 344.081 27.2747 344.022 27.392C343.963 27.502 343.934 27.6303 343.934 27.777V30.45C343.934 30.5747 343.923 30.6883 343.901 30.791C343.879 30.8863 343.82 30.9633 343.725 31.022C343.63 31.0807 343.476 31.11 343.263 31.11ZM348.318 33.277C348.083 33.1743 347.948 33.057 347.911 32.925C347.874 32.8003 347.907 32.6317 348.01 32.419L350.848 26.061C350.951 25.8263 351.061 25.687 351.178 25.643C351.295 25.5917 351.475 25.6173 351.717 25.72C351.944 25.8227 352.076 25.9363 352.113 26.061C352.157 26.1857 352.131 26.3543 352.036 26.567L349.176 32.958C349.081 33.1927 348.974 33.3283 348.857 33.365C348.74 33.409 348.56 33.3797 348.318 33.277ZM349.341 30.582L346.8 26.677C346.668 26.479 346.613 26.314 346.635 26.182C346.664 26.05 346.782 25.9217 346.987 25.797C347.214 25.6577 347.39 25.6027 347.515 25.632C347.647 25.6613 347.779 25.7787 347.911 25.984L349.924 29.119L349.341 30.582Z" fill="black" fill-opacity="0.56"/>
<path d="M15 110.501C15 110.501 55 80.5009 137 79.0009C219 77.5009 243.5 150 334.5 150C425.5 150 485 112.001 485 112.001" stroke="#FBBB52" stroke-width="2" stroke-linecap="round"/>
<path d="M15 73C15 73 55 107 137 105.5C219 104 244 150 335 150C426 150 485 174.5 485 174.5" stroke="#64AFB5" stroke-width="2" stroke-linecap="round"/>
<path d="M15 181C15 181 54 152.5 136 151C218 149.5 244 131 335 131C426 131 485 55.5 485 55.5" stroke="#B86060" stroke-width="2" stroke-linecap="round"/>
<path opacity="0.12" d="M137 78.9999C55 80.4999 14 110.5 14 110.5V188.5H486V112C486 112 427 149.5 336 149.5C245 149.5 219 77.4999 137 78.9999Z" fill="#FDE4BA"/>
<path opacity="0.12" d="M137 105.5C55 107 14 73 14 73V188.5H486V174.5C486 174.5 424.124 150 333.124 150C242.124 150 219 104 137 105.5Z" fill="#9ECFD7"/>
<path opacity="0.08" d="M137 151C55 152.5 14 181.5 14 181.5V188.5H486V54.5C486 54.5 426 131 335 131C244 131 219 149.5 137 151Z" fill="#E27676"/>
</svg>
