<svg width="138" height="148" viewBox="0 0 138 148" fill="none" xmlns="http://www.w3.org/2000/svg">
<path d="M116.87 71.43C114.62 71.43 112.62 71.11 111.09 70.65C109.07 70.05 107.92 67.93 108.52 65.91C109.12 63.9 111.23 62.75 113.24 63.34C113.34 63.37 116.3 64.17 119.88 63.51C124.47 62.66 128.04 59.8 130.5 55.02C131.46 53.15 133.76 52.4 135.63 53.37C137.5 54.33 138.24 56.63 137.28 58.5C132.05 68.7 123.4 71.44 116.86 71.44L116.87 71.43Z" fill="#784726"/>
<path d="M20.8404 76.07C14.2904 76.07 5.65043 73.33 0.420428 63.13C-0.539572 61.26 0.200422 58.96 2.07042 58C3.95042 57.04 6.24043 57.78 7.20043 59.65C9.66043 64.44 13.2304 67.29 17.8204 68.14C21.4404 68.81 24.4304 67.98 24.4604 67.97C26.4704 67.4 28.5904 68.56 29.1704 70.57C29.7504 72.58 28.6204 74.69 26.6104 75.28C25.0804 75.74 23.0804 76.06 20.8304 76.06L20.8404 76.07Z" fill="#784726"/>
<path d="M95.3004 138.24H50.3905C47.3205 138.24 44.3005 137.42 41.6505 135.87C41.5405 135.8 41.4304 135.73 41.3204 135.66L34.1704 130.66C31.9504 129.1 31.4105 126.04 32.9605 123.82C34.5205 121.6 37.5804 121.06 39.8004 122.61L46.7705 127.49C47.8705 128.1 49.1205 128.43 50.3905 128.43H95.3004C96.6204 128.43 97.9104 128.08 99.0504 127.42L105.95 122.62C108.12 121 111.2 121.44 112.82 123.62C114.44 125.79 114 128.87 111.82 130.49L104.72 135.44C104.6 135.53 104.48 135.61 104.36 135.68C101.63 137.36 98.5004 138.25 95.2904 138.25L95.3004 138.24Z" fill="#A5D4D5"/>
<path d="M53.4604 147.46C55.9954 147.46 58.0504 145.405 58.0504 142.87C58.0504 140.335 55.9954 138.28 53.4604 138.28C50.9254 138.28 48.8704 140.335 48.8704 142.87C48.8704 145.405 50.9254 147.46 53.4604 147.46Z" fill="#E98C4D"/>
<path d="M55.3703 137.05H51.5503V140.22H55.3703V137.05Z" fill="#E98C4D"/>
<path d="M95.3806 147.46C97.9155 147.46 99.9706 145.405 99.9706 142.87C99.9706 140.335 97.9155 138.28 95.3806 138.28C92.8456 138.28 90.7905 140.335 90.7905 142.87C90.7905 145.405 92.8456 147.46 95.3806 147.46Z" fill="#E98C4D"/>
<path d="M97.2904 137.05H93.4705V140.22H97.2904V137.05Z" fill="#E98C4D"/>
<path d="M112.82 123.61C111.86 122.32 110.38 121.64 108.88 121.64C107.86 121.64 106.83 121.96 105.95 122.62L99.0504 127.42C97.9104 128.08 96.6204 128.43 95.3004 128.43H50.3904C49.1204 128.43 47.8804 128.11 46.7704 127.49L39.8004 122.61C38.9404 122.01 37.9604 121.72 36.9904 121.72C35.4404 121.72 33.9204 122.45 32.9604 123.82C31.4004 126.04 31.9504 129.1 34.1704 130.66L41.3204 135.66C41.4304 135.74 41.5404 135.81 41.6504 135.87C44.3004 137.42 47.3204 138.24 50.3904 138.24H51.5504V138.71C49.9704 139.44 48.8704 141.02 48.8704 142.87C48.8704 145.4 50.9204 147.46 53.4604 147.46C56.0004 147.46 58.0504 145.41 58.0504 142.87C58.0504 141.02 56.9504 139.44 55.3704 138.71V138.24H93.4704V138.71C91.8904 139.44 90.7904 141.02 90.7904 142.87C90.7904 145.4 92.8404 147.46 95.3804 147.46C97.9204 147.46 99.9704 145.41 99.9704 142.87C99.9704 141.02 98.8704 139.44 97.2904 138.71V138.12C99.7904 137.83 102.2 137 104.36 135.67C104.48 135.59 104.6 135.51 104.72 135.43L111.82 130.48C113.99 128.86 114.44 125.78 112.82 123.61ZM53.4604 144.76C52.4204 144.76 51.5604 143.91 51.5604 142.86C51.5604 141.81 52.4104 140.96 53.4604 140.96C54.5104 140.96 55.3604 141.81 55.3604 142.86C55.3604 143.91 54.5104 144.76 53.4604 144.76ZM95.3804 144.76C94.3404 144.76 93.4804 143.91 93.4804 142.86C93.4804 141.81 94.3304 140.96 95.3804 140.96C96.4304 140.96 97.2804 141.81 97.2804 142.86C97.2804 143.91 96.4304 144.76 95.3804 144.76ZM110.63 126.8C110.56 127.26 110.33 127.66 109.97 127.94L102.93 132.85L102.89 132.88L102.85 132.91C102.85 132.91 102.77 132.97 102.72 133C100.49 134.38 97.9304 135.1 95.3004 135.1H50.3904C47.8804 135.1 45.4104 134.43 43.2504 133.16C43.2104 133.14 43.1704 133.11 43.1304 133.08L35.9804 128.08C35.5904 127.81 35.3304 127.4 35.2504 126.94C35.1704 126.47 35.2704 126 35.5404 125.62C35.8804 125.14 36.4104 124.86 37.0004 124.86C37.2504 124.86 37.6304 124.92 38.0104 125.18L44.9804 130.06L45.1104 130.15L45.2504 130.23C46.8204 131.1 48.6004 131.56 50.3904 131.56H95.3004C97.1704 131.56 99.0104 131.06 100.63 130.12L100.74 130.06L100.84 129.99L107.74 125.19L107.78 125.16L107.82 125.13C108.21 124.84 108.61 124.78 108.88 124.78C109.45 124.78 109.96 125.04 110.3 125.49C110.58 125.87 110.7 126.33 110.63 126.8Z" fill="#784726"/>
<path d="M63.9706 109.84L56.1506 109.8L56.4506 123.86H56.4006C54.2206 123.91 52.3306 125.12 51.3206 126.89C50.5406 128.26 51.5405 129.96 53.1105 129.94H62.2606C63.4306 129.91 64.3606 128.94 64.3406 127.77L64.2905 125.32L63.9606 109.85L63.9706 109.84Z" fill="#784726"/>
<path d="M81.6403 109.84L89.4603 109.8L89.1603 123.86H89.2103C91.3903 123.91 93.2803 125.12 94.2903 126.89C95.0703 128.26 94.0703 129.96 92.5003 129.94H83.3503C82.1803 129.91 81.2503 128.94 81.2703 127.77L81.3203 125.32L81.6503 109.85L81.6403 109.84Z" fill="#784726"/>
<path d="M117.62 74.35C117.54 74.1 117.45 73.87 117.35 73.62C116.92 72.56 116.32 71.49 115.56 70.41C116.45 69.39 117.19 68.21 117.75 66.93C117.84 66.72 117.92 66.51 118.01 66.29C118.62 64.68 118.94 62.92 118.94 61.11C118.94 57.53 117.73 54.25 115.57 51.82C117.79 48.68 118.59 45.61 117.94 42.66C117.15 39.09 114.41 36.75 112.6 35.56C114.07 30.26 113.66 25.96 111.4 22.76C108.92 19.23 104.88 18.11 102.65 17.75C101.93 15.44 100.76 13.63 99.1403 12.33C96.2103 0.129987 82.8003 5.51999 82.8003 5.51999C77.9903 1.47999 73.3203 0.08 69.1703 0H67.0303C62.8903 0.08 58.2203 1.46999 53.4003 5.51999C53.4003 5.51999 39.6603 -6.67572e-06 36.9603 12.79C36.9603 12.79 20.5703 13.1 26.7703 31.6C26.7703 31.6 14.0603 37.43 23.8403 48.89C20.8303 51.29 19.2503 55.18 19.2603 59.03C19.2603 61.25 19.8003 63.45 20.9003 65.34C21.1003 65.68 23.4903 69.59 23.8303 69.18C18.4503 75.49 19.8803 80.08 22.2603 82.95C24.2003 85.29 26.7703 86.47 26.7703 86.47C26.4303 87.49 26.1503 88.45 25.9503 89.35C22.3203 105 36.9603 105.28 36.9603 105.28C39.8103 114.1 47.5203 115.4 53.3803 113.05C54.0203 112.8 54.6303 112.51 55.2103 112.17C56.9603 112.07 58.4903 111.7 59.4903 111.41C60.2303 111.98 60.9803 112.5 61.7503 112.97C65.0203 114.98 68.5003 116.02 72.1203 116.09H74.0803C77.0503 116.03 79.9303 115.31 82.7003 113.91C84.0503 113.24 85.3703 112.4 86.6603 111.41C87.6403 111.7 89.1403 112.06 90.8603 112.17C92.9703 112.31 95.4003 112.08 97.6003 110.91C100.02 109.62 101.71 107.46 102.64 104.47C104.88 104.11 108.91 102.99 111.39 99.47C113.65 96.26 114.05 91.96 112.59 86.67C114.4 85.48 117.14 83.13 117.93 79.57C118.31 77.87 118.2 76.12 117.61 74.34L117.62 74.35ZM113.83 78.66C113.13 81.93 109.26 83.78 109.23 83.8C108.25 84.25 107.76 85.36 108.11 86.38C109.52 90.6 109.63 93.93 108.43 96.28C108.3 96.56 108.14 96.8 107.97 97.05C106.21 99.56 102.96 100.23 101.58 100.4C101.18 100.45 100.94 100.46 100.93 100.46C99.9503 100.48 99.1103 101.17 98.9103 102.13C98.8903 102.21 98.8803 102.28 98.8603 102.35C98.3103 104.76 97.2503 106.36 95.6203 107.23C93.8503 108.18 91.6803 108.15 89.9703 107.89C89.7603 107.85 89.5603 107.82 89.3703 107.79C88.0003 107.51 87.0403 107.14 87.0203 107.13C86.3103 106.84 85.4803 106.98 84.8903 107.47C83.7403 108.44 82.5503 109.26 81.3403 109.92C81.2103 110 81.0703 110.06 80.9403 110.14L78.6603 111.11C77.7803 111.41 76.8803 111.63 75.9803 111.77L69.5403 111.65C67.0903 111.17 64.7103 110.08 62.4203 108.38C62.2803 108.28 62.1403 108.17 62.0003 108.07C61.9903 108.07 61.9803 108.05 61.9703 108.04L62.4203 108.38C62.0403 108.1 61.6603 107.8 61.2903 107.49C61.1703 107.39 61.0403 107.31 60.9103 107.24C60.6103 107.08 60.2703 107 59.9303 107C59.7603 107 59.5903 107.02 59.4303 107.07C59.3303 107.09 59.2503 107.11 59.1503 107.15C59.1103 107.17 56.7203 108.09 54.1103 108.06C52.9103 108.06 51.6603 107.84 50.5703 107.26C48.8903 106.36 47.8003 104.69 47.2703 102.15C47.0703 101.2 46.2303 100.51 45.2603 100.48C45.2103 100.48 40.4603 100.31 38.2003 97.07C36.5403 94.69 36.5003 91.1 38.0803 86.4C38.4203 85.38 37.9403 84.27 36.9703 83.82C36.9303 83.8 33.0903 81.96 32.3603 78.7C31.9003 76.63 32.8103 74.24 35.0503 71.61C35.8003 70.73 35.7003 69.4 34.8203 68.65C34.6903 68.54 34.5303 68.43 34.3803 68.36C33.8903 67.75 32.9503 66.3 32.6403 65.75C31.8703 64.42 31.4603 62.83 31.4603 61.14C31.4603 58.14 32.6803 55.35 34.7603 53.7C35.2103 53.35 35.4803 52.82 35.5403 52.25C35.6003 51.69 35.4203 51.12 35.0503 50.69C32.8103 48.06 31.9103 45.69 32.3603 43.61C33.0603 40.34 36.9303 38.49 36.9703 38.48C37.9403 38.03 38.4303 36.92 38.0803 35.89C36.5003 31.2 36.5503 27.61 38.2003 25.23C40.4603 21.99 45.2103 21.82 45.2503 21.82C46.2303 21.8 47.0703 21.11 47.2703 20.15C47.8003 17.63 48.8803 15.95 50.5603 15.06C54.0503 13.18 59.1003 15.14 59.1503 15.16C59.8603 15.45 60.6903 15.32 61.2903 14.82C64.7203 11.95 68.3803 10.44 72.1403 10.38H74.0203C77.8103 10.45 81.4703 11.95 84.9103 14.82C85.5003 15.32 86.3203 15.45 87.0403 15.16C87.0903 15.14 92.1503 13.18 95.6403 15.06C97.3103 15.95 98.3903 17.63 98.9203 20.15C99.1203 21.1 99.9603 21.8 100.93 21.82C100.95 21.82 101.62 21.84 102.6 22.04C104.2 22.38 106.58 23.2 107.99 25.23C108.85 26.45 109.27 27.99 109.27 29.84C109.27 30.45 109.22 31.09 109.13 31.75C108.9 32.27 108.78 32.84 108.82 33.43C108.64 34.22 108.41 35.04 108.13 35.89C107.79 36.9 108.27 38.01 109.24 38.46C109.27 38.48 111.69 39.63 113.04 41.72C113.27 42.45 113.44 43.19 113.56 43.94C113.63 44.3 113.76 44.64 113.95 44.94C113.89 46.05 113.49 47.23 112.74 48.49C112.63 48.63 112.51 48.77 112.4 48.91C112.42 48.93 112.44 48.94 112.46 48.96C112.1 49.52 111.67 50.09 111.17 50.68C110.8 51.11 110.63 51.68 110.68 52.24C110.74 52.81 111.02 53.33 111.46 53.69C113.53 55.35 114.77 58.12 114.77 61.13C114.77 63.04 114.28 64.86 113.39 66.35C112.94 67.1 112.41 67.76 111.79 68.31C111.69 68.41 111.58 68.5 111.47 68.59C111.03 68.94 110.75 69.47 110.69 70.03C110.63 70.6 110.81 71.16 111.18 71.6C113.42 74.22 114.32 76.6 113.87 78.67L113.83 78.66Z" fill="#784726"/>
<path d="M111.42 53.68C110.98 53.33 110.7 52.8 110.64 52.23C110.59 51.67 110.76 51.1 111.13 50.67C111.63 50.08 112.06 49.51 112.42 48.95C112.52 48.8 112.62 48.65 112.71 48.49C113.46 47.22 113.86 46.04 113.92 44.93C113.94 44.47 113.92 44.03 113.82 43.59C113.67 42.9 113.38 42.28 113.01 41.72C111.66 39.63 109.24 38.48 109.21 38.46C108.24 38.01 107.75 36.9 108.1 35.89C108.39 35.03 108.61 34.22 108.79 33.44C108.93 32.85 109.04 32.29 109.1 31.75C109.2 31.08 109.24 30.45 109.24 29.85C109.24 27.99 108.81 26.45 107.96 25.24C106.55 23.21 104.17 22.39 102.57 22.05C101.6 21.85 100.92 21.83 100.9 21.83C99.9303 21.8 99.0903 21.11 98.8903 20.16C98.3603 17.64 97.2802 15.96 95.6102 15.07C92.1202 13.19 87.0603 15.15 87.0103 15.17C86.2903 15.46 85.4702 15.33 84.8802 14.83C81.4402 11.96 77.7802 10.45 73.9902 10.38H72.1102C68.3502 10.46 64.6903 11.96 61.2603 14.83C60.6603 15.33 59.8302 15.47 59.1202 15.17C59.0702 15.15 54.0203 13.19 50.5303 15.07C48.8503 15.96 47.7702 17.64 47.2402 20.16C47.0402 21.12 46.2003 21.82 45.2203 21.83C45.1803 21.83 40.4302 21.99 38.1702 25.24C36.5102 27.62 36.4702 31.21 38.0502 35.9C38.3902 36.93 37.9102 38.04 36.9402 38.49C36.9002 38.49 33.0403 40.35 32.3303 43.62C31.8803 45.69 32.7903 48.07 35.0203 50.7C35.3903 51.13 35.5703 51.7 35.5103 52.26C35.4503 52.83 35.1802 53.35 34.7302 53.71C32.6502 55.37 31.4202 58.15 31.4302 61.15C31.4302 62.83 31.8402 64.42 32.6102 65.76C32.9202 66.3 33.8702 67.76 34.3502 68.37C34.5002 68.45 34.6502 68.55 34.7902 68.66C35.6702 69.41 35.7703 70.73 35.0203 71.62C32.7703 74.25 31.8703 76.63 32.3303 78.71C33.0503 81.96 36.9002 83.81 36.9402 83.83C37.9102 84.28 38.4002 85.39 38.0502 86.41C36.4702 91.11 36.5202 94.7 38.1702 97.08C40.4302 100.32 45.1802 100.49 45.2302 100.49C46.2002 100.52 47.0402 101.2 47.2402 102.16C47.7702 104.7 48.8602 106.37 50.5402 107.27C51.6302 107.85 52.8803 108.06 54.0803 108.07C56.7003 108.1 59.0802 107.18 59.1202 107.16C59.2202 107.12 59.3003 107.1 59.4003 107.08C59.5603 107.03 59.7303 107.01 59.9003 107.01C60.2403 107.01 60.5802 107.09 60.8802 107.25C61.0102 107.32 61.1403 107.4 61.2603 107.5C61.6303 107.81 62.0103 108.12 62.3903 108.39C64.6703 110.09 67.0603 111.19 69.5103 111.66C70.3803 111.83 71.2603 111.93 72.1503 111.95H74.0303C74.6803 111.95 75.3103 111.88 75.9503 111.79C76.8503 111.66 77.7502 111.44 78.6302 111.13C79.4002 110.86 80.1602 110.54 80.9102 110.16C81.0402 110.08 81.1802 110.02 81.3102 109.94C82.5202 109.28 83.7102 108.47 84.8602 107.49C85.4502 107 86.2802 106.86 86.9902 107.15C87.0102 107.15 87.9703 107.53 89.3403 107.81C89.5303 107.85 89.7302 107.88 89.9402 107.91C91.6502 108.18 93.8203 108.2 95.5903 107.25C97.2203 106.37 98.2703 104.78 98.8303 102.37C98.8503 102.3 98.8602 102.23 98.8802 102.15C99.0802 101.2 99.9203 100.5 100.9 100.48C100.9 100.48 101.15 100.48 101.55 100.42C102.94 100.25 106.18 99.58 107.94 97.07C108.11 96.82 108.26 96.58 108.4 96.3C109.6 93.95 109.48 90.62 108.08 86.4C107.74 85.38 108.22 84.27 109.2 83.82C109.23 83.8 113.09 81.96 113.8 78.68C114.25 76.61 113.34 74.23 111.11 71.61C110.74 71.17 110.56 70.61 110.62 70.04C110.68 69.48 110.96 68.96 111.4 68.6C111.51 68.51 111.62 68.42 111.72 68.32C112.34 67.77 112.87 67.11 113.32 66.37C114.2 64.87 114.7 63.05 114.7 61.14C114.7 58.13 113.46 55.35 111.39 53.7L111.42 53.68Z" fill="#F9BB54"/>
<path d="M86.6803 59.7099C88.5525 59.7099 90.0703 58.1922 90.0703 56.3199C90.0703 54.4477 88.5525 52.9299 86.6803 52.9299C84.8081 52.9299 83.2903 54.4477 83.2903 56.3199C83.2903 58.1922 84.8081 59.7099 86.6803 59.7099Z" fill="#3E3D3B"/>
<path d="M67.0704 59.1699C68.9427 59.1699 70.4604 57.6521 70.4604 55.7799C70.4604 53.9076 68.9427 52.3899 67.0704 52.3899C65.1982 52.3899 63.6804 53.9076 63.6804 55.7799C63.6804 57.6521 65.1982 59.1699 67.0704 59.1699Z" fill="#3E3D3B"/>
<path d="M77.5504 71.98C73.0804 71.98 69.6704 68.85 69.5204 68.71C68.6704 67.92 68.6204 66.59 69.4204 65.74C70.2104 64.89 71.5404 64.84 72.3904 65.63C72.4404 65.67 75.0404 68 77.9904 67.76C79.6604 67.62 81.2304 66.64 82.6504 64.84C83.3704 63.93 84.6903 63.77 85.6003 64.49C86.5103 65.21 86.6704 66.53 85.9504 67.44C83.7704 70.21 81.1903 71.73 78.2903 71.96C78.0403 71.98 77.8004 71.99 77.5604 71.99L77.5504 71.98Z" fill="#3E3D3B"/>
<path d="M69.7787 30.1898L66.3422 33.6263C65.7681 34.2004 65.7681 35.1311 66.3422 35.7052L66.3492 35.7123C66.9233 36.2864 67.8541 36.2864 68.4281 35.7123L71.8647 32.2757C72.4388 31.7017 72.4387 30.7709 71.8647 30.1969L71.8576 30.1898C71.2835 29.6157 70.3528 29.6157 69.7787 30.1898Z" fill="#F8DDB6"/>
<path d="M57.4882 30.1901L54.0517 33.6267C53.4776 34.2007 53.4776 35.1315 54.0517 35.7056L54.0587 35.7127C54.6328 36.2867 55.5636 36.2867 56.1376 35.7126L59.5742 32.2761C60.1482 31.702 60.1483 30.7713 59.5742 30.1972L59.5671 30.1901C58.9931 29.616 58.0623 29.6161 57.4882 30.1901Z" fill="#DE983C"/>
<path d="M82.069 30.1894L78.6325 33.6259C78.0584 34.2 78.0584 35.1308 78.6325 35.7049L78.6395 35.7119C79.2136 36.286 80.1444 36.286 80.7184 35.7119L84.155 32.2754C84.729 31.7013 84.729 30.7706 84.155 30.1965L84.1479 30.1894C83.5738 29.6154 82.6431 29.6153 82.069 30.1894Z" fill="#DE983C"/>
<path d="M94.3593 30.1891L90.9227 33.6256C90.3487 34.1997 90.3487 35.1304 90.9227 35.7045L90.9298 35.7116C91.5039 36.2856 92.4346 36.2856 93.0087 35.7116L96.4452 32.275C97.0193 31.701 97.0193 30.7702 96.4452 30.1961L96.4382 30.1891C95.8641 29.615 94.9333 29.615 94.3593 30.1891Z" fill="#F8DDB6"/>
<path d="M67.6232 85.625L64.1867 89.0615C63.6126 89.6356 63.6126 90.5663 64.1867 91.1404L64.1937 91.1475C64.7678 91.7215 65.6986 91.7215 66.2727 91.1475L69.7092 87.7109C70.2833 87.1369 70.2832 86.2061 69.7092 85.6321L69.7021 85.625C69.128 85.0509 68.1973 85.0509 67.6232 85.625Z" fill="#DE983C"/>
<path d="M55.3429 85.6253L51.9064 89.0619C51.3323 89.636 51.3323 90.5667 51.9064 91.1408L51.9135 91.1478C52.4875 91.7219 53.4183 91.7219 53.9923 91.1479L57.4289 87.7113C58.003 87.1372 58.003 86.2065 57.4289 85.6324L57.4218 85.6253C56.8477 85.0513 55.917 85.0512 55.3429 85.6253Z" fill="#F8DDB6"/>
<path d="M79.9137 85.6246L76.4772 89.0612C75.9031 89.6352 75.9031 90.566 76.4772 91.14L76.4843 91.1471C77.0583 91.7212 77.9891 91.7212 78.5631 91.1471L81.9997 87.7106C82.5737 87.1365 82.5738 86.2058 81.9997 85.6317L81.9926 85.6246C81.4185 85.0505 80.4878 85.0506 79.9137 85.6246Z" fill="#F8DDB6"/>
<path d="M92.204 85.6142L88.7675 89.0508C88.1934 89.6249 88.1934 90.5556 88.7675 91.1297L88.7746 91.1367C89.3486 91.7108 90.2794 91.7108 90.8534 91.1368L94.29 87.7002C94.8641 87.1261 94.864 86.1954 94.29 85.6213L94.2829 85.6142C93.7088 85.0402 92.7781 85.0401 92.204 85.6142Z" fill="#DE983C"/>
<path d="M51.2104 71.95C54.3087 71.95 56.8204 69.4383 56.8204 66.34C56.8204 63.2416 54.3087 60.73 51.2104 60.73C48.1121 60.73 45.6003 63.2416 45.6003 66.34C45.6003 69.4383 48.1121 71.95 51.2104 71.95Z" fill="#E8A23D"/>
<path d="M101.02 71.95C104.119 71.95 106.63 69.4383 106.63 66.34C106.63 63.2416 104.119 60.73 101.02 60.73C97.9221 60.73 95.4104 63.2416 95.4104 66.34C95.4104 69.4383 97.9221 71.95 101.02 71.95Z" fill="#E8A23D"/>
</svg>
