<svg width="64" height="64" viewBox="0 0 64 64" fill="none" xmlns="http://www.w3.org/2000/svg">
<g clip-path="url(#clip0_369_579)">
<g clip-path="url(#clip1_369_579)">
<path d="M74.2011 46.13C74.1211 45.87 74.0211 45.62 73.9211 45.36C73.4711 44.25 72.8411 43.12 72.0411 41.99C72.9811 40.92 73.7511 39.68 74.3411 38.33C74.4311 38.11 74.5211 37.89 74.6111 37.66C75.2511 35.97 75.5911 34.12 75.5911 32.22C75.5911 28.46 74.3211 25.01 72.0511 22.46C74.3811 19.16 75.2211 15.93 74.5411 12.83C73.7111 9.08 70.8311 6.62 68.9311 5.37C70.4711 -0.200005 70.0411 -4.72 67.6711 -8.08C65.0611 -11.79 60.8211 -12.97 58.4711 -13.34C57.7111 -15.77 56.4811 -17.67 54.7811 -19.04C51.7011 -31.86 37.6111 -26.2 37.6111 -26.2C32.5611 -30.45 27.6511 -31.92 23.2911 -32H21.0411C16.6911 -31.92 11.7811 -30.45 6.7211 -26.2C6.7211 -26.2 -7.7189 -32 -10.5589 -18.56C-10.5589 -18.56 -27.7889 -18.23 -21.2689 1.20999C-21.2689 1.20999 -34.6289 7.34 -24.3489 19.38C-27.5089 21.9 -29.1689 25.99 -29.1589 30.04C-29.1489 32.37 -28.5889 34.68 -27.4389 36.67C-27.2289 37.03 -24.7189 41.14 -24.3589 40.71C-30.0089 47.34 -28.5089 52.17 -26.0089 55.18C-23.9689 57.64 -21.2689 58.88 -21.2689 58.88C-21.6289 59.95 -21.9189 60.96 -22.1289 61.91C-25.9489 78.36 -10.5589 78.65 -10.5589 78.65C-7.5589 87.92 0.541111 89.29 6.70111 86.82C7.37111 86.56 8.01111 86.25 8.62111 85.89H8.6311C10.4711 85.78 12.0811 85.4 13.1311 85.09C13.9111 85.69 14.7011 86.24 15.5011 86.73C18.9411 88.84 22.5911 89.94 26.4011 90.01H28.4611C31.5811 89.95 34.6111 89.19 37.5211 87.72C38.9411 87.02 40.3311 86.13 41.6811 85.09C42.7111 85.4 44.2911 85.77 46.0911 85.89C48.3111 86.04 50.8611 85.8 53.1711 84.57C55.7111 83.21 57.4911 80.94 58.4711 77.8C60.8211 77.42 65.0611 76.24 67.6711 72.54C70.0411 69.17 70.4711 64.65 68.9311 59.09C70.8311 57.84 73.7111 55.37 74.5411 51.63C74.9411 49.84 74.8211 48 74.2011 46.13ZM70.2211 50.65C69.4811 54.09 65.4211 56.03 65.3911 56.05C64.3611 56.52 63.8511 57.69 64.2111 58.76C65.6911 63.19 65.8111 66.69 64.5511 69.16C64.4111 69.45 64.2511 69.71 64.0711 69.97C62.2211 72.61 58.8111 73.31 57.3511 73.49C56.9311 73.54 56.6811 73.55 56.6711 73.55C55.6411 73.57 54.7611 74.3 54.5511 75.3C54.5311 75.38 54.5211 75.46 54.5011 75.53C53.9211 78.06 52.8111 79.74 51.1011 80.66C49.2411 81.66 46.9611 81.63 45.1611 81.35C44.9411 81.31 44.7311 81.28 44.5311 81.24C43.0911 80.95 42.0811 80.56 42.0611 80.55C41.3111 80.25 40.4411 80.39 39.8211 80.91C38.6111 81.93 37.3611 82.79 36.0911 83.48C35.9511 83.56 35.8111 83.63 35.6711 83.71H35.6611L33.2611 84.73C32.3311 85.05 31.3911 85.28 30.4411 85.42L23.6711 85.29C21.1011 84.79 18.5911 83.64 16.1911 81.85C16.0411 81.75 15.9011 81.63 15.7511 81.52C15.7411 81.52 15.7311 81.5 15.7111 81.49L16.1911 81.85C15.7911 81.56 15.3911 81.24 15.0011 80.91C14.8711 80.81 14.7411 80.72 14.6011 80.65C14.2811 80.48 13.9311 80.4 13.5711 80.4C13.3911 80.4 13.2111 80.42 13.0411 80.47C12.9411 80.49 12.8511 80.51 12.7511 80.55C12.7111 80.57 10.2011 81.54 7.45111 81.51C6.19111 81.5 4.88111 81.28 3.73111 80.67C1.96111 79.72 0.821108 77.97 0.261108 75.3C0.0511084 74.3 -0.828892 73.58 -1.84889 73.55C-1.89889 73.55 -6.88889 73.37 -9.26889 69.97C-11.0089 67.47 -11.0589 63.7 -9.3989 58.76C-9.0389 57.69 -9.54889 56.52 -10.5689 56.05C-10.6089 56.03 -14.6489 54.09 -15.4089 50.67C-15.8889 48.49 -14.9389 45.98 -12.5789 43.22C-11.7889 42.29 -11.8989 40.9 -12.8189 40.11C-12.9589 39.99 -13.1189 39.88 -13.2789 39.8C-13.7889 39.16 -14.7789 37.63 -15.1089 37.06C-15.9189 35.66 -16.3489 33.99 -16.3489 32.22C-16.3489 29.07 -15.0689 26.14 -12.8789 24.4C-12.4089 24.03 -12.1189 23.48 -12.0589 22.88C-11.9989 22.29 -12.1889 21.69 -12.5789 21.24C-14.9289 18.48 -15.8789 15.98 -15.4089 13.8C-14.6689 10.36 -10.6089 8.42 -10.5689 8.41C-9.54889 7.94 -9.0389 6.77 -9.3989 5.69C-11.0589 0.760003 -11.0089 -3.00999 -9.26889 -5.50999C-6.88889 -8.91999 -1.8989 -9.09 -1.8589 -9.09C-0.828902 -9.11 0.0511084 -9.84001 0.261108 -10.85C0.821108 -13.5 1.9511 -15.26 3.7211 -16.2C7.3911 -18.18 12.7011 -16.12 12.7511 -16.1C13.5011 -15.79 14.3711 -15.93 15.0011 -16.46C18.6011 -19.48 22.4511 -21.06 26.4011 -21.13H28.3811C32.3611 -21.06 36.2111 -19.48 39.8211 -16.46C40.4411 -15.93 41.3011 -15.8 42.0611 -16.1C42.1111 -16.12 47.4311 -18.18 51.1011 -16.2C52.8611 -15.26 53.9911 -13.5 54.5511 -10.85C54.7611 -9.85001 55.6411 -9.12 56.6611 -9.09C56.6811 -9.09 57.3911 -9.07 58.4111 -8.86C60.0911 -8.5 62.5911 -7.63999 64.0711 -5.50999C64.9711 -4.22999 65.4211 -2.61 65.4211 -0.669998C65.4211 -0.0299982 65.3711 0.639996 65.2711 1.34C65.0311 1.89 64.9011 2.49 64.9411 3.11C64.7511 3.94 64.5111 4.8 64.2111 5.7C63.8511 6.76 64.3611 7.92999 65.3811 8.39999C65.4111 8.41999 67.9511 9.63 69.3711 11.83C69.6111 12.6 69.7911 13.38 69.9211 14.16C69.9911 14.54 70.1311 14.9 70.3311 15.21C70.2711 16.38 69.8511 17.62 69.0611 18.94H69.0511C68.9311 19.09 68.8111 19.23 68.6911 19.38C68.7111 19.4 68.7311 19.41 68.7511 19.43C68.3711 20.02 67.9211 20.62 67.3911 21.24C67.0011 21.69 66.8211 22.29 66.8711 22.88C66.9311 23.48 67.2311 24.03 67.6911 24.4C69.8711 26.14 71.1711 29.06 71.1711 32.22C71.1711 34.23 70.6511 36.14 69.7211 37.71H69.7111C69.2411 38.5 68.6811 39.19 68.0311 39.77C67.9211 39.87 67.8111 39.97 67.6911 40.06C67.2311 40.43 66.9311 40.98 66.8711 41.57C66.8111 42.17 67.0011 42.76 67.3911 43.22C69.7411 45.97 70.6911 48.47 70.2211 50.65Z" fill="#784726"/>
<path d="M67.6912 24.4001C67.2312 24.0301 66.9312 23.4801 66.8712 22.8801C66.8212 22.2901 67.0012 21.6901 67.3912 21.2401C67.9212 20.6201 68.3712 20.0201 68.7512 19.4301C68.8612 19.2701 68.9612 19.1101 69.0512 18.9501H69.0612C69.8512 17.6201 70.2712 16.3801 70.3312 15.2101C70.3512 14.7301 70.3212 14.2601 70.2212 13.8001C70.0612 13.0701 69.7612 12.4201 69.3712 11.8301C67.9512 9.63011 65.4112 8.4201 65.3812 8.4001C64.3612 7.9301 63.8512 6.7601 64.2112 5.7001C64.5112 4.8001 64.7512 3.9401 64.9412 3.1201C65.0912 2.5001 65.2012 1.9101 65.2712 1.3401C65.3712 0.640103 65.4212 -0.0298969 65.4212 -0.659897C65.4212 -2.6099 64.9712 -4.22989 64.0712 -5.50989C62.5912 -7.63989 60.0912 -8.49989 58.4112 -8.85989C57.3912 -9.06989 56.6812 -9.08989 56.6612 -9.08989C55.6412 -9.11989 54.7612 -9.8499 54.5512 -10.8499C53.9912 -13.4999 52.8612 -15.2599 51.1012 -16.1999C47.4312 -18.1799 42.1112 -16.1199 42.0612 -16.0999C41.3012 -15.7999 40.4412 -15.9299 39.8212 -16.4599C36.2112 -19.4799 32.3612 -21.0599 28.3812 -21.1399H26.4012C22.4512 -21.0599 18.6012 -19.4799 15.0012 -16.4599C14.3712 -15.9299 13.5012 -15.7899 12.7512 -16.0999C12.7012 -16.1199 7.39117 -18.1799 3.72117 -16.1999C1.95117 -15.2599 0.821181 -13.4999 0.261181 -10.8499C0.0511809 -9.8399 -0.828829 -9.10989 -1.85883 -9.08989C-1.89883 -9.08989 -6.88882 -8.91989 -9.26882 -5.50989C-11.0088 -3.00989 -11.0588 0.760109 -9.39882 5.69011C-9.03882 6.77011 -9.54882 7.94011 -10.5688 8.41011C-10.6088 8.42011 -14.6688 10.3601 -15.4088 13.8001C-15.8788 15.9801 -14.9288 18.4801 -12.5788 21.2401C-12.1888 21.6901 -11.9988 22.2901 -12.0588 22.8801C-12.1188 23.4801 -12.4088 24.0301 -12.8788 24.4001C-15.0688 26.1401 -16.3588 29.0701 -16.3488 32.2201C-16.3488 33.9901 -15.9188 35.6601 -15.1088 37.0601C-14.7788 37.6301 -13.7888 39.1601 -13.2788 39.8001C-13.1188 39.8801 -12.9588 39.9901 -12.8188 40.1101C-11.8988 40.9001 -11.7888 42.2901 -12.5788 43.2201C-14.9388 45.9801 -15.8888 48.4901 -15.4088 50.6701C-14.6488 54.0901 -10.6088 56.0301 -10.5688 56.0501C-9.54882 56.5201 -9.03882 57.6901 -9.39882 58.7601C-11.0588 63.7001 -11.0088 67.4701 -9.26882 69.9701C-6.88882 73.3701 -1.89882 73.5501 -1.84882 73.5501C-0.828819 73.5801 0.0511809 74.3001 0.261181 75.3001C0.821181 77.9701 1.96118 79.7201 3.73118 80.6701C4.88118 81.2801 6.19118 81.5001 7.45118 81.5101C10.2012 81.5401 12.7112 80.5701 12.7512 80.5501C12.8512 80.5101 12.9412 80.4901 13.0412 80.4701C13.2112 80.4201 13.3912 80.4001 13.5712 80.4001C13.9312 80.4001 14.2812 80.4801 14.6012 80.6501C14.7412 80.7201 14.8712 80.8101 15.0012 80.9101C15.3912 81.2401 15.7912 81.5601 16.1912 81.8501C18.5912 83.6401 21.1012 84.7901 23.6712 85.2901C24.5812 85.4701 25.5112 85.5701 26.4412 85.5901H28.4212C29.1012 85.5801 29.7712 85.5201 30.4412 85.4201C31.3912 85.2801 32.3312 85.0501 33.2612 84.7301C34.0712 84.4501 34.8712 84.1101 35.6612 83.7101H35.6712C35.8112 83.6301 35.9512 83.5601 36.0912 83.4801C37.3612 82.7901 38.6112 81.9301 39.8212 80.9101C40.4412 80.3901 41.3112 80.2501 42.0612 80.5501C42.0812 80.5601 43.0912 80.9501 44.5312 81.2401C44.7312 81.2801 44.9412 81.3101 45.1612 81.3501C46.9612 81.6301 49.2412 81.6601 51.1012 80.6601C52.8112 79.7401 53.9212 78.0601 54.5012 75.5301C54.5212 75.4601 54.5312 75.3801 54.5512 75.3001C54.7612 74.3001 55.6412 73.5701 56.6712 73.5501C56.6812 73.5501 56.9312 73.5501 57.3512 73.4901C58.8112 73.3101 62.2212 72.6101 64.0712 69.9701C64.2512 69.7101 64.4112 69.4501 64.5512 69.1601C65.8112 66.6901 65.6912 63.1901 64.2112 58.7601C63.8512 57.6901 64.3612 56.5201 65.3912 56.0501C65.4212 56.0301 69.4812 54.0901 70.2212 50.6501C70.6912 48.4701 69.7412 45.9701 67.3912 43.2201C67.0012 42.7601 66.8112 42.1701 66.8712 41.5701C66.9312 40.9801 67.2312 40.4301 67.6912 40.0601C67.8112 39.9701 67.9212 39.8701 68.0312 39.7701C68.6812 39.1901 69.2412 38.5001 69.7112 37.7201H69.7212C70.6512 36.1401 71.1712 34.2301 71.1712 32.2201C71.1712 29.0601 69.8712 26.1401 67.6912 24.4001Z" fill="#F9BB54"/>
<path d="M41.6911 30.7401C43.6572 30.7401 45.2511 29.1462 45.2511 27.1801C45.2511 25.214 43.6572 23.6201 41.6911 23.6201C39.725 23.6201 38.1311 25.214 38.1311 27.1801C38.1311 29.1462 39.725 30.7401 41.6911 30.7401Z" fill="#3E3D3B"/>
<path d="M21.081 30.16C23.0471 30.16 24.641 28.5662 24.641 26.6001C24.641 24.6339 23.0471 23.04 21.081 23.04C19.1149 23.04 17.521 24.6339 17.521 26.6001C17.521 28.5662 19.1149 30.16 21.081 30.16Z" fill="#3E3D3B"/>
<path d="M32.1009 43.6299C27.4109 43.6299 23.8209 40.3399 23.6609 40.1899C22.7709 39.3599 22.7209 37.9599 23.5509 37.0599C24.3809 36.1699 25.7809 36.1199 26.6709 36.9399C26.7209 36.9899 29.4509 39.4299 32.5609 39.1799C34.3209 39.0399 35.9709 37.9999 37.4509 36.1099C38.2109 35.1499 39.6009 34.9899 40.5509 35.7399C41.5109 36.4899 41.6809 37.8799 40.9209 38.8499C38.6309 41.7699 35.9209 43.3599 32.8709 43.5999C32.6109 43.6199 32.3609 43.6299 32.1009 43.6299Z" fill="#3E3D3B"/>
<path d="M23.9196 -0.281368L20.3133 3.32488C19.708 3.93019 19.708 4.9116 20.3133 5.51692C20.9186 6.12223 21.9 6.12223 22.5053 5.51692L26.1116 1.91067C26.7169 1.30535 26.7169 0.323945 26.1116 -0.281368C25.5063 -0.886681 24.5249 -0.886681 23.9196 -0.281368Z" fill="#F8DDB6"/>
<path d="M11.0108 -0.292588L7.4046 3.31366C6.79929 3.91897 6.7993 4.90037 7.40461 5.50569C8.00992 6.111 8.99132 6.11101 9.59664 5.5057L13.2029 1.89945C13.8082 1.29413 13.8082 0.312725 13.2029 -0.292588C12.5976 -0.8979 11.6162 -0.8979 11.0108 -0.292588Z" fill="#DE983C"/>
<path d="M36.8353 -0.287217L33.2291 3.31903C32.6238 3.92434 32.6238 4.90574 33.2291 5.51106C33.8344 6.11637 34.8158 6.11638 35.4211 5.51107L39.0273 1.90482C39.6327 1.29951 39.6326 0.318107 39.0273 -0.287206C38.422 -0.892518 37.4406 -0.892529 36.8353 -0.287217Z" fill="#DE983C"/>
<path d="M49.7442 -0.285996L46.138 3.32025C45.5327 3.92557 45.5327 4.90696 46.138 5.51228C46.7433 6.11759 47.7247 6.1176 48.33 5.51229L51.9363 1.90604C52.5416 1.30073 52.5416 0.319328 51.9363 -0.285985C51.331 -0.891298 50.3496 -0.891309 49.7442 -0.285996Z" fill="#F8DDB6"/>
<path d="M21.6573 57.9728L18.0511 61.579C17.4458 62.1843 17.4458 63.1657 18.0511 63.7711C18.6564 64.3764 19.6378 64.3764 20.2431 63.7711L23.8494 60.1648C24.4547 59.5595 24.4547 58.5781 23.8494 57.9728C23.244 57.3675 22.2626 57.3675 21.6573 57.9728Z" fill="#DE983C"/>
<path d="M8.74865 57.9713L5.1424 61.5776C4.53709 62.1829 4.53708 63.1643 5.14239 63.7696C5.74771 64.3749 6.72913 64.3749 7.33444 63.7696L10.9407 60.1634C11.546 59.558 11.546 58.5766 10.9407 57.9713C10.3354 57.366 9.35397 57.366 8.74865 57.9713Z" fill="#F8DDB6"/>
<path d="M34.5831 57.9669L30.9769 61.5732C30.3716 62.1785 30.3716 63.1599 30.9769 63.7652C31.5822 64.3705 32.5636 64.3705 33.1689 63.7652L36.7752 60.159C37.3805 59.5537 37.3805 58.5722 36.7752 57.9669C36.1698 57.3616 35.1884 57.3616 34.5831 57.9669Z" fill="#F8DDB6"/>
<path d="M47.4921 57.9682L43.8858 61.5744C43.2805 62.1797 43.2805 63.1611 43.8858 63.7664C44.4911 64.3717 45.4725 64.3718 46.0778 63.7664L49.6841 60.1602C50.2894 59.5549 50.2894 58.5734 49.6841 57.9681C49.0788 57.3628 48.0974 57.3628 47.4921 57.9682Z" fill="#DE983C"/>
<path d="M4.411 43.6001C7.66395 43.6001 10.301 40.963 10.301 37.7101C10.301 34.4571 7.66395 31.8201 4.411 31.8201C1.15804 31.8201 -1.479 34.4571 -1.479 37.7101C-1.479 40.963 1.15804 43.6001 4.411 43.6001Z" fill="#E8A23D"/>
<path d="M56.7611 43.6001C60.014 43.6001 62.6511 40.963 62.6511 37.7101C62.6511 34.4571 60.014 31.8201 56.7611 31.8201C53.5081 31.8201 50.8711 34.4571 50.8711 37.7101C50.8711 40.963 53.5081 43.6001 56.7611 43.6001Z" fill="#E8A23D"/>
</g>
</g>
<defs>
<clipPath id="clip0_369_579">
<rect width="64" height="64" fill="white"/>
</clipPath>
<clipPath id="clip1_369_579">
<rect width="64" height="64" rx="16" fill="white"/>
</clipPath>
</defs>
</svg>
