<svg width="214" height="191" viewBox="0 0 214 191" fill="none" xmlns="http://www.w3.org/2000/svg">
<path d="M21.91 179.45C21.84 177.55 22.16 175.68 22.82 173.95C22.79 173.72 22.74 173.51 22.69 173.3C22.69 173.28 22.68 173.26 22.67 173.25C22.63 173.07 22.58 172.89 22.52 172.72C22.5 172.65 22.47 172.57 22.44 172.5C22.4 172.4 22.36 172.3 22.32 172.2C22.31 172.18 22.31 172.17 22.3 172.15C22.22 171.96 22.13 171.78 22.03 171.6C21.98 171.5 21.92 171.4 21.86 171.3C21.78 171.17 21.7 171.04 21.62 170.92C21.5 170.74 21.37 170.57 21.24 170.41C21.2 170.36 21.16 170.32 21.13 170.28C21.01 170.14 20.89 170.01 20.76 169.88C20.61 169.72 20.45 169.57 20.29 169.43C20.11 169.27 19.92 169.12 19.72 168.98C19.67 168.94 19.62 168.9 19.57 168.87C19.38 168.74 19.19 168.61 18.99 168.5C18.76 168.37 18.52 168.24 18.27 168.12C18.03 168.01 17.78 167.9 17.52 167.81C17.34 167.75 17.16 167.69 16.97 167.64C16.95 167.63 16.92 167.62 16.9 167.62C16.84 167.6 16.79 167.58 16.73 167.57C16.66 167.54 16.6 167.53 16.53 167.52C16.51 167.52 16.5 167.51 16.48 167.51C16.3 167.46 16.11 167.42 15.92 167.39C15.64 167.34 15.36 167.3 15.08 167.28C14.8 167.25 14.52 167.24 14.23 167.24C13.91 167.24 13.59 167.26 13.27 167.29C12.05 167.41 10.86 167.76 9.76999 168.3C9.61999 168.37 8.48999 168.86 8.48999 169.06V163.14C8.48999 162.37 8.29998 161.66 7.91998 161.01C7.53998 160.36 7.01998 159.84 6.38998 159.46C5.74998 159.08 5.03 158.88 4.25 158.88C3.46 158.91 2.74001 159.11 2.10001 159.49C1.46001 159.87 0.939998 160.38 0.559998 161.02C0.189998 161.66 0 162.36 0 163.09V186.13C0 187.32 0.410011 188.33 1.23001 189.15C2.05001 189.97 3.05 190.38 4.19 190.38C4.96 190.38 5.67999 190.2 6.32999 189.84C6.97999 189.47 7.50999 188.96 7.89999 188.3C8.28999 187.65 8.48999 186.93 8.48999 186.17V177.03C8.48999 176.18 8.78999 175.46 9.39999 174.89C9.99999 174.33 10.71 174.04 11.53 174.04C12.34 174.06 13.03 174.38 13.59 175C14.13 175.6 14.4 176.3 14.4 177.07V186.17C14.4 187.35 14.82 188.36 15.62 189.19C16.43 190.01 17.44 190.47 18.61 190.53C19.82 190.53 20.85 190.11 21.68 189.28C22.51 188.44 22.93 187.41 22.93 186.22V184.15C22.51 183.11 22.21 182.03 22.05 180.97C21.98 180.46 21.93 179.95 21.91 179.45Z" fill="#784726"/>
<path d="M48.0499 181.41C48.0499 181.41 48.0599 181.4 48.0699 181.4V178.33C47.8099 177.91 47.5799 177.45 47.3899 176.93C46.6599 174.93 46.8199 172.49 47.9599 170.35C47.7999 169.38 47.3999 168.39 46.7499 167.7C46.5099 167.45 46.2499 167.28 45.9699 167.16C45.8299 167.1 45.6899 167.06 45.5499 167.03C45.3999 167 45.2499 166.99 45.0999 166.99C44.6099 166.99 44.0999 167.14 43.6199 167.39C43.4799 167.46 43.3499 167.54 43.2199 167.63C42.9499 167.8 42.6899 168.01 42.4199 168.22C42.2799 168.33 42.1499 168.43 42.0099 168.53C41.4599 168.92 40.8799 169.25 40.2499 169.25C39.9899 169.25 39.7299 169.19 39.4499 169.06C39.0299 168.87 38.6599 168.57 38.2799 168.32C37.1599 167.58 35.8899 167.27 34.5999 167.27C34.0399 167.27 33.4699 167.33 32.9099 167.44C32.3499 167.55 31.7999 167.71 31.2699 167.91C30.9099 168.04 30.5599 168.19 30.2299 168.36C27.7699 169.57 25.9199 171.69 24.8699 174.16C24.1799 175.8 23.8399 177.59 23.9099 179.38C23.9299 179.81 23.9699 180.25 24.0299 180.68C24.1599 181.6 24.4199 182.53 24.7799 183.42C24.8299 183.54 24.8799 183.67 24.9299 183.79C24.9999 183.96 25.0799 184.12 25.1699 184.29C25.3099 184.58 25.4599 184.86 25.6199 185.14C25.7399 185.35 25.8699 185.55 25.9999 185.75C26.2699 186.15 26.5499 186.53 26.8599 186.9C27.0099 187.08 27.1699 187.26 27.3299 187.43C29.0499 189.26 31.2999 190.48 33.7199 190.48C34.0299 190.48 34.3399 190.46 34.6599 190.42C35.6299 190.29 36.5999 189.97 37.4699 189.49C38.3099 189.03 39.0899 188.44 40.0899 188.42H40.1199C41.2399 188.42 41.9099 189.25 42.7499 189.81C42.8299 189.87 42.9199 189.93 43.0099 189.97C43.1699 190.07 43.3499 190.16 43.5399 190.22C43.8399 190.32 44.1499 190.36 44.4599 190.36C45.3599 190.36 46.2399 189.96 46.8899 189.31C47.0599 189.14 47.2099 188.96 47.3299 188.76C46.4999 187.79 45.8699 186.58 45.8499 185.25C45.8199 183.72 46.6099 182.36 48.0499 181.41ZM40.7899 179.94C40.7199 180.46 40.5099 180.98 40.1699 181.48C39.7399 182.19 39.1499 182.74 38.4199 183.12C37.6899 183.49 36.8999 183.68 36.0799 183.68C34.6999 183.68 33.5299 183.19 32.6099 182.22C31.7999 181.32 31.3999 180.24 31.3999 179C31.4299 178.84 31.4499 178.71 31.4599 178.62C31.4599 178.5 31.4799 178.36 31.5099 178.16C31.7399 177.04 32.2699 176.13 33.0599 175.45C33.8799 174.73 34.8799 174.37 36.0299 174.37C36.6499 174.37 37.3099 174.51 37.9799 174.79C39.5799 175.41 40.5399 176.64 40.8399 178.45C40.8399 179.08 40.8199 179.57 40.7899 179.94Z" fill="#784726"/>
<path d="M66.9101 179.25C66.7801 179.11 66.6401 178.97 66.5001 178.84C66.3501 178.7 66.2001 178.57 66.0401 178.44C66.0401 178.44 66.0301 178.44 66.0201 178.42C65.8701 178.3 65.7101 178.19 65.5401 178.08C65.3601 177.95 65.1701 177.84 64.9801 177.73C64.7901 177.62 64.6001 177.52 64.4101 177.43C63.8901 177.17 63.3501 176.95 62.8101 176.77C62.5401 176.67 62.2701 176.59 62.0001 176.51H61.9901C61.6901 176.42 61.3801 176.34 61.0801 176.27C60.7701 176.19 60.4701 176.13 60.1801 176.07C59.1801 175.87 58.1301 175.66 57.5101 174.76C56.7101 173.63 57.5701 172.57 58.8301 172.55H58.8901C59.0301 172.55 59.1801 172.55 59.3201 172.59C59.4201 172.6 59.5201 172.62 59.6201 172.64C59.7601 172.67 59.9001 172.71 60.0301 172.75C60.1801 172.8 60.3301 172.85 60.4801 172.91C60.5601 172.93 60.6301 172.96 60.7101 172.99C61.8101 173.4 63.1301 173.83 64.3901 173.83C65.1201 173.83 65.8301 173.68 66.4701 173.31C66.6401 173.21 66.7801 173.11 66.9101 172.99V169.21C66.7501 169.04 66.5601 168.88 66.3501 168.75C64.3801 167.48 61.7901 166.88 59.2301 166.88C57.1601 166.88 55.1101 167.27 53.4001 168.01C53.2001 168.09 53.0201 168.19 52.8301 168.29C52.8101 168.3 52.8001 168.31 52.7801 168.32C52.6801 168.37 52.5801 168.43 52.4801 168.49C52.4201 168.52 52.3501 168.57 52.2901 168.61C52.2801 168.61 52.2801 168.61 52.2701 168.63C52.1601 168.69 52.0501 168.76 51.9501 168.84C51.7501 168.98 51.5701 169.13 51.3901 169.28C51.3001 169.36 51.2101 169.44 51.1301 169.52C51.0801 169.56 51.0401 169.6 51.0001 169.65C50.9601 169.69 50.9101 169.74 50.8701 169.79C50.7701 169.88 50.6801 169.98 50.5901 170.09C50.5501 170.14 50.5101 170.19 50.4701 170.24C50.3801 170.35 50.2901 170.46 50.2101 170.57C50.1501 170.65 50.1001 170.73 50.0401 170.81C49.9201 170.99 49.8101 171.17 49.7101 171.36C49.6101 171.54 49.5201 171.73 49.4401 171.92C49.3701 172.06 49.3201 172.21 49.2701 172.36C49.2301 172.46 49.2001 172.57 49.1701 172.67C49.1701 172.67 49.1668 172.677 49.1601 172.69C49.1401 172.77 49.1201 172.86 49.1001 172.93C49.1001 172.93 49.0901 172.97 49.0901 172.98C49.0601 173.1 49.0401 173.2 49.0201 173.32C48.9901 173.45 48.9801 173.58 48.9601 173.72C48.8701 174.55 48.9601 175.4 49.2701 176.24C49.3301 176.41 49.4001 176.58 49.4801 176.73C49.5201 176.82 49.5601 176.91 49.6101 176.99C49.7501 177.25 49.9001 177.49 50.0701 177.71C50.0801 177.72 50.0901 177.73 50.0901 177.74C50.1001 177.76 50.1201 177.78 50.1301 177.79H50.1401C50.2301 177.91 50.3001 178 50.3901 178.09C50.4401 178.15 50.5001 178.21 50.5601 178.27C50.6201 178.33 50.6801 178.39 50.7401 178.44C50.9801 178.66 51.2301 178.85 51.5101 179.02C51.5901 179.07 51.6701 179.12 51.7601 179.17C51.8501 179.22 51.9401 179.27 52.0401 179.32C52.2001 179.41 52.3701 179.48 52.5401 179.56C52.5601 179.56 52.5801 179.57 52.6001 179.58C52.7701 179.65 52.9401 179.72 53.1201 179.78C53.2501 179.83 53.3901 179.87 53.5201 179.91C53.7701 179.99 54.0201 180.06 54.2801 180.14C54.6001 180.22 54.9201 180.3 55.2401 180.37C55.9301 180.53 56.6201 180.68 57.3101 180.86C58.2101 181.09 59.6601 181.62 59.8601 182.69C59.9501 183.19 59.7501 183.57 59.4001 183.82C59.3401 183.86 59.2801 183.9 59.2101 183.93H59.2001C59.2001 183.93 59.1401 183.97 59.1001 183.98C59.0601 184 59.0201 184.01 58.9801 184.02C58.9301 184.05 58.8701 184.06 58.8101 184.07C58.8001 184.08 58.7901 184.08 58.7801 184.08L58.6301 184.11C58.5401 184.11 58.4501 184.13 58.3601 184.13H58.3301C57.2801 184.11 56.2001 183.74 55.2101 183.4C53.9501 182.97 52.6501 182.51 51.3001 182.51C51.0901 182.51 50.8801 182.52 50.6901 182.55H50.6601C50.5301 182.57 50.4101 182.59 50.2901 182.62C50.2801 182.62 50.2601 182.63 50.2501 182.63H50.2401C50.1801 182.64 50.1201 182.65 50.0701 182.67C49.7301 182.76 49.4301 182.9 49.1501 183.08C48.9901 183.18 48.8501 183.29 48.7201 183.41C48.6301 183.48 48.5501 183.56 48.4801 183.64C48.4401 183.69 48.4001 183.73 48.3601 183.78C48.3201 183.82 48.2901 183.87 48.2601 183.92C48.2501 183.94 48.2301 183.95 48.2201 183.97C48.2201 183.98 48.2201 183.99 48.2201 184C48.1901 184.04 48.1701 184.08 48.1401 184.13C48.1201 184.17 48.1001 184.21 48.0801 184.25C48.0401 184.34 48.0001 184.41 47.9801 184.5V184.52C47.9601 184.58 47.9501 184.62 47.9301 184.68C47.9101 184.76 47.9001 184.83 47.8901 184.9C47.8801 184.99 47.8701 185.08 47.8701 185.17C47.8701 185.52 47.9501 185.87 48.0901 186.21C48.1701 186.41 48.2701 186.61 48.3901 186.8C48.4401 186.89 48.5101 186.98 48.5701 187.08C48.6401 187.17 48.7101 187.26 48.7801 187.35C48.9301 187.54 49.1001 187.72 49.2701 187.89C49.4101 188.02 49.5601 188.16 49.7101 188.28C49.7301 188.3 49.7501 188.31 49.7701 188.33C49.9801 188.49 50.2001 188.65 50.4201 188.78C52.6901 190.16 55.6501 190.46 58.2701 190.48H58.4401C60.9701 190.46 63.5801 189.92 65.5901 188.34C66.1201 187.93 66.5901 187.46 66.9901 186.95C66.9501 186.68 66.9301 186.41 66.9301 186.13V179.25H66.9101Z" fill="#784726"/>
<path d="M90.2699 170.55C89.8499 170.01 89.3599 169.52 88.8099 169.11C88.6899 169.01 88.5599 168.92 88.4299 168.83C88.2699 168.72 88.0899 168.61 87.9099 168.5C87.6799 168.37 87.4299 168.24 87.1799 168.12C86.9399 168.01 86.6799 167.9 86.4299 167.81C86.2499 167.75 86.0599 167.69 85.8799 167.64C85.7299 167.59 85.5699 167.54 85.4099 167.51C85.2199 167.46 85.0299 167.42 84.8299 167.39H84.8199C84.5499 167.34 84.2699 167.3 83.9899 167.28C83.7099 167.25 83.4199 167.24 83.1399 167.24C82.8199 167.24 82.4999 167.26 82.1799 167.29C80.9699 167.41 79.7799 167.76 78.6799 168.3C78.5399 168.37 77.3999 168.86 77.3999 169.06V163.14C77.3999 162.37 77.2099 161.66 76.8399 161.01C76.4599 160.36 75.9399 159.84 75.2999 159.46C74.6599 159.08 73.9399 158.88 73.1599 158.88C72.3799 158.91 71.6599 159.11 71.0199 159.49C70.3699 159.87 69.8499 160.38 69.4799 161.02C69.0999 161.66 68.9099 162.36 68.9099 163.09V186.13C68.9099 186.57 68.9699 186.99 69.0899 187.38C69.1299 187.54 69.1899 187.7 69.2499 187.84C69.3299 188.03 69.4299 188.22 69.5499 188.4C69.6199 188.52 69.7099 188.64 69.7999 188.75C69.8999 188.89 70.0199 189.02 70.1499 189.15C70.9699 189.97 71.9599 190.38 73.1099 190.38C73.8699 190.38 74.5899 190.2 75.2499 189.84C75.8999 189.47 76.4299 188.96 76.8199 188.3C77.1999 187.65 77.3999 186.93 77.3999 186.17V177.03C77.3999 176.18 77.7099 175.46 78.3199 174.89C78.9099 174.33 79.6299 174.04 80.4499 174.04C81.2499 174.06 81.9399 174.38 82.4999 175C83.0399 175.6 83.3199 176.3 83.3199 177.07V186.17C83.3199 187.35 83.7299 188.36 84.5399 189.19C85.3499 190.01 86.3499 190.47 87.5299 190.53C88.7299 190.53 89.7599 190.11 90.5899 189.28C90.6999 189.17 90.7899 189.07 90.8899 188.96C90.4799 188.11 90.2699 187.16 90.2699 186.14V170.55Z" fill="#784726"/>
<path d="M111.61 169.03C110.44 168.26 109.09 167.72 107.58 167.44C106.94 167.29 106.32 167.22 105.73 167.22C104.65 167.22 103.45 167.44 102.14 167.86C101.74 168 101.5 168.08 101.19 168.08H100.72V163.25C100.72 162.47 100.52 161.73 100.15 161.09C99.79 160.43 99.2701 159.91 98.6201 159.51C97.9801 159.13 97.25 158.93 96.47 158.93C95.31 158.96 94.31 159.38 93.5 160.22C92.69 161.05 92.27 162.06 92.27 163.21V186.14C92.27 187.25 92.59 188.2 93.23 188.97C93.3 189.06 93.39 189.16 93.48 189.25C94.15 189.93 95.02 190.44 95.98 190.44C96.09 190.44 96.19 190.44 96.3 190.42C97.61 190.25 98.48 188.99 99.78 188.79C99.89 188.77 100 188.76 100.12 188.76C100.62 188.76 101.15 188.93 101.67 189.15C101.85 189.23 102.02 189.31 102.19 189.39C102.71 189.64 103.23 189.91 103.71 190.11C103.88 190.17 104.04 190.23 104.19 190.27C104.69 190.41 105.2 190.48 105.69 190.52C105.84 190.53 106 190.53 106.15 190.53C108.82 190.53 111.36 189.12 113.22 187.12C113.55 186.76 113.87 186.37 114.16 185.98C114.25 185.86 114.33 185.74 114.41 185.61V171.85C113.66 170.71 112.71 169.77 111.61 169.03ZM109.43 179.85C109.36 180.37 109.15 180.89 108.81 181.38C108.38 182.09 107.79 182.65 107.06 183.02C106.33 183.4 105.54 183.59 104.72 183.59C103.34 183.59 102.17 183.09 101.25 182.12C100.44 181.23 100.04 180.14 100.04 178.9C100.07 178.75 100.1 178.61 100.11 178.52C100.11 178.4 100.13 178.27 100.14 178.06C100.38 176.95 100.91 176.03 101.7 175.35C102.52 174.64 103.52 174.28 104.66 174.28C105.29 174.28 105.95 174.42 106.62 174.69C108.22 175.32 109.18 176.54 109.48 178.35C109.48 178.98 109.47 179.48 109.43 179.85Z" fill="#784726"/>
<path d="M134.77 169.38C134.7 169.24 134.62 169.11 134.53 168.99C134.42 168.81 134.28 168.65 134.13 168.49C134.03 168.39 133.92 168.29 133.81 168.2C133.79 168.19 133.77 168.17 133.75 168.16C133.63 168.06 133.5 167.98 133.37 167.9C133.23 167.81 133.09 167.74 132.94 167.67C132.87 167.64 132.81 167.61 132.74 167.59C132.73 167.58 132.72 167.58 132.71 167.58C132.58 167.52 132.44 167.48 132.31 167.44C132.23 167.41 132.15 167.39 132.08 167.38C132 167.36 131.92 167.35 131.84 167.33C131.81 167.33 131.77 167.32 131.74 167.32C131.67 167.31 131.6 167.3 131.53 167.29C131.43 167.28 131.32 167.27 131.22 167.27H131.03C129.63 167.27 128.18 167.75 127.11 168.65C126.54 169.13 126.18 169.81 125.58 170.24C125.42 170.35 125.26 170.4 125.1 170.4C125.04 170.4 124.99 170.39 124.93 170.38C124.87 170.37 124.81 170.36 124.76 170.33C124.69 170.31 124.62 170.28 124.56 170.24C124.52 170.22 124.47 170.19 124.43 170.16C124.38 170.14 124.34 170.1 124.3 170.07C124.26 170.04 124.21 170 124.17 169.97C124.13 169.94 124.08 169.9 124.04 169.86C123.95 169.79 123.87 169.71 123.79 169.63C123.68 169.51 123.57 169.4 123.46 169.3C123.44 169.27 123.41 169.25 123.38 169.22C123.36 169.19 123.34 169.17 123.31 169.15C123.26 169.1 123.22 169.05 123.17 169.02C122.64 168.59 122.06 168.21 121.44 167.93C121.31 167.87 121.18 167.83 121.05 167.78C120.85 167.72 120.65 167.67 120.45 167.63C120.25 167.6 120.05 167.58 119.85 167.58C119.48 167.58 119.12 167.65 118.77 167.78C118.6 167.85 118.43 167.94 118.27 168.04C118.1 168.15 117.95 168.27 117.8 168.42C117.69 168.52 117.59 168.63 117.5 168.75C117.44 168.82 117.39 168.89 117.34 168.96C117.28 169.03 117.23 169.1 117.18 169.18C117.11 169.28 117.04 169.4 116.98 169.51C116.93 169.6 116.88 169.7 116.84 169.79C116.82 169.84 116.8 169.88 116.78 169.93C116.72 170.06 116.67 170.19 116.63 170.32C116.58 170.46 116.54 170.6 116.51 170.75C116.48 170.86 116.46 170.98 116.45 171.1C116.43 171.17 116.43 171.24 116.42 171.31V171.34C116.41 171.45 116.41 171.53 116.41 171.64V186.36C116.41 187.53 116.83 188.52 117.66 189.32C118.49 190.12 119.51 190.53 120.68 190.53C121.43 190.52 122.14 190.31 122.78 189.91C123.43 189.52 123.95 188.97 124.32 188.29C124.7 187.6 124.9 186.84 124.9 186.02V181.75C124.9 180.1 125.11 178.53 126.35 177.32C126.47 177.21 126.59 177.1 126.72 177C126.97 176.79 127.24 176.61 127.51 176.45C127.64 176.38 127.78 176.3 127.92 176.23C129.06 175.66 130.32 175.35 131.52 174.9C131.82 173.91 132.24 172.96 132.78 172.05C133.35 171.08 134.01 170.2 134.79 169.42C134.78 169.41 134.78 169.39 134.77 169.38Z" fill="#784726"/>
<path d="M153.31 171.51C153.31 171.08 153.35 170.65 153.43 170.24C153.39 170.2 153.36 170.17 153.32 170.14C152.23 169.19 150.98 168.44 149.61 167.93C148.23 167.42 146.71 167.16 145.11 167.16C142.85 167.16 140.76 167.69 138.9 168.75C138.24 169.12 137.62 169.55 137.06 170.03C136.04 170.88 135.19 171.9 134.51 173.06C133.9 174.1 133.46 175.2 133.2 176.35C133.01 177.18 132.91 178.05 132.91 178.93C132.93 181.01 133.47 182.97 134.54 184.73C135.6 186.5 137.08 187.92 138.93 188.94C140.78 189.97 142.86 190.49 145.11 190.49C147.36 190.49 149.49 189.95 151.37 188.88C152.63 188.16 153.72 187.26 154.62 186.19C155.51 185.14 156.19 183.96 156.63 182.7C156.85 182.08 157.01 181.45 157.12 180.81L154.05 174.52C153.56 173.48 153.31 172.47 153.31 171.51ZM149.78 179.85C149.71 180.37 149.5 180.89 149.16 181.38C148.73 182.09 148.14 182.65 147.41 183.02C146.68 183.4 145.89 183.59 145.07 183.59C143.69 183.59 142.52 183.09 141.6 182.12C140.79 181.23 140.39 180.14 140.39 178.9C140.42 178.75 140.44 178.61 140.45 178.52C140.45 178.4 140.47 178.27 140.49 178.06C140.73 176.95 141.25 176.03 142.05 175.35C142.87 174.64 143.87 174.28 145.01 174.28C145.64 174.28 146.29 174.42 146.97 174.69C148.57 175.32 149.53 176.54 149.82 178.35C149.82 178.98 149.81 179.48 149.78 179.85Z" fill="#784726"/>
<path d="M187.61 167.24C186.99 167.24 186.39 167.36 185.83 167.58C185.27 167.8 184.77 168.13 184.34 168.55C183.92 168.96 183.62 169.42 183.45 169.9L180.3 178.31L177.85 171.09C177.25 169.31 176.29 167.61 174.3 167.2C174.12 167.16 173.94 167.14 173.77 167.13C173.68 167.13 173.59 167.12 173.51 167.12C173.47 167.12 173.43 167.13 173.39 167.13C173.16 167.13 172.94 167.16 172.73 167.2C172.69 167.21 172.65 167.21 172.61 167.22C172.38 167.28 172.15 167.35 171.94 167.45C171.71 167.56 171.49 167.69 171.29 167.84C171.09 167.99 170.9 168.15 170.72 168.34C170.55 168.52 170.38 168.72 170.22 168.94C169.76 169.58 169.39 170.33 169.13 171.1L166.45 178.3L163.53 169.9C163.35 169.41 163.05 168.95 162.63 168.54C162.22 168.13 161.71 167.81 161.13 167.58C160.55 167.36 159.96 167.24 159.39 167.24C158.82 167.28 158.23 167.44 157.66 167.71C156.94 168.06 156.36 168.57 155.94 169.25C155.86 169.39 155.78 169.53 155.72 169.67C155.45 170.24 155.31 170.86 155.31 171.51C155.31 171.84 155.36 172.19 155.45 172.54C155.54 172.9 155.68 173.27 155.86 173.66L156.91 175.82V175.84L159.19 180.49L162.45 187.16C162.98 188.23 163.59 189 164.28 189.46C164.95 189.9 165.76 190.13 166.69 190.13C167.22 190.12 167.74 190 168.22 189.76C168.71 189.53 169.15 189.21 169.52 188.79C169.89 188.38 170.2 187.86 170.43 187.25L173.56 180.04L176.49 187.26C176.87 188.15 177.4 188.86 178.07 189.35C178.73 189.83 179.48 190.09 180.3 190.13C182.14 190.13 183.55 189.13 184.51 187.17L189.07 177.82V171.6C189.07 170.25 189.43 169.1 190.03 168.17C189.81 167.99 189.57 167.84 189.31 167.71C188.73 167.44 188.16 167.28 187.61 167.24Z" fill="#784726"/>
<path d="M207.28 167.37C206.74 167.26 206.19 167.21 205.64 167.21C204.48 167.21 203.32 167.44 202.25 167.88C201.61 168.14 201.01 168.61 200.4 168.96C200.28 169.03 200.17 169.09 200.05 169.14C199.94 169.2 199.83 169.25 199.72 169.29C199.61 169.33 199.51 169.36 199.39 169.39C199.23 169.43 199.07 169.45 198.9 169.45C198.64 169.45 198.37 169.4 198.09 169.28C196.93 168.8 196.09 167.62 194.76 167.57H194.63C194.09 167.57 193.6 167.69 193.16 167.91C192.94 168.02 192.74 168.16 192.55 168.31C192.02 168.74 191.61 169.34 191.36 170.01C191.17 170.51 191.07 171.06 191.07 171.6V186.09C191.07 187.26 191.48 188.29 192.29 189.13C193.13 189.93 194.14 190.34 195.31 190.34C196.48 190.34 197.45 189.94 198.25 189.14C199.09 188.3 199.52 187.27 199.52 186.09V177.07C199.52 176.28 199.82 175.55 200.41 174.91C200.97 174.33 201.68 174.04 202.51 174.04C203.34 174.04 204.06 174.36 204.58 174.97C205.18 175.53 205.48 176.24 205.48 177.07V186.13C205.48 187.33 205.9 188.34 206.74 189.16C207.58 189.97 208.61 190.38 209.79 190.38C210.55 190.37 211.26 190.17 211.91 189.79C212.55 189.41 213.06 188.89 213.44 188.24C213.82 187.6 214.01 186.88 214.01 186.09V174.93C214.01 171.15 210.87 168.07 207.28 167.37Z" fill="#784726"/>
<path d="M155.02 71.4299C152.77 71.4299 150.77 71.1099 149.24 70.6499C147.22 70.0499 146.07 67.9299 146.67 65.9099C147.27 63.8999 149.38 62.7499 151.39 63.3399C151.49 63.3699 154.45 64.1699 158.03 63.5099C162.62 62.6599 166.19 59.7999 168.65 55.0199C169.61 53.1499 171.91 52.3999 173.78 53.3699C175.65 54.3299 176.39 56.6299 175.43 58.4999C170.2 68.6999 161.55 71.4399 155.01 71.4399L155.02 71.4299Z" fill="#784726"/>
<path d="M58.9901 76.07C52.4401 76.07 43.8001 73.33 38.5701 63.13C37.6101 61.26 38.3501 58.96 40.2201 58C42.1001 57.04 44.3901 57.78 45.3501 59.65C47.8101 64.44 51.3801 67.29 55.9701 68.14C59.5901 68.81 62.5801 67.98 62.6101 67.97C64.6201 67.4 66.7401 68.56 67.3201 70.57C67.9001 72.58 66.7701 74.69 64.7601 75.28C63.2301 75.74 61.2301 76.06 58.9801 76.06L58.9901 76.07Z" fill="#784726"/>
<path d="M133.45 138.24H88.5401C85.4701 138.24 82.4501 137.42 79.8001 135.87C79.6901 135.8 79.5801 135.73 79.4701 135.66L72.3201 130.66C70.1001 129.1 69.5601 126.04 71.1101 123.82C72.6701 121.6 75.7301 121.06 77.9501 122.61L84.9201 127.49C86.0201 128.1 87.2701 128.43 88.5401 128.43H133.45C134.77 128.43 136.06 128.08 137.2 127.42L144.1 122.62C146.27 121 149.35 121.44 150.97 123.62C152.59 125.79 152.15 128.87 149.97 130.49L142.87 135.44C142.75 135.53 142.63 135.61 142.51 135.68C139.78 137.36 136.65 138.25 133.44 138.25L133.45 138.24Z" fill="#A5D4D5"/>
<path d="M91.61 147.46C94.145 147.46 96.2 145.405 96.2 142.87C96.2 140.335 94.145 138.28 91.61 138.28C89.0751 138.28 87.02 140.335 87.02 142.87C87.02 145.405 89.0751 147.46 91.61 147.46Z" fill="#E98C4D"/>
<path d="M93.52 137.05H89.7V140.22H93.52V137.05Z" fill="#E98C4D"/>
<path d="M133.53 147.46C136.065 147.46 138.12 145.405 138.12 142.87C138.12 140.335 136.065 138.28 133.53 138.28C130.995 138.28 128.94 140.335 128.94 142.87C128.94 145.405 130.995 147.46 133.53 147.46Z" fill="#E98C4D"/>
<path d="M135.44 137.05H131.62V140.22H135.44V137.05Z" fill="#E98C4D"/>
<path d="M150.97 123.61C150.01 122.32 148.53 121.64 147.03 121.64C146.01 121.64 144.98 121.96 144.1 122.62L137.2 127.42C136.06 128.08 134.77 128.43 133.45 128.43H88.5401C87.2701 128.43 86.0301 128.11 84.9201 127.49L77.9501 122.61C77.0901 122.01 76.1101 121.72 75.1401 121.72C73.5901 121.72 72.0701 122.45 71.1101 123.82C69.5501 126.04 70.1001 129.1 72.3201 130.66L79.4701 135.66C79.5801 135.74 79.6901 135.81 79.8001 135.87C82.4501 137.42 85.4701 138.24 88.5401 138.24H89.7001V138.71C88.1201 139.44 87.0201 141.02 87.0201 142.87C87.0201 145.4 89.0701 147.46 91.6101 147.46C94.1501 147.46 96.2001 145.41 96.2001 142.87C96.2001 141.02 95.1001 139.44 93.5201 138.71V138.24H131.62V138.71C130.04 139.44 128.94 141.02 128.94 142.87C128.94 145.4 130.99 147.46 133.53 147.46C136.07 147.46 138.12 145.41 138.12 142.87C138.12 141.02 137.02 139.44 135.44 138.71V138.12C137.94 137.83 140.35 137 142.51 135.67C142.63 135.59 142.75 135.51 142.87 135.43L149.97 130.48C152.14 128.86 152.59 125.78 150.97 123.61ZM91.6101 144.76C90.5701 144.76 89.7101 143.91 89.7101 142.86C89.7101 141.81 90.5601 140.96 91.6101 140.96C92.6601 140.96 93.5101 141.81 93.5101 142.86C93.5101 143.91 92.6601 144.76 91.6101 144.76ZM133.53 144.76C132.49 144.76 131.63 143.91 131.63 142.86C131.63 141.81 132.48 140.96 133.53 140.96C134.58 140.96 135.43 141.81 135.43 142.86C135.43 143.91 134.58 144.76 133.53 144.76ZM148.78 126.8C148.71 127.26 148.48 127.66 148.12 127.94L141.08 132.85L141.04 132.88L141 132.91C141 132.91 140.92 132.97 140.87 133C138.64 134.38 136.08 135.1 133.45 135.1H88.5401C86.0301 135.1 83.5601 134.43 81.4001 133.16C81.3601 133.14 81.3201 133.11 81.2801 133.08L74.1301 128.08C73.7401 127.81 73.4801 127.4 73.4001 126.94C73.3201 126.47 73.42 126 73.69 125.62C74.03 125.14 74.5601 124.86 75.1501 124.86C75.4001 124.86 75.7801 124.92 76.1601 125.18L83.1301 130.06L83.2601 130.15L83.4001 130.23C84.9701 131.1 86.7501 131.56 88.5401 131.56H133.45C135.32 131.56 137.16 131.06 138.78 130.12L138.89 130.06L138.99 129.99L145.89 125.19L145.93 125.16L145.97 125.13C146.36 124.84 146.76 124.78 147.03 124.78C147.6 124.78 148.11 125.04 148.45 125.49C148.73 125.87 148.85 126.33 148.78 126.8Z" fill="#784726"/>
<path d="M102.12 109.84L94.3 109.8L94.6 123.86H94.55C92.37 123.91 90.48 125.12 89.47 126.89C88.69 128.26 89.69 129.96 91.26 129.94H100.41C101.58 129.91 102.51 128.94 102.49 127.77L102.44 125.32L102.11 109.85L102.12 109.84Z" fill="#784726"/>
<path d="M119.79 109.84L127.61 109.8L127.31 123.86H127.36C129.54 123.91 131.43 125.12 132.44 126.89C133.22 128.26 132.22 129.96 130.65 129.94H121.5C120.33 129.91 119.4 128.94 119.42 127.77L119.47 125.32L119.8 109.85L119.79 109.84Z" fill="#784726"/>
<path d="M155.77 74.35C155.69 74.1 155.6 73.87 155.5 73.62C155.07 72.56 154.47 71.49 153.71 70.41C154.6 69.39 155.34 68.21 155.9 66.93C155.99 66.72 156.07 66.51 156.16 66.29C156.77 64.68 157.09 62.92 157.09 61.11C157.09 57.53 155.88 54.25 153.72 51.82C155.94 48.68 156.74 45.61 156.09 42.66C155.3 39.09 152.56 36.75 150.75 35.56C152.22 30.26 151.81 25.96 149.55 22.76C147.07 19.23 143.03 18.11 140.8 17.75C140.08 15.44 138.91 13.63 137.29 12.33C134.36 0.129987 120.95 5.51999 120.95 5.51999C116.14 1.47999 111.47 0.08 107.32 0H105.18C101.04 0.08 96.3702 1.46999 91.5502 5.51999C91.5502 5.51999 77.8102 -6.67572e-06 75.1102 12.79C75.1102 12.79 58.7202 13.1 64.9202 31.6C64.9202 31.6 52.2102 37.43 61.9902 48.89C58.9802 51.29 57.4002 55.18 57.4102 59.03C57.4102 61.25 57.9502 63.45 59.0502 65.34C59.2502 65.68 61.6402 69.59 61.9802 69.18C56.6002 75.49 58.0302 80.08 60.4102 82.95C62.3502 85.29 64.9202 86.47 64.9202 86.47C64.5802 87.49 64.3002 88.45 64.1002 89.35C60.4702 105 75.1102 105.28 75.1102 105.28C77.9602 114.1 85.6702 115.4 91.5302 113.05C92.1702 112.8 92.7802 112.51 93.3602 112.17C95.1102 112.07 96.6402 111.7 97.6402 111.41C98.3802 111.98 99.1302 112.5 99.9002 112.97C103.17 114.98 106.65 116.02 110.27 116.09H112.23C115.2 116.03 118.08 115.31 120.85 113.91C122.2 113.24 123.52 112.4 124.81 111.41C125.79 111.7 127.29 112.06 129.01 112.17C131.12 112.31 133.55 112.08 135.75 110.91C138.17 109.62 139.86 107.46 140.79 104.47C143.03 104.11 147.06 102.99 149.54 99.47C151.8 96.26 152.2 91.96 150.74 86.67C152.55 85.48 155.29 83.13 156.08 79.57C156.46 77.87 156.35 76.12 155.76 74.34L155.77 74.35ZM151.98 78.66C151.28 81.93 147.41 83.78 147.38 83.8C146.4 84.25 145.91 85.36 146.26 86.38C147.67 90.6 147.78 93.93 146.58 96.28C146.45 96.56 146.29 96.8 146.12 97.05C144.36 99.56 141.11 100.23 139.73 100.4C139.33 100.45 139.09 100.46 139.08 100.46C138.1 100.48 137.26 101.17 137.06 102.13C137.04 102.21 137.03 102.28 137.01 102.35C136.46 104.76 135.4 106.36 133.77 107.23C132 108.18 129.83 108.15 128.12 107.89C127.91 107.85 127.71 107.82 127.52 107.79C126.15 107.51 125.19 107.14 125.17 107.13C124.46 106.84 123.63 106.98 123.04 107.47C121.89 108.44 120.7 109.26 119.49 109.92C119.36 110 119.22 110.06 119.09 110.14L116.81 111.11C115.93 111.41 115.03 111.63 114.13 111.77L107.69 111.65C105.24 111.17 102.86 110.08 100.57 108.38C100.43 108.28 100.29 108.17 100.15 108.07C100.14 108.07 100.13 108.05 100.12 108.04L100.57 108.38C100.19 108.1 99.8102 107.8 99.4402 107.49C99.3202 107.39 99.1902 107.31 99.0602 107.24C98.7602 107.08 98.4202 107 98.0802 107C97.9102 107 97.7402 107.02 97.5802 107.07C97.4802 107.09 97.4002 107.11 97.3002 107.15C97.2602 107.17 94.8702 108.09 92.2602 108.06C91.0602 108.06 89.8102 107.84 88.7202 107.26C87.0402 106.36 85.9502 104.69 85.4202 102.15C85.2202 101.2 84.3802 100.51 83.4102 100.48C83.3602 100.48 78.6102 100.31 76.3502 97.07C74.6902 94.69 74.6502 91.1 76.2302 86.4C76.5702 85.38 76.0902 84.27 75.1202 83.82C75.0802 83.8 71.2402 81.96 70.5102 78.7C70.0502 76.63 70.9602 74.24 73.2002 71.61C73.9502 70.73 73.8502 69.4 72.9702 68.65C72.8402 68.54 72.6802 68.43 72.5302 68.36C72.0402 67.75 71.1002 66.3 70.7902 65.75C70.0202 64.42 69.6102 62.83 69.6102 61.14C69.6102 58.14 70.8302 55.35 72.9102 53.7C73.3602 53.35 73.6302 52.82 73.6902 52.25C73.7502 51.69 73.5702 51.12 73.2002 50.69C70.9602 48.06 70.0602 45.69 70.5102 43.61C71.2102 40.34 75.0802 38.49 75.1202 38.48C76.0902 38.03 76.5802 36.92 76.2302 35.89C74.6502 31.2 74.7002 27.61 76.3502 25.23C78.6102 21.99 83.3602 21.82 83.4002 21.82C84.3802 21.8 85.2202 21.11 85.4202 20.15C85.9502 17.63 87.0302 15.95 88.7102 15.06C92.2002 13.18 97.2502 15.14 97.3002 15.16C98.0102 15.45 98.8402 15.32 99.4402 14.82C102.87 11.95 106.53 10.44 110.29 10.38H112.17C115.96 10.45 119.62 11.95 123.06 14.82C123.65 15.32 124.47 15.45 125.19 15.16C125.24 15.14 130.3 13.18 133.79 15.06C135.46 15.95 136.54 17.63 137.07 20.15C137.27 21.1 138.11 21.8 139.08 21.82C139.1 21.82 139.77 21.84 140.75 22.04C142.35 22.38 144.73 23.2 146.14 25.23C147 26.45 147.42 27.99 147.42 29.84C147.42 30.45 147.37 31.09 147.28 31.75C147.05 32.27 146.93 32.84 146.97 33.43C146.79 34.22 146.56 35.04 146.28 35.89C145.94 36.9 146.42 38.01 147.39 38.46C147.42 38.48 149.84 39.63 151.19 41.72C151.42 42.45 151.59 43.19 151.71 43.94C151.78 44.3 151.91 44.64 152.1 44.94C152.04 46.05 151.64 47.23 150.89 48.49C150.78 48.63 150.66 48.77 150.55 48.91C150.57 48.93 150.59 48.94 150.61 48.96C150.25 49.52 149.82 50.09 149.32 50.68C148.95 51.11 148.78 51.68 148.83 52.24C148.89 52.81 149.17 53.33 149.61 53.69C151.68 55.35 152.92 58.12 152.92 61.13C152.92 63.04 152.43 64.86 151.54 66.35C151.09 67.1 150.56 67.76 149.94 68.31C149.84 68.41 149.73 68.5 149.62 68.59C149.18 68.94 148.9 69.47 148.84 70.03C148.78 70.6 148.96 71.16 149.33 71.6C151.57 74.22 152.47 76.6 152.02 78.67L151.98 78.66Z" fill="#784726"/>
<path d="M149.57 53.6799C149.13 53.3299 148.85 52.7999 148.79 52.2299C148.74 51.6699 148.91 51.0999 149.28 50.6699C149.78 50.0799 150.21 49.5099 150.57 48.9499C150.67 48.7999 150.77 48.6499 150.86 48.4899C151.61 47.2199 152.01 46.0399 152.07 44.9299C152.09 44.4699 152.07 44.0299 151.97 43.5899C151.82 42.8999 151.53 42.2799 151.16 41.7199C149.81 39.6299 147.39 38.4799 147.36 38.4599C146.39 38.0099 145.9 36.8999 146.25 35.8899C146.54 35.0299 146.76 34.2199 146.94 33.4399C147.08 32.8499 147.19 32.2899 147.25 31.7499C147.35 31.0799 147.39 30.4499 147.39 29.8499C147.39 27.9899 146.96 26.4499 146.11 25.2399C144.7 23.2099 142.32 22.3899 140.72 22.0499C139.75 21.8499 139.07 21.8299 139.05 21.8299C138.08 21.7999 137.24 21.1099 137.04 20.1599C136.51 17.6399 135.43 15.9599 133.76 15.0699C130.27 13.1899 125.21 15.1499 125.16 15.1699C124.44 15.4599 123.62 15.3299 123.03 14.8299C119.59 11.9599 115.93 10.4499 112.14 10.3799H110.26C106.5 10.4599 102.84 11.9599 99.4102 14.8299C98.8102 15.3299 97.9801 15.4699 97.2701 15.1699C97.2201 15.1499 92.1702 13.1899 88.6802 15.0699C87.0002 15.9599 85.9201 17.6399 85.3901 20.1599C85.1901 21.1199 84.3502 21.8199 83.3702 21.8299C83.3302 21.8299 78.5801 21.9899 76.3201 25.2399C74.6601 27.6199 74.6201 31.2099 76.2001 35.8999C76.5401 36.9299 76.0601 38.0399 75.0901 38.4899C75.0501 38.4899 71.1902 40.3499 70.4802 43.6199C70.0302 45.6899 70.9402 48.0699 73.1702 50.6999C73.5402 51.1299 73.7202 51.6999 73.6602 52.2599C73.6002 52.8299 73.3301 53.3499 72.8801 53.7099C70.8001 55.3699 69.5701 58.1499 69.5801 61.1499C69.5801 62.8299 69.9901 64.4199 70.7601 65.7599C71.0701 66.2999 72.0201 67.7599 72.5001 68.3699C72.6501 68.4499 72.8001 68.5499 72.9401 68.6599C73.8201 69.4099 73.9202 70.7299 73.1702 71.6199C70.9202 74.2499 70.0202 76.6299 70.4802 78.7099C71.2002 81.9599 75.0501 83.8099 75.0901 83.8299C76.0601 84.2799 76.5501 85.3899 76.2001 86.4099C74.6201 91.1099 74.6701 94.6999 76.3201 97.0799C78.5801 100.32 83.3301 100.49 83.3801 100.49C84.3501 100.52 85.1901 101.2 85.3901 102.16C85.9201 104.7 87.0101 106.37 88.6901 107.27C89.7801 107.85 91.0302 108.06 92.2302 108.07C94.8502 108.1 97.2301 107.18 97.2701 107.16C97.3701 107.12 97.4502 107.1 97.5502 107.08C97.7102 107.03 97.8802 107.01 98.0502 107.01C98.3902 107.01 98.7302 107.09 99.0302 107.25C99.1602 107.32 99.2902 107.4 99.4102 107.5C99.7802 107.81 100.16 108.12 100.54 108.39C102.82 110.09 105.21 111.19 107.66 111.66C108.53 111.83 109.41 111.93 110.3 111.95H112.18C112.83 111.95 113.46 111.88 114.1 111.79C115 111.66 115.9 111.44 116.78 111.13C117.55 110.86 118.31 110.54 119.06 110.16C119.19 110.08 119.33 110.02 119.46 109.94C120.67 109.28 121.86 108.47 123.01 107.49C123.6 107 124.43 106.86 125.14 107.15C125.16 107.15 126.12 107.53 127.49 107.81C127.68 107.85 127.88 107.88 128.09 107.91C129.8 108.18 131.97 108.2 133.74 107.25C135.37 106.37 136.42 104.78 136.98 102.37C137 102.3 137.01 102.23 137.03 102.15C137.23 101.2 138.07 100.5 139.05 100.48C139.05 100.48 139.3 100.48 139.7 100.42C141.09 100.25 144.33 99.5799 146.09 97.0699C146.26 96.8199 146.41 96.5799 146.55 96.2999C147.75 93.9499 147.63 90.6199 146.23 86.3999C145.89 85.3799 146.37 84.2699 147.35 83.8199C147.38 83.7999 151.24 81.9599 151.95 78.6799C152.4 76.6099 151.49 74.2299 149.26 71.6099C148.89 71.1699 148.71 70.6099 148.77 70.0399C148.83 69.4799 149.11 68.9599 149.55 68.5999C149.66 68.5099 149.77 68.4199 149.87 68.3199C150.49 67.7699 151.02 67.1099 151.47 66.3699C152.35 64.8699 152.85 63.0499 152.85 61.1399C152.85 58.1299 151.61 55.3499 149.54 53.6999L149.57 53.6799Z" fill="#F9BB54"/>
<path d="M124.83 59.7099C126.702 59.7099 128.22 58.1922 128.22 56.3199C128.22 54.4477 126.702 52.9299 124.83 52.9299C122.958 52.9299 121.44 54.4477 121.44 56.3199C121.44 58.1922 122.958 59.7099 124.83 59.7099Z" fill="#3E3D3B"/>
<path d="M105.22 59.1699C107.093 59.1699 108.61 57.6521 108.61 55.7799C108.61 53.9076 107.093 52.3899 105.22 52.3899C103.348 52.3899 101.83 53.9076 101.83 55.7799C101.83 57.6521 103.348 59.1699 105.22 59.1699Z" fill="#3E3D3B"/>
<path d="M115.7 71.98C111.23 71.98 107.82 68.85 107.67 68.71C106.82 67.92 106.77 66.59 107.57 65.74C108.36 64.89 109.69 64.84 110.54 65.63C110.59 65.67 113.19 68 116.14 67.76C117.81 67.62 119.38 66.64 120.8 64.84C121.52 63.93 122.84 63.77 123.75 64.49C124.66 65.21 124.82 66.53 124.1 67.44C121.92 70.21 119.34 71.73 116.44 71.96C116.19 71.98 115.95 71.99 115.71 71.99L115.7 71.98Z" fill="#3E3D3B"/>
<path d="M107.929 30.1898L104.492 33.6263C103.918 34.2004 103.918 35.1311 104.492 35.7052L104.499 35.7123C105.073 36.2864 106.004 36.2864 106.578 35.7123L110.015 32.2757C110.589 31.7017 110.589 30.7709 110.015 30.1969L110.008 30.1898C109.433 29.6157 108.503 29.6157 107.929 30.1898Z" fill="#F8DDB6"/>
<path d="M95.6381 30.19L92.2016 33.6265C91.6275 34.2006 91.6275 35.1314 92.2016 35.7055L92.2086 35.7125C92.7827 36.2866 93.7135 36.2866 94.2875 35.7125L97.7241 32.276C98.2981 31.7019 98.2982 30.7711 97.7241 30.1971L97.717 30.19C97.143 29.6159 96.2122 29.6159 95.6381 30.19Z" fill="#DE983C"/>
<path d="M120.219 30.1895L116.782 33.6261C116.208 34.2001 116.208 35.1309 116.782 35.705L116.789 35.712C117.364 36.2861 118.294 36.2861 118.868 35.712L122.305 32.2755C122.879 31.7014 122.879 30.7707 122.305 30.1966L122.298 30.1896C121.724 29.6155 120.793 29.6155 120.219 30.1895Z" fill="#DE983C"/>
<path d="M132.509 30.1891L129.073 33.6256C128.499 34.1997 128.499 35.1304 129.073 35.7045L129.08 35.7116C129.654 36.2856 130.585 36.2856 131.159 35.7116L134.595 32.275C135.169 31.701 135.169 30.7702 134.595 30.1961L134.588 30.1891C134.014 29.615 133.083 29.615 132.509 30.1891Z" fill="#F8DDB6"/>
<path d="M105.773 85.6251L102.337 89.0616C101.763 89.6357 101.762 90.5665 102.337 91.1405L102.344 91.1476C102.918 91.7217 103.848 91.7216 104.423 91.1476L107.859 87.711C108.433 87.137 108.433 86.2062 107.859 85.6322L107.852 85.6251C107.278 85.051 106.347 85.051 105.773 85.6251Z" fill="#DE983C"/>
<path d="M93.4928 85.6253L90.0563 89.0619C89.4822 89.636 89.4822 90.5667 90.0563 91.1408L90.0634 91.1478C90.6374 91.7219 91.5682 91.7219 92.1422 91.1479L95.5788 87.7113C96.1529 87.1372 96.1529 86.2065 95.5788 85.6324L95.5717 85.6253C94.9976 85.0513 94.0669 85.0512 93.4928 85.6253Z" fill="#F8DDB6"/>
<path d="M118.064 85.6249L114.627 89.0614C114.053 89.6355 114.053 90.5662 114.627 91.1403L114.634 91.1474C115.208 91.7214 116.139 91.7214 116.713 91.1474L120.15 87.7108C120.724 87.1368 120.724 86.206 120.15 85.6319L120.143 85.6249C119.568 85.0508 118.638 85.0508 118.064 85.6249Z" fill="#F8DDB6"/>
<path d="M130.354 85.6143L126.917 89.0509C126.343 89.625 126.343 90.5557 126.917 91.1298L126.924 91.1369C127.499 91.7109 128.429 91.711 129.003 91.1369L132.44 87.7003C133.014 87.1262 133.014 86.1955 132.44 85.6214L132.433 85.6144C131.859 85.0403 130.928 85.0403 130.354 85.6143Z" fill="#DE983C"/>
<path d="M89.3603 71.95C92.4586 71.95 94.9703 69.4383 94.9703 66.34C94.9703 63.2416 92.4586 60.73 89.3603 60.73C86.262 60.73 83.7502 63.2416 83.7502 66.34C83.7502 69.4383 86.262 71.95 89.3603 71.95Z" fill="#E8A23D"/>
<path d="M139.17 71.95C142.269 71.95 144.78 69.4383 144.78 66.34C144.78 63.2416 142.269 60.73 139.17 60.73C136.072 60.73 133.56 63.2416 133.56 66.34C133.56 69.4383 136.072 71.95 139.17 71.95Z" fill="#E8A23D"/>
</svg>
