<svg width="214" height="184" viewBox="0 0 214 184" fill="none" xmlns="http://www.w3.org/2000/svg">
<path d="M21.91 172.19C21.84 170.29 22.16 168.42 22.82 166.69C22.79 166.46 22.74 166.25 22.69 166.04C22.69 166.02 22.68 166 22.67 165.99C22.63 165.81 22.58 165.63 22.52 165.46C22.5 165.39 22.47 165.31 22.44 165.24C22.4 165.14 22.36 165.04 22.32 164.94C22.31 164.92 22.31 164.91 22.3 164.89C22.22 164.7 22.13 164.52 22.03 164.34C21.98 164.24 21.92 164.14 21.86 164.04C21.78 163.91 21.7 163.78 21.62 163.66C21.5 163.48 21.37 163.31 21.24 163.15C21.2 163.1 21.16 163.06 21.13 163.02C21.01 162.88 20.89 162.75 20.76 162.62C20.61 162.46 20.45 162.31 20.29 162.17C20.11 162.01 19.92 161.86 19.72 161.72C19.67 161.68 19.62 161.64 19.57 161.61C19.38 161.48 19.19 161.35 18.99 161.24C18.76 161.11 18.52 160.98 18.27 160.86C18.03 160.75 17.78 160.64 17.52 160.55C17.34 160.49 17.16 160.43 16.97 160.38C16.95 160.37 16.92 160.36 16.9 160.36C16.84 160.34 16.79 160.32 16.73 160.31C16.66 160.28 16.6 160.27 16.53 160.26C16.51 160.26 16.5 160.25 16.48 160.25C16.3 160.2 16.11 160.16 15.92 160.13C15.64 160.08 15.36 160.04 15.08 160.02C14.8 159.99 14.52 159.98 14.23 159.98C13.91 159.98 13.59 160 13.27 160.03C12.05 160.15 10.86 160.5 9.76999 161.04C9.61999 161.11 8.48999 161.6 8.48999 161.8V155.88C8.48999 155.11 8.3 154.4 7.92 153.75C7.54 153.1 7.02 152.58 6.39 152.2C5.75 151.82 5.03 151.62 4.25 151.62C3.46 151.65 2.73999 151.85 2.09999 152.23C1.45999 152.61 0.939998 153.12 0.559998 153.76C0.189998 154.4 0 155.1 0 155.83V178.87C0 180.06 0.409996 181.07 1.23 181.89C2.05 182.71 3.04999 183.12 4.18999 183.12C4.95999 183.12 5.67999 182.94 6.32999 182.58C6.97999 182.21 7.50999 181.7 7.89999 181.04C8.28999 180.39 8.48999 179.67 8.48999 178.91V169.77C8.48999 168.92 8.78999 168.2 9.39999 167.63C9.99999 167.07 10.71 166.78 11.53 166.78C12.34 166.8 13.03 167.12 13.59 167.74C14.13 168.34 14.4 169.04 14.4 169.81V178.91C14.4 180.09 14.82 181.1 15.62 181.93C16.43 182.75 17.44 183.21 18.61 183.27C19.82 183.27 20.85 182.85 21.68 182.02C22.51 181.18 22.93 180.15 22.93 178.96V176.89C22.51 175.85 22.21 174.77 22.05 173.71C21.98 173.2 21.93 172.69 21.91 172.19Z" fill="#784726"/>
<path d="M48.0499 174.15C48.0499 174.15 48.0599 174.14 48.0699 174.14V171.07C47.8099 170.65 47.5799 170.19 47.3899 169.67C46.6599 167.67 46.8199 165.23 47.9599 163.09C47.7999 162.12 47.3999 161.13 46.7499 160.44C46.5099 160.19 46.2499 160.02 45.9699 159.9C45.8299 159.84 45.6899 159.8 45.5499 159.77C45.3999 159.74 45.2499 159.73 45.0999 159.73C44.6099 159.73 44.0999 159.88 43.6199 160.13C43.4799 160.2 43.3499 160.28 43.2199 160.37C42.9499 160.54 42.6899 160.75 42.4199 160.96C42.2799 161.07 42.1499 161.17 42.0099 161.27C41.4599 161.66 40.8799 161.99 40.2499 161.99C39.9899 161.99 39.7299 161.93 39.4499 161.8C39.0299 161.61 38.6599 161.31 38.2799 161.06C37.1599 160.32 35.8899 160.01 34.5999 160.01C34.0399 160.01 33.4699 160.07 32.9099 160.18C32.3499 160.29 31.7999 160.45 31.2699 160.65C30.9099 160.78 30.5599 160.93 30.2299 161.1C27.7699 162.31 25.9199 164.43 24.8699 166.9C24.1799 168.54 23.8399 170.33 23.9099 172.12C23.9299 172.55 23.9699 172.99 24.0299 173.42C24.1599 174.34 24.4199 175.27 24.7799 176.16C24.8299 176.28 24.8799 176.41 24.9299 176.53C24.9999 176.7 25.0799 176.86 25.1699 177.03C25.3099 177.32 25.4599 177.6 25.6199 177.88C25.7399 178.09 25.8699 178.29 25.9999 178.49C26.2699 178.89 26.5499 179.27 26.8599 179.64C27.0099 179.82 27.1699 180 27.3299 180.17C29.0499 182 31.2999 183.22 33.7199 183.22C34.0299 183.22 34.3399 183.2 34.6599 183.16C35.6299 183.03 36.5999 182.71 37.4699 182.23C38.3099 181.77 39.0899 181.18 40.0899 181.16H40.1199C41.2399 181.16 41.9099 181.99 42.7499 182.55C42.8299 182.61 42.9199 182.67 43.0099 182.71C43.1699 182.81 43.3499 182.9 43.5399 182.96C43.8399 183.06 44.1499 183.1 44.4599 183.1C45.3599 183.1 46.2399 182.7 46.8899 182.05C47.0599 181.88 47.2099 181.7 47.3299 181.5C46.4999 180.53 45.8699 179.32 45.8499 177.99C45.8199 176.46 46.6099 175.1 48.0499 174.15ZM40.7899 172.68C40.7199 173.2 40.5099 173.72 40.1699 174.22C39.7399 174.93 39.1499 175.48 38.4199 175.86C37.6899 176.23 36.8999 176.42 36.0799 176.42C34.6999 176.42 33.5299 175.93 32.6099 174.96C31.7999 174.06 31.3999 172.98 31.3999 171.74C31.4299 171.58 31.4499 171.45 31.4599 171.36C31.4599 171.24 31.4799 171.1 31.5099 170.9C31.7399 169.78 32.2699 168.87 33.0599 168.19C33.8799 167.47 34.8799 167.11 36.0299 167.11C36.6499 167.11 37.3099 167.25 37.9799 167.53C39.5799 168.15 40.5399 169.38 40.8399 171.19C40.8399 171.82 40.8199 172.31 40.7899 172.68Z" fill="#784726"/>
<path d="M66.9101 171.99C66.7801 171.85 66.6401 171.71 66.5001 171.58C66.3501 171.44 66.2001 171.31 66.0401 171.18C66.0401 171.18 66.0301 171.18 66.0201 171.16C65.8701 171.04 65.7101 170.93 65.5401 170.82C65.3601 170.69 65.1701 170.58 64.9801 170.47C64.7901 170.36 64.6001 170.26 64.4101 170.17C63.8901 169.91 63.3501 169.69 62.8101 169.51C62.5401 169.41 62.2701 169.33 62.0001 169.25H61.9901C61.6901 169.16 61.3801 169.08 61.0801 169.01C60.7701 168.93 60.4701 168.87 60.1801 168.81C59.1801 168.61 58.1301 168.4 57.5101 167.5C56.7101 166.37 57.5701 165.31 58.8301 165.29H58.8901C59.0301 165.29 59.1801 165.29 59.3201 165.33C59.4201 165.34 59.5201 165.36 59.6201 165.38C59.7601 165.41 59.9001 165.45 60.0301 165.49C60.1801 165.54 60.3301 165.59 60.4801 165.65C60.5601 165.67 60.6301 165.7 60.7101 165.73C61.8101 166.14 63.1301 166.57 64.3901 166.57C65.1201 166.57 65.8301 166.42 66.4701 166.05C66.6401 165.95 66.7801 165.85 66.9101 165.73V161.95C66.7501 161.78 66.5601 161.62 66.3501 161.49C64.3801 160.22 61.7901 159.62 59.2301 159.62C57.1601 159.62 55.1101 160.01 53.4001 160.75C53.2001 160.83 53.0201 160.93 52.8301 161.03C52.8101 161.04 52.8001 161.05 52.7801 161.06C52.6801 161.11 52.5801 161.17 52.4801 161.23C52.4201 161.26 52.3501 161.31 52.2901 161.35C52.2801 161.35 52.2801 161.35 52.2701 161.37C52.1601 161.43 52.0501 161.5 51.9501 161.58C51.7501 161.72 51.5701 161.87 51.3901 162.02C51.3001 162.1 51.2101 162.18 51.1301 162.26C51.0801 162.3 51.0401 162.34 51.0001 162.39C50.9601 162.43 50.9101 162.48 50.8701 162.53C50.7701 162.62 50.6801 162.72 50.5901 162.83C50.5501 162.88 50.5101 162.93 50.4701 162.98C50.3801 163.09 50.2901 163.2 50.2101 163.31C50.1501 163.39 50.1001 163.47 50.0401 163.55C49.9201 163.73 49.8101 163.91 49.7101 164.1C49.6101 164.28 49.5201 164.47 49.4401 164.66C49.3701 164.8 49.3201 164.95 49.2701 165.1C49.2301 165.2 49.2001 165.31 49.1701 165.41C49.1701 165.41 49.1668 165.417 49.1601 165.43C49.1401 165.51 49.1201 165.6 49.1001 165.67C49.1001 165.67 49.0901 165.71 49.0901 165.72C49.0601 165.84 49.0401 165.94 49.0201 166.06C48.9901 166.19 48.9801 166.32 48.9601 166.46C48.8701 167.29 48.9601 168.14 49.2701 168.98C49.3301 169.15 49.4001 169.32 49.4801 169.47C49.5201 169.56 49.5601 169.65 49.6101 169.73C49.7501 169.99 49.9001 170.23 50.0701 170.45C50.0801 170.46 50.0901 170.47 50.0901 170.48C50.1001 170.5 50.1201 170.52 50.1301 170.53H50.1401C50.2301 170.65 50.3001 170.74 50.3901 170.83C50.4401 170.89 50.5001 170.95 50.5601 171.01C50.6201 171.07 50.6801 171.13 50.7401 171.18C50.9801 171.4 51.2301 171.59 51.5101 171.76C51.5901 171.81 51.6701 171.86 51.7601 171.91C51.8501 171.96 51.9401 172.01 52.0401 172.06C52.2001 172.15 52.3701 172.22 52.5401 172.3C52.5601 172.3 52.5801 172.31 52.6001 172.32C52.7701 172.39 52.9401 172.46 53.1201 172.52C53.2501 172.57 53.3901 172.61 53.5201 172.65C53.7701 172.73 54.0201 172.8 54.2801 172.88C54.6001 172.96 54.9201 173.04 55.2401 173.11C55.9301 173.27 56.6201 173.42 57.3101 173.6C58.2101 173.83 59.6601 174.36 59.8601 175.43C59.9501 175.93 59.7501 176.31 59.4001 176.56C59.3401 176.6 59.2801 176.64 59.2101 176.67H59.2001C59.2001 176.67 59.1401 176.71 59.1001 176.72C59.0601 176.74 59.0201 176.75 58.9801 176.76C58.9301 176.79 58.8701 176.8 58.8101 176.81C58.8001 176.82 58.7901 176.82 58.7801 176.82L58.6301 176.85C58.5401 176.85 58.4501 176.87 58.3601 176.87H58.3301C57.2801 176.85 56.2001 176.48 55.2101 176.14C53.9501 175.71 52.6501 175.25 51.3001 175.25C51.0901 175.25 50.8801 175.26 50.6901 175.29H50.6601C50.5301 175.31 50.4101 175.33 50.2901 175.36C50.2801 175.36 50.2601 175.37 50.2501 175.37H50.2401C50.1801 175.38 50.1201 175.39 50.0701 175.41C49.7301 175.5 49.4301 175.64 49.1501 175.82C48.9901 175.92 48.8501 176.03 48.7201 176.15C48.6301 176.22 48.5501 176.3 48.4801 176.38C48.4401 176.43 48.4001 176.47 48.3601 176.52C48.3201 176.56 48.2901 176.61 48.2601 176.66C48.2501 176.68 48.2301 176.69 48.2201 176.71C48.2201 176.72 48.2201 176.73 48.2201 176.74C48.1901 176.78 48.1701 176.82 48.1401 176.87C48.1201 176.91 48.1001 176.95 48.0801 176.99C48.0401 177.08 48.0001 177.15 47.9801 177.24V177.26C47.9601 177.32 47.9501 177.36 47.9301 177.42C47.9101 177.5 47.9001 177.57 47.8901 177.64C47.8801 177.73 47.8701 177.82 47.8701 177.91C47.8701 178.26 47.9501 178.61 48.0901 178.95C48.1701 179.15 48.2701 179.35 48.3901 179.54C48.4401 179.63 48.5101 179.72 48.5701 179.82C48.6401 179.91 48.7101 180 48.7801 180.09C48.9301 180.28 49.1001 180.46 49.2701 180.63C49.4101 180.76 49.5601 180.9 49.7101 181.02C49.7301 181.04 49.7501 181.05 49.7701 181.07C49.9801 181.23 50.2001 181.39 50.4201 181.52C52.6901 182.9 55.6501 183.2 58.2701 183.22H58.4401C60.9701 183.2 63.5801 182.66 65.5901 181.08C66.1201 180.67 66.5901 180.2 66.9901 179.69C66.9501 179.42 66.9301 179.15 66.9301 178.87V171.99H66.9101Z" fill="#784726"/>
<path d="M90.2699 163.29C89.8499 162.75 89.3599 162.26 88.8099 161.85C88.6899 161.75 88.5599 161.66 88.4299 161.57C88.2699 161.46 88.0899 161.35 87.9099 161.24C87.6799 161.11 87.4299 160.98 87.1799 160.86C86.9399 160.75 86.6799 160.64 86.4299 160.55C86.2499 160.49 86.0599 160.43 85.8799 160.38C85.7299 160.33 85.5699 160.28 85.4099 160.25C85.2199 160.2 85.0299 160.16 84.8299 160.13H84.8199C84.5499 160.08 84.2699 160.04 83.9899 160.02C83.7099 159.99 83.4199 159.98 83.1399 159.98C82.8199 159.98 82.4999 160 82.1799 160.03C80.9699 160.15 79.7799 160.5 78.6799 161.04C78.5399 161.11 77.3999 161.6 77.3999 161.8V155.88C77.3999 155.11 77.2099 154.4 76.8399 153.75C76.4599 153.1 75.9399 152.58 75.2999 152.2C74.6599 151.82 73.9399 151.62 73.1599 151.62C72.3799 151.65 71.6599 151.85 71.0199 152.23C70.3699 152.61 69.8499 153.12 69.4799 153.76C69.0999 154.4 68.9099 155.1 68.9099 155.83V178.87C68.9099 179.31 68.9699 179.73 69.0899 180.12C69.1299 180.28 69.1899 180.44 69.2499 180.58C69.3299 180.77 69.4299 180.96 69.5499 181.14C69.6199 181.26 69.7099 181.38 69.7999 181.49C69.8999 181.63 70.0199 181.76 70.1499 181.89C70.9699 182.71 71.9599 183.12 73.1099 183.12C73.8699 183.12 74.5899 182.94 75.2499 182.58C75.8999 182.21 76.4299 181.7 76.8199 181.04C77.1999 180.39 77.3999 179.67 77.3999 178.91V169.77C77.3999 168.92 77.7099 168.2 78.3199 167.63C78.9099 167.07 79.6299 166.78 80.4499 166.78C81.2499 166.8 81.9399 167.12 82.4999 167.74C83.0399 168.34 83.3199 169.04 83.3199 169.81V178.91C83.3199 180.09 83.7299 181.1 84.5399 181.93C85.3499 182.75 86.3499 183.21 87.5299 183.27C88.7299 183.27 89.7599 182.85 90.5899 182.02C90.6999 181.91 90.7899 181.81 90.8899 181.7C90.4799 180.85 90.2699 179.9 90.2699 178.88V163.29Z" fill="#784726"/>
<path d="M111.61 161.77C110.44 161 109.09 160.46 107.58 160.18C106.94 160.03 106.32 159.96 105.73 159.96C104.65 159.96 103.45 160.18 102.14 160.6C101.74 160.74 101.5 160.82 101.19 160.82H100.72V155.99C100.72 155.21 100.52 154.47 100.15 153.83C99.79 153.17 99.27 152.65 98.62 152.25C97.98 151.87 97.25 151.67 96.47 151.67C95.31 151.7 94.31 152.12 93.5 152.96C92.69 153.79 92.27 154.8 92.27 155.95V178.88C92.27 179.99 92.59 180.94 93.23 181.71C93.3 181.8 93.39 181.9 93.48 181.99C94.15 182.67 95.02 183.18 95.98 183.18C96.09 183.18 96.19 183.18 96.3 183.16C97.61 182.99 98.48 181.73 99.78 181.53C99.89 181.51 100 181.5 100.12 181.5C100.62 181.5 101.15 181.67 101.67 181.89C101.85 181.97 102.02 182.05 102.19 182.13C102.71 182.38 103.23 182.65 103.71 182.85C103.88 182.91 104.04 182.97 104.19 183.01C104.69 183.15 105.2 183.22 105.69 183.26C105.84 183.27 106 183.27 106.15 183.27C108.82 183.27 111.36 181.86 113.22 179.86C113.55 179.5 113.87 179.11 114.16 178.72C114.25 178.6 114.33 178.48 114.41 178.35V164.59C113.66 163.45 112.71 162.51 111.61 161.77ZM109.43 172.59C109.36 173.11 109.15 173.63 108.81 174.12C108.38 174.83 107.79 175.39 107.06 175.76C106.33 176.14 105.54 176.33 104.72 176.33C103.34 176.33 102.17 175.83 101.25 174.86C100.44 173.97 100.04 172.88 100.04 171.64C100.07 171.49 100.1 171.35 100.11 171.26C100.11 171.14 100.13 171.01 100.14 170.8C100.38 169.69 100.91 168.77 101.7 168.09C102.52 167.38 103.52 167.02 104.66 167.02C105.29 167.02 105.95 167.16 106.62 167.43C108.22 168.06 109.18 169.28 109.48 171.09C109.48 171.72 109.47 172.22 109.43 172.59Z" fill="#784726"/>
<path d="M134.77 162.12C134.7 161.98 134.62 161.85 134.53 161.73C134.42 161.55 134.28 161.39 134.13 161.23C134.03 161.13 133.92 161.03 133.81 160.94C133.79 160.93 133.77 160.91 133.75 160.9C133.63 160.8 133.5 160.72 133.37 160.64C133.23 160.55 133.09 160.48 132.94 160.41C132.87 160.38 132.81 160.35 132.74 160.33C132.73 160.32 132.72 160.32 132.71 160.32C132.58 160.26 132.44 160.22 132.31 160.18C132.23 160.15 132.15 160.13 132.08 160.12C132 160.1 131.92 160.09 131.84 160.07C131.81 160.07 131.77 160.06 131.74 160.06C131.67 160.05 131.6 160.04 131.53 160.03C131.43 160.02 131.32 160.01 131.22 160.01H131.03C129.63 160.01 128.18 160.49 127.11 161.39C126.54 161.87 126.18 162.55 125.58 162.98C125.42 163.09 125.26 163.14 125.1 163.14C125.04 163.14 124.99 163.13 124.93 163.12C124.87 163.11 124.81 163.1 124.76 163.07C124.69 163.05 124.62 163.02 124.56 162.98C124.52 162.96 124.47 162.93 124.43 162.9C124.38 162.88 124.34 162.84 124.3 162.81C124.26 162.78 124.21 162.74 124.17 162.71C124.13 162.68 124.08 162.64 124.04 162.6C123.95 162.53 123.87 162.45 123.79 162.37C123.68 162.25 123.57 162.14 123.46 162.04C123.44 162.01 123.41 161.99 123.38 161.96C123.36 161.93 123.34 161.91 123.31 161.89C123.26 161.84 123.22 161.79 123.17 161.76C122.64 161.33 122.06 160.95 121.44 160.67C121.31 160.61 121.18 160.57 121.05 160.52C120.85 160.46 120.65 160.41 120.45 160.37C120.25 160.34 120.05 160.32 119.85 160.32C119.48 160.32 119.12 160.39 118.77 160.52C118.6 160.59 118.43 160.68 118.27 160.78C118.1 160.89 117.95 161.01 117.8 161.16C117.69 161.26 117.59 161.37 117.5 161.49C117.44 161.56 117.39 161.63 117.34 161.7C117.28 161.77 117.23 161.84 117.18 161.92C117.11 162.02 117.04 162.14 116.98 162.25C116.93 162.34 116.88 162.44 116.84 162.53C116.82 162.58 116.8 162.62 116.78 162.67C116.72 162.8 116.67 162.93 116.63 163.06C116.58 163.2 116.54 163.34 116.51 163.49C116.48 163.6 116.46 163.72 116.45 163.84C116.43 163.91 116.43 163.98 116.42 164.05V164.08C116.41 164.19 116.41 164.27 116.41 164.38V179.1C116.41 180.27 116.83 181.26 117.66 182.06C118.49 182.86 119.51 183.27 120.68 183.27C121.43 183.26 122.14 183.05 122.78 182.65C123.43 182.26 123.95 181.71 124.32 181.03C124.7 180.34 124.9 179.58 124.9 178.76V174.49C124.9 172.84 125.11 171.27 126.35 170.06C126.47 169.95 126.59 169.84 126.72 169.74C126.97 169.53 127.24 169.35 127.51 169.19C127.64 169.12 127.78 169.04 127.92 168.97C129.06 168.4 130.32 168.09 131.52 167.64C131.82 166.65 132.24 165.7 132.78 164.79C133.35 163.82 134.01 162.94 134.79 162.16C134.78 162.15 134.78 162.13 134.77 162.12Z" fill="#784726"/>
<path d="M153.31 164.25C153.31 163.82 153.35 163.39 153.43 162.98C153.39 162.94 153.36 162.91 153.32 162.88C152.23 161.93 150.98 161.18 149.61 160.67C148.23 160.16 146.71 159.9 145.11 159.9C142.85 159.9 140.76 160.43 138.9 161.49C138.24 161.86 137.62 162.29 137.06 162.77C136.04 163.62 135.19 164.64 134.51 165.8C133.9 166.84 133.46 167.94 133.2 169.09C133.01 169.92 132.91 170.79 132.91 171.67C132.93 173.75 133.47 175.71 134.54 177.47C135.6 179.24 137.08 180.66 138.93 181.68C140.78 182.71 142.86 183.23 145.11 183.23C147.36 183.23 149.49 182.69 151.37 181.62C152.63 180.9 153.72 180 154.62 178.93C155.51 177.88 156.19 176.7 156.63 175.44C156.85 174.82 157.01 174.19 157.12 173.55L154.05 167.26C153.56 166.22 153.31 165.21 153.31 164.25ZM149.78 172.59C149.71 173.11 149.5 173.63 149.16 174.12C148.73 174.83 148.14 175.39 147.41 175.76C146.68 176.14 145.89 176.33 145.07 176.33C143.69 176.33 142.52 175.83 141.6 174.86C140.79 173.97 140.39 172.88 140.39 171.64C140.42 171.49 140.44 171.35 140.45 171.26C140.45 171.14 140.47 171.01 140.49 170.8C140.73 169.69 141.25 168.77 142.05 168.09C142.87 167.38 143.87 167.02 145.01 167.02C145.64 167.02 146.29 167.16 146.97 167.43C148.57 168.06 149.53 169.28 149.82 171.09C149.82 171.72 149.81 172.22 149.78 172.59Z" fill="#784726"/>
<path d="M187.61 159.98C186.99 159.98 186.39 160.1 185.83 160.32C185.27 160.54 184.77 160.87 184.34 161.29C183.92 161.7 183.62 162.16 183.45 162.64L180.3 171.05L177.85 163.83C177.25 162.05 176.29 160.35 174.3 159.94C174.12 159.9 173.94 159.88 173.77 159.87C173.68 159.87 173.59 159.86 173.51 159.86C173.47 159.86 173.43 159.87 173.39 159.87C173.16 159.87 172.94 159.9 172.73 159.94C172.69 159.95 172.65 159.95 172.61 159.96C172.38 160.02 172.15 160.09 171.94 160.19C171.71 160.3 171.49 160.43 171.29 160.58C171.09 160.73 170.9 160.89 170.72 161.08C170.55 161.26 170.38 161.46 170.22 161.68C169.76 162.32 169.39 163.07 169.13 163.84L166.45 171.04L163.53 162.64C163.35 162.15 163.05 161.69 162.63 161.28C162.22 160.87 161.71 160.55 161.13 160.32C160.55 160.1 159.96 159.98 159.39 159.98C158.82 160.02 158.23 160.18 157.66 160.45C156.94 160.8 156.36 161.31 155.94 161.99C155.86 162.13 155.78 162.27 155.72 162.41C155.45 162.98 155.31 163.6 155.31 164.25C155.31 164.58 155.36 164.93 155.45 165.28C155.54 165.64 155.68 166.01 155.86 166.4L156.91 168.56V168.58L159.19 173.23L162.45 179.9C162.98 180.97 163.59 181.74 164.28 182.2C164.95 182.64 165.76 182.87 166.69 182.87C167.22 182.86 167.74 182.74 168.22 182.5C168.71 182.27 169.15 181.95 169.52 181.53C169.89 181.12 170.2 180.6 170.43 179.99L173.56 172.78L176.49 180C176.87 180.89 177.4 181.6 178.07 182.09C178.73 182.57 179.48 182.83 180.3 182.87C182.14 182.87 183.55 181.87 184.51 179.91L189.07 170.56V164.34C189.07 162.99 189.43 161.84 190.03 160.91C189.81 160.73 189.57 160.58 189.31 160.45C188.73 160.18 188.16 160.02 187.61 159.98Z" fill="#784726"/>
<path d="M207.28 160.11C206.74 160 206.19 159.95 205.64 159.95C204.48 159.95 203.32 160.18 202.25 160.62C201.61 160.88 201.01 161.35 200.4 161.7C200.28 161.77 200.17 161.83 200.05 161.88C199.94 161.94 199.83 161.99 199.72 162.03C199.61 162.07 199.51 162.1 199.39 162.13C199.23 162.17 199.07 162.19 198.9 162.19C198.64 162.19 198.37 162.14 198.09 162.02C196.93 161.54 196.09 160.36 194.76 160.31H194.63C194.09 160.31 193.6 160.43 193.16 160.65C192.94 160.76 192.74 160.9 192.55 161.05C192.02 161.48 191.61 162.08 191.36 162.75C191.17 163.25 191.07 163.8 191.07 164.34V178.83C191.07 180 191.48 181.03 192.29 181.87C193.13 182.67 194.14 183.08 195.31 183.08C196.48 183.08 197.45 182.68 198.25 181.88C199.09 181.04 199.52 180.01 199.52 178.83V169.81C199.52 169.02 199.82 168.29 200.41 167.65C200.97 167.07 201.68 166.78 202.51 166.78C203.34 166.78 204.06 167.1 204.58 167.71C205.18 168.27 205.48 168.98 205.48 169.81V178.87C205.48 180.07 205.9 181.08 206.74 181.9C207.58 182.71 208.61 183.12 209.79 183.12C210.55 183.11 211.26 182.91 211.91 182.53C212.55 182.15 213.06 181.63 213.44 180.98C213.82 180.34 214.01 179.62 214.01 178.83V167.67C214.01 163.89 210.87 160.81 207.28 160.11Z" fill="#784726"/>
<path d="M138.83 131.13L129.24 134.58C128 135 126.66 134.33 126.24 133.09L125.37 130.51L121.74 119.72C123.16 119.02 124.55 118.13 125.9 117.09C126.93 117.4 128.51 117.77 130.31 117.89L133.05 126.02L133.1 126C135.4 125.23 137.84 125.78 139.56 127.26C140.9 128.4 140.5 130.56 138.83 131.13Z" fill="#784726"/>
<path d="M101.24 135.52L91.1198 134.31C89.8198 134.13 88.9198 132.93 89.1098 131.63L89.4898 128.93L90.9198 118.82C91.5898 118.56 92.2298 118.25 92.8398 117.89H92.8498C94.6898 117.78 96.2998 117.4 97.3498 117.09C98.1298 117.69 98.9198 118.24 99.7198 118.73L98.3598 128.36H98.4098C100.82 128.71 102.75 130.3 103.63 132.39C104.31 134.01 102.98 135.76 101.24 135.52Z" fill="#784726"/>
<path d="M62.9499 90.88C62.5899 91.95 62.2999 92.96 62.0899 93.91C58.1199 96.31 54.2799 97.15 50.8399 97.15C42.6399 97.15 36.7099 92.35 36.6099 92.27C34.9699 90.9 34.7499 88.46 36.1099 86.82C37.4799 85.18 39.9099 84.95 41.5499 86.3C42.4699 87.05 49.5999 92.39 58.2099 87.18C60.2499 89.64 62.9499 90.88 62.9499 90.88Z" fill="#784726"/>
<path d="M138.83 131.13L129.24 134.58C128 135 126.66 134.33 126.24 133.09L125.37 130.51L121.74 119.72C123.16 119.02 124.55 118.13 125.9 117.09C126.93 117.4 128.51 117.77 130.31 117.89L133.05 126.02L133.1 126C135.4 125.23 137.84 125.78 139.56 127.26C140.9 128.4 140.5 130.56 138.83 131.13Z" fill="#784726"/>
<path d="M101.24 135.52L91.1198 134.31C89.8198 134.13 88.9198 132.93 89.1098 131.63L89.4898 128.93L90.9198 118.82C91.5898 118.56 92.2298 118.25 92.8398 117.89H92.8498C94.6898 117.78 96.2998 117.4 97.3498 117.09C98.1298 117.69 98.9198 118.24 99.7198 118.73L98.3598 128.36H98.4098C100.82 128.71 102.75 130.3 103.63 132.39C104.31 134.01 102.98 135.76 101.24 135.52Z" fill="#784726"/>
<path d="M62.9499 90.88C62.5899 91.95 62.2999 92.96 62.0899 93.91C58.1199 96.31 54.2799 97.15 50.8399 97.15C42.6399 97.15 36.7099 92.35 36.6099 92.27C34.9699 90.9 34.7499 88.46 36.1099 86.82C37.4799 85.18 39.9099 84.95 41.5499 86.3C42.4699 87.05 49.5999 92.39 58.2099 87.18C60.2499 89.64 62.9499 90.88 62.9499 90.88Z" fill="#784726"/>
<path d="M175.97 56.26C173.92 55.68 171.78 56.88 171.2 58.94C169.69 64.29 167.39 67.83 164.36 69.46C161.96 70.75 159.64 70.54 158.56 70.33C157.97 71.68 157.2 72.92 156.26 73.99C157.06 75.12 157.69 76.25 158.14 77.36C158.24 77.62 158.34 77.87 158.42 78.13C158.97 78.19 159.58 78.23 160.24 78.23C162.4 78.23 165.08 77.82 167.84 76.38C172.89 73.75 176.53 68.59 178.65 61.05C179.23 58.99 178.03 56.86 175.97 56.28V56.26Z" fill="#784726"/>
<path d="M158.42 78.13C158.34 77.87 158.24 77.62 158.14 77.36C157.69 76.25 157.06 75.12 156.26 73.99C157.2 72.92 157.97 71.68 158.56 70.33C158.65 70.11 158.74 69.89 158.83 69.66C159.47 67.97 159.81 66.12 159.81 64.22C159.81 60.46 158.54 57.01 156.27 54.46C158.6 51.16 159.44 47.93 158.76 44.83C157.93 41.08 155.05 38.62 153.15 37.37C154.69 31.8 154.26 27.28 151.89 23.92C149.28 20.21 145.04 19.03 142.69 18.66C141.93 16.23 140.7 14.33 139 12.96C135.92 0.139992 121.83 5.8 121.83 5.8C116.78 1.55 111.87 0.08 107.51 0H105.26C100.91 0.08 95.9998 1.55 90.9398 5.8C90.9398 5.8 76.4999 2.86102e-06 73.6599 13.44C73.6599 13.44 56.4299 13.77 62.9499 33.21C62.9499 33.21 49.5899 39.34 59.8699 51.38C56.7099 53.9 55.0499 57.99 55.0599 62.04C55.0699 64.37 55.6299 66.68 56.7799 68.67C56.9899 69.03 59.4998 73.14 59.8598 72.71C54.2098 79.34 55.7099 84.17 58.2099 87.18C60.2499 89.64 62.9499 90.88 62.9499 90.88C62.5899 91.95 62.2999 92.96 62.0899 93.91C58.2699 110.36 73.6599 110.65 73.6599 110.65C76.6599 119.92 84.7599 121.29 90.9199 118.82C91.5899 118.56 92.2299 118.25 92.8399 117.89H92.8499C94.6899 117.78 96.2999 117.4 97.3499 117.09C98.1299 117.69 98.9198 118.24 99.7198 118.73C103.16 120.84 106.81 121.94 110.62 122.01H112.68C115.8 121.95 118.83 121.19 121.74 119.72C123.16 119.02 124.55 118.13 125.9 117.09C126.93 117.4 128.51 117.77 130.31 117.89C132.53 118.04 135.08 117.8 137.39 116.57C139.93 115.21 141.71 112.94 142.69 109.8C145.04 109.42 149.28 108.24 151.89 104.54C154.26 101.17 154.69 96.65 153.15 91.09C155.05 89.84 157.93 87.37 158.76 83.63C159.16 81.84 159.04 80 158.42 78.13ZM154.44 82.65C153.7 86.09 149.64 88.03 149.61 88.05C148.58 88.52 148.07 89.69 148.43 90.76C149.91 95.19 150.03 98.69 148.77 101.16C148.63 101.45 148.47 101.71 148.29 101.97C146.44 104.61 143.03 105.31 141.57 105.49C141.15 105.54 140.9 105.55 140.89 105.55C139.86 105.57 138.98 106.3 138.77 107.3C138.75 107.38 138.74 107.46 138.72 107.53C138.14 110.06 137.03 111.74 135.32 112.66C133.46 113.66 131.18 113.63 129.38 113.35C129.16 113.31 128.95 113.28 128.75 113.24C127.31 112.95 126.3 112.56 126.28 112.55C125.53 112.25 124.66 112.39 124.04 112.91C122.83 113.93 121.58 114.79 120.31 115.48C120.17 115.56 120.03 115.63 119.89 115.71H119.88L117.48 116.73C116.55 117.05 115.61 117.28 114.66 117.42L107.89 117.29C105.32 116.79 102.81 115.64 100.41 113.85C100.26 113.75 100.12 113.63 99.9698 113.52C99.9598 113.52 99.9499 113.5 99.9299 113.49L100.41 113.85C100.01 113.56 99.6098 113.24 99.2198 112.91C99.0898 112.81 98.9599 112.72 98.8199 112.65C98.4999 112.48 98.1499 112.4 97.7899 112.4C97.6099 112.4 97.4299 112.42 97.2599 112.47C97.1599 112.49 97.0698 112.51 96.9698 112.55C96.9298 112.57 94.4199 113.54 91.6699 113.51C90.4099 113.5 89.0999 113.28 87.9499 112.67C86.1799 111.72 85.0399 109.97 84.4799 107.3C84.2699 106.3 83.3899 105.58 82.3699 105.55C82.3199 105.55 77.3299 105.37 74.9499 101.97C73.2099 99.47 73.1599 95.7 74.8199 90.76C75.1799 89.69 74.6699 88.52 73.6499 88.05C73.6099 88.03 69.5699 86.09 68.8099 82.67C68.3299 80.49 69.2799 77.98 71.6399 75.22C72.4299 74.29 72.3199 72.9 71.3999 72.11C71.2599 71.99 71.0998 71.88 70.9398 71.8C70.4298 71.16 69.4398 69.63 69.1098 69.06C68.2998 67.66 67.8699 65.99 67.8699 64.22C67.8699 61.07 69.1499 58.14 71.3399 56.4C71.8099 56.03 72.0999 55.48 72.1599 54.88C72.2199 54.29 72.0299 53.69 71.6399 53.24C69.2899 50.48 68.3399 47.98 68.8099 45.8C69.5499 42.36 73.6099 40.42 73.6499 40.41C74.6699 39.94 75.1799 38.77 74.8199 37.69C73.1599 32.76 73.2099 28.99 74.9499 26.49C77.3299 23.08 82.3198 22.91 82.3598 22.91C83.3898 22.89 84.2699 22.16 84.4799 21.15C85.0399 18.5 86.1698 16.74 87.9398 15.8C91.6098 13.82 96.9198 15.88 96.9698 15.9C97.7198 16.21 98.5898 16.07 99.2198 15.54C102.82 12.52 106.67 10.94 110.62 10.87H112.6C116.58 10.94 120.43 12.52 124.04 15.54C124.66 16.07 125.52 16.2 126.28 15.9C126.33 15.88 131.65 13.82 135.32 15.8C137.08 16.74 138.21 18.5 138.77 21.15C138.98 22.15 139.86 22.88 140.88 22.91C140.9 22.91 141.61 22.93 142.63 23.14C144.31 23.5 146.81 24.36 148.29 26.49C149.19 27.77 149.64 29.39 149.64 31.33C149.64 31.97 149.59 32.64 149.49 33.34C149.25 33.89 149.12 34.49 149.16 35.11C148.97 35.94 148.73 36.8 148.43 37.7C148.07 38.76 148.58 39.93 149.6 40.4C149.63 40.42 152.17 41.63 153.59 43.83C153.83 44.6 154.01 45.38 154.14 46.16C154.21 46.54 154.35 46.9 154.55 47.21C154.49 48.38 154.07 49.62 153.28 50.94H153.27C153.15 51.09 153.03 51.23 152.91 51.38C152.93 51.4 152.95 51.41 152.97 51.43C152.59 52.02 152.14 52.62 151.61 53.24C151.22 53.69 151.04 54.29 151.09 54.88C151.15 55.48 151.45 56.03 151.91 56.4C154.09 58.14 155.39 61.06 155.39 64.22C155.39 66.23 154.87 68.14 153.94 69.71H153.93C153.46 70.5 152.9 71.19 152.25 71.77C152.14 71.87 152.03 71.97 151.91 72.06C151.45 72.43 151.15 72.98 151.09 73.57C151.03 74.17 151.22 74.76 151.61 75.22C153.96 77.97 154.91 80.47 154.44 82.65Z" fill="#784726"/>
<path d="M151.91 56.4C151.45 56.03 151.15 55.48 151.09 54.88C151.04 54.29 151.22 53.69 151.61 53.24C152.14 52.62 152.59 52.02 152.97 51.43C153.08 51.27 153.18 51.11 153.27 50.95H153.28C154.07 49.62 154.49 48.38 154.55 47.21C154.57 46.73 154.54 46.26 154.44 45.8C154.28 45.07 153.98 44.42 153.59 43.83C152.17 41.63 149.63 40.42 149.6 40.4C148.58 39.93 148.07 38.76 148.43 37.7C148.73 36.8 148.97 35.94 149.16 35.12C149.31 34.5 149.42 33.91 149.49 33.34C149.59 32.64 149.64 31.97 149.64 31.34C149.64 29.39 149.19 27.77 148.29 26.49C146.81 24.36 144.31 23.5 142.63 23.14C141.61 22.93 140.9 22.91 140.88 22.91C139.86 22.88 138.98 22.15 138.77 21.15C138.21 18.5 137.08 16.74 135.32 15.8C131.65 13.82 126.33 15.88 126.28 15.9C125.52 16.2 124.66 16.07 124.04 15.54C120.43 12.52 116.58 10.94 112.6 10.86H110.62C106.67 10.94 102.82 12.52 99.2199 15.54C98.5899 16.07 97.7199 16.21 96.9699 15.9C96.9199 15.88 91.6099 13.82 87.9399 15.8C86.1699 16.74 85.0399 18.5 84.4799 21.15C84.2699 22.16 83.3899 22.89 82.3599 22.91C82.3199 22.91 77.3299 23.08 74.9499 26.49C73.2099 28.99 73.1599 32.76 74.8199 37.69C75.1799 38.77 74.6699 39.94 73.6499 40.41C73.6099 40.42 69.5499 42.36 68.8099 45.8C68.3399 47.98 69.2899 50.48 71.6399 53.24C72.0299 53.69 72.2199 54.29 72.1599 54.88C72.0999 55.48 71.8099 56.03 71.3399 56.4C69.1499 58.14 67.8599 61.07 67.8699 64.22C67.8699 65.99 68.2999 67.66 69.1099 69.06C69.4399 69.63 70.4299 71.16 70.9399 71.8C71.0999 71.88 71.2599 71.99 71.3999 72.11C72.3199 72.9 72.4299 74.29 71.6399 75.22C69.2799 77.98 68.3299 80.49 68.8099 82.67C69.5699 86.09 73.6099 88.03 73.6499 88.05C74.6699 88.52 75.1799 89.69 74.8199 90.76C73.1599 95.7 73.2099 99.47 74.9499 101.97C77.3299 105.37 82.3199 105.55 82.3699 105.55C83.3899 105.58 84.2699 106.3 84.4799 107.3C85.0399 109.97 86.1799 111.72 87.9499 112.67C89.0999 113.28 90.4099 113.5 91.6699 113.51C94.4199 113.54 96.9299 112.57 96.9699 112.55C97.0699 112.51 97.1599 112.49 97.2599 112.47C97.4299 112.42 97.6099 112.4 97.7899 112.4C98.1499 112.4 98.4999 112.48 98.8199 112.65C98.9599 112.72 99.0899 112.81 99.2199 112.91C99.6099 113.24 100.01 113.56 100.41 113.85C102.81 115.64 105.32 116.79 107.89 117.29C108.8 117.47 109.73 117.57 110.66 117.59H112.64C113.32 117.58 113.99 117.52 114.66 117.42C115.61 117.28 116.55 117.05 117.48 116.73C118.29 116.45 119.09 116.11 119.88 115.71H119.89C120.03 115.63 120.17 115.56 120.31 115.48C121.58 114.79 122.83 113.93 124.04 112.91C124.66 112.39 125.53 112.25 126.28 112.55C126.3 112.56 127.31 112.95 128.75 113.24C128.95 113.28 129.16 113.31 129.38 113.35C131.18 113.63 133.46 113.66 135.32 112.66C137.03 111.74 138.14 110.06 138.72 107.53C138.74 107.46 138.75 107.38 138.77 107.3C138.98 106.3 139.86 105.57 140.89 105.55C140.9 105.55 141.15 105.55 141.57 105.49C143.03 105.31 146.44 104.61 148.29 101.97C148.47 101.71 148.63 101.45 148.77 101.16C150.03 98.69 149.91 95.19 148.43 90.76C148.07 89.69 148.58 88.52 149.61 88.05C149.64 88.03 153.7 86.09 154.44 82.65C154.91 80.47 153.96 77.97 151.61 75.22C151.22 74.76 151.03 74.17 151.09 73.57C151.15 72.98 151.45 72.43 151.91 72.06C152.03 71.97 152.14 71.87 152.25 71.77C152.9 71.19 153.46 70.5 153.93 69.72H153.94C154.87 68.14 155.39 66.23 155.39 64.22C155.39 61.06 154.09 58.14 151.91 56.4Z" fill="#F9BB54"/>
<path d="M125.91 62.74C127.876 62.74 129.47 61.1461 129.47 59.18C129.47 57.2139 127.876 55.62 125.91 55.62C123.944 55.62 122.35 57.2139 122.35 59.18C122.35 61.1461 123.944 62.74 125.91 62.74Z" fill="#3E3D3B"/>
<path d="M105.3 62.16C107.266 62.16 108.86 60.5662 108.86 58.6001C108.86 56.6339 107.266 55.04 105.3 55.04C103.334 55.04 101.74 56.6339 101.74 58.6001C101.74 60.5662 103.334 62.16 105.3 62.16Z" fill="#3E3D3B"/>
<path d="M116.32 75.63C111.63 75.63 108.04 72.34 107.88 72.19C106.99 71.36 106.94 69.96 107.77 69.06C108.6 68.17 110 68.12 110.89 68.94C110.94 68.99 113.67 71.43 116.78 71.18C118.54 71.04 120.19 70 121.67 68.11C122.43 67.15 123.82 66.99 124.77 67.74C125.73 68.49 125.9 69.88 125.14 70.85C122.85 73.77 120.14 75.36 117.09 75.6C116.83 75.62 116.58 75.63 116.32 75.63Z" fill="#3E3D3B"/>
<path d="M108.138 31.7186L104.532 35.3249C103.927 35.9302 103.927 36.9116 104.532 37.5169C105.137 38.1222 106.119 38.1222 106.724 37.5169L110.33 33.9107C110.936 33.3054 110.936 32.3239 110.33 31.7186C109.725 31.1133 108.744 31.1133 108.138 31.7186Z" fill="#F8DDB6"/>
<path d="M95.2296 31.7073L91.6234 35.3135C91.018 35.9189 91.018 36.9003 91.6234 37.5056C92.2287 38.1109 93.2101 38.1109 93.8154 37.5056L97.4216 33.8993C98.0269 33.294 98.0269 32.3126 97.4216 31.7073C96.8163 31.102 95.8349 31.102 95.2296 31.7073Z" fill="#DE983C"/>
<path d="M121.054 31.7128L117.448 35.319C116.843 35.9243 116.843 36.9057 117.448 37.5111C118.053 38.1164 119.035 38.1164 119.64 37.5111L123.246 33.9048C123.851 33.2995 123.851 32.3181 123.246 31.7128C122.641 31.1075 121.659 31.1075 121.054 31.7128Z" fill="#DE983C"/>
<path d="M133.963 31.714L130.357 35.3203C129.751 35.9256 129.751 36.907 130.357 37.5123C130.962 38.1176 131.943 38.1176 132.549 37.5123L136.155 33.906C136.76 33.3007 136.76 32.3193 136.155 31.714C135.55 31.1087 134.568 31.1087 133.963 31.714Z" fill="#F8DDB6"/>
<path d="M105.876 89.9727L102.27 93.5789C101.665 94.1842 101.665 95.1656 102.27 95.7709C102.875 96.3762 103.857 96.3763 104.462 95.7709L108.068 92.1647C108.673 91.5594 108.673 90.578 108.068 89.9727C107.463 89.3673 106.481 89.3674 105.876 89.9727Z" fill="#DE983C"/>
<path d="M92.9674 89.9714L89.3612 93.5777C88.7558 94.183 88.7558 95.1644 89.3611 95.7697C89.9665 96.375 90.9479 96.375 91.5532 95.7697L95.1594 92.1635C95.7648 91.5582 95.7647 90.5768 95.1594 89.9714C94.5541 89.3661 93.5727 89.3661 92.9674 89.9714Z" fill="#F8DDB6"/>
<path d="M118.802 89.9669L115.196 93.5732C114.59 94.1785 114.59 95.1599 115.196 95.7652C115.801 96.3705 116.782 96.3705 117.388 95.7652L120.994 92.159C121.599 91.5537 121.599 90.5722 120.994 89.9669C120.389 89.3616 119.407 89.3616 118.802 89.9669Z" fill="#F8DDB6"/>
<path d="M131.711 89.9682L128.105 93.5744C127.499 94.1797 127.499 95.1611 128.105 95.7664C128.71 96.3717 129.691 96.3718 130.297 95.7664L133.903 92.1602C134.508 91.5549 134.508 90.5734 133.903 89.9681C133.298 89.3628 132.316 89.3628 131.711 89.9682Z" fill="#DE983C"/>
<path d="M88.6297 75.6001C91.8827 75.6001 94.5197 72.963 94.5197 69.7101C94.5197 66.4571 91.8827 63.8201 88.6297 63.8201C85.3768 63.8201 82.7397 66.4571 82.7397 69.7101C82.7397 72.963 85.3768 75.6001 88.6297 75.6001Z" fill="#E8A23D"/>
<path d="M140.98 75.6001C144.233 75.6001 146.87 72.963 146.87 69.7101C146.87 66.4571 144.233 63.8201 140.98 63.8201C137.727 63.8201 135.09 66.4571 135.09 69.7101C135.09 72.963 137.727 75.6001 140.98 75.6001Z" fill="#E8A23D"/>
</svg>
